<?xml version="1.0" encoding="utf-8"?>
<!-- Generator: Adobe Illustrator 27.5.0, SVG Export Plug-In . SVG Version: 6.00 Build 0)  -->
<svg version="1.1" id="Layer_1" xmlns="http://www.w3.org/2000/svg" xmlns:xlink="http://www.w3.org/1999/xlink" x="0px" y="0px"
	 viewBox="0 0 50 50" style="enable-background:new 0 0 50 50;" xml:space="preserve">
<style type="text/css">
	.st0{fill:#C0CCE1;}
	.st1{fill:#FFFFFF;}
</style>
<circle class="st0" cx="25" cy="25" r="21.27"/>
<g>
	<path class="st1" d="M19.18,22.96h-7.83c-0.59,0-1.08-0.49-1.08-1.08s0.49-1.08,1.08-1.08h7.83c0.59,0,1.08,0.49,1.08,1.08
		C20.29,22.47,19.8,22.96,19.18,22.96z"/>
	<path class="st1" d="M36.66,30.1h-7.83c-0.59,0-1.08-0.49-1.08-1.08s0.49-1.08,1.08-1.08h7.83c0.59,0,1.08,0.49,1.08,1.08
		C37.73,29.61,37.24,30.1,36.66,30.1z"/>
	<path class="st1" d="M29.81,26.52H18.53c-0.59,0-1.08-0.49-1.08-1.08s0.49-1.08,1.08-1.08h11.28c0.59,0,1.08,0.49,1.08,1.08
		C30.88,26.03,30.39,26.52,29.81,26.52L29.81,26.52z"/>
	<path class="st1" d="M38.68,29.39c0.36-0.2,0.36-0.52,0-0.75l-2.51-1.43c-0.36-0.2-0.65-0.03-0.65,0.36v2.9
		c0,0.39,0.29,0.59,0.65,0.36L38.68,29.39z"/>
</g>
</svg>
