<?xml version="1.0" encoding="utf-8"?>
<!-- Generator: Adobe Illustrator 27.5.0, SVG Export Plug-In . SVG Version: 6.00 Build 0)  -->
<svg version="1.1" id="Layer_1" xmlns="http://www.w3.org/2000/svg" xmlns:xlink="http://www.w3.org/1999/xlink" x="0px" y="0px"
	 viewBox="0 0 50 50" style="enable-background:new 0 0 50 50;" xml:space="preserve">
<style type="text/css">
	.st0{fill:#C0CCE1;}
	.st1{fill:#FFFFFF;}
</style>
<circle class="st0" cx="25.1" cy="24.31" r="21.27"/>
<g>
	<path class="st1" d="M35.55,14.17c0-0.72-0.6-1.33-1.33-1.33c-3.06-0.07-6.08,1.18-8.25,3.35l-5.14,5.14l-2.75-0.39
		c-0.24-0.02-0.46,0.05-0.63,0.22l-1.42,1.42c-0.34,0.34-0.27,0.94,0.14,1.18l5.19,2.99c0.12,0.07,0.22,0.17,0.27,0.27l2.99,5.19
		c0.24,0.43,0.82,0.51,1.18,0.14l1.42-1.42c0.17-0.17,0.24-0.41,0.22-0.63l-0.39-2.75l5.16-5.16C34.37,20.25,35.6,17.26,35.55,14.17
		L35.55,14.17z M30.82,17.02c-0.89,0.39-1.71,0.94-2.39,1.64l-2.29,2.29c-0.14,0.14-0.34,0.22-0.53,0.22s-0.39-0.07-0.53-0.22
		c-0.29-0.29-0.29-0.77,0-1.06l2.29-2.29c0.82-0.82,1.79-1.47,2.85-1.95c0.39-0.17,0.82,0,0.99,0.39
		C31.37,16.42,31.21,16.85,30.82,17.02L30.82,17.02z"/>
	<path class="st1" d="M16.8,26.07c-0.36-0.36-0.99-0.36-1.35,0l-2.53,2.53c-0.36,0.36-0.36,0.99,0,1.35
		c0.19,0.19,0.43,0.29,0.68,0.29c0.24,0,0.48-0.1,0.68-0.29l2.53-2.53C17.16,27.03,17.16,26.43,16.8,26.07L16.8,26.07z"/>
	<path class="st1" d="M20.98,31.59l-2.53,2.53c-0.36,0.36-0.36,0.99,0,1.35c0.19,0.19,0.43,0.29,0.68,0.29
		c0.24,0,0.48-0.1,0.68-0.29l2.53-2.53c0.36-0.36,0.36-0.99,0-1.35C21.96,31.23,21.36,31.23,20.98,31.59L20.98,31.59z"/>
	<path class="st1" d="M20.23,28.17c-0.36-0.36-0.99-0.36-1.35,0l-2.53,2.53c-0.36,0.36-0.36,0.99,0,1.35
		c0.19,0.19,0.43,0.29,0.68,0.29c0.24,0,0.48-0.1,0.68-0.29l2.53-2.53C20.61,29.16,20.61,28.53,20.23,28.17L20.23,28.17z"/>
</g>
</svg>
