<?xml version="1.0" encoding="utf-8"?>
<!-- Generator: Adobe Illustrator 27.5.0, SVG Export Plug-In . SVG Version: 6.00 Build 0)  -->
<svg version="1.1" id="Layer_1" xmlns="http://www.w3.org/2000/svg" xmlns:xlink="http://www.w3.org/1999/xlink" x="0px" y="0px"
	 viewBox="0 0 50 50" style="enable-background:new 0 0 50 50;" xml:space="preserve">
<style type="text/css">
	.st0{fill:#C0CCE1;}
	.st1{fill:#FFFFFF;}
</style>
<circle class="st0" cx="25" cy="25" r="21.27"/>
<g>
	<path class="st1" d="M35.82,15.02l-0.13-0.59L35.1,14.3c-3.28-0.75-6.74-0.27-9.64,1.3l-0.5,0.27v0.64c0,2.04,0.71,3.92,1.9,5.4
		l-0.84,0.84l-3.49-3.49l-0.91,0.91l3.49,3.49l-0.7,0.7l-3.17-3.17l-0.91,0.91l3.17,3.17l-0.7,0.7l-2.2-2.2l-0.91,0.91l2.2,2.2
		l-0.7,0.7l-1.24-1.24l-0.91,0.91l1.24,1.24l-1.11,1.11c-2.02-0.4-4.04-0.88-6.09-0.88v5.13l2.56,0.64l0.64,2.56h5.13
		c0-2.05-0.48-4.07-0.88-6.09l1.11-1.11l1.24,1.24l0.91-0.91l-1.24-1.24l0.7-0.7l2.2,2.2l0.91-0.91l-2.2-2.2l0.7-0.7l3.17,3.17
		l0.91-0.91l-3.17-3.17l0.7-0.7l3.49,3.49l0.91-0.91l-3.49-3.49l0.84-0.84c1.48,1.19,3.36,1.9,5.4,1.9h0.64l0.27-0.5
		c1.08-2,1.65-4.26,1.65-6.55C36.17,17.08,36.05,16.04,35.82,15.02L35.82,15.02z M26.9,17.03c2.2-1.05,4.72-1.4,7.17-0.97
		c0.12,0.68,0.18,1.38,0.18,2.06c0,1.77-0.4,3.52-1.15,5.11C29.79,22.97,27.15,20.33,26.9,17.03L26.9,17.03z M17.81,35.1l-0.56-2.23
		l-2.23-0.56v-1.56c0.97,0.13,1.96,0.33,2.98,0.54c0.23,0.05,0.46,0.09,0.69,0.14c0.05,0.23,0.09,0.46,0.14,0.69
		c0.21,1.02,0.41,2.01,0.54,2.98L17.81,35.1z"/>
	<path class="st1" d="M31.87,17.34l-0.83,0.83l-0.83-0.83l-0.91,0.91l0.83,0.83l-0.83,0.83l0.91,0.91l0.83-0.83l0.83,0.83l0.91-0.91
		l-0.83-0.83l0.83-0.83L31.87,17.34z"/>
</g>
</svg>
