<?xml version="1.0" encoding="utf-8"?>
<!-- Generator: Adobe Illustrator 27.5.0, SVG Export Plug-In . SVG Version: 6.00 Build 0)  -->
<svg version="1.1" id="Layer_1" xmlns="http://www.w3.org/2000/svg" xmlns:xlink="http://www.w3.org/1999/xlink" x="0px" y="0px"
	 viewBox="0 0 50 50" style="enable-background:new 0 0 50 50;" xml:space="preserve">
<style type="text/css">
	.st0{fill:#C0CCE1;}
	.st1{fill:#FFFFFF;}
</style>
<ellipse transform="matrix(0.2298 -0.9732 0.9732 0.2298 -5.075 43.5874)" class="st0" cx="25" cy="25" rx="21.27" ry="21.27"/>
<g>
	<path class="st1" d="M25.01,19.42c0.52,0,0.97-0.45,0.97-0.97v-2.7c0-0.52-0.45-0.97-0.97-0.97s-0.97,0.45-0.97,0.97v2.7
		C24.05,19,24.46,19.42,25.01,19.42z"/>
	<path class="st1" d="M28.61,20.07c0.1,0.03,0.21,0.07,0.35,0.07c0.38,0,0.76-0.24,0.9-0.62L30.79,17c0.17-0.48-0.07-1.07-0.59-1.24
		c-0.48-0.17-1.07,0.07-1.24,0.59l-0.93,2.52C27.85,19.35,28.12,19.9,28.61,20.07L28.61,20.07z"/>
	<path class="st1" d="M20.18,19.48c0.14,0.38,0.52,0.62,0.9,0.62c0.1,0,0.21-0.03,0.35-0.07c0.52-0.17,0.76-0.73,0.59-1.24
		l-0.93-2.52c-0.17-0.52-0.73-0.76-1.24-0.59s-0.76,0.73-0.59,1.24L20.18,19.48z"/>
	<path class="st1" d="M25.01,30.27c-0.52,0-0.97,0.41-0.97,0.97v2.7c0,0.52,0.45,0.97,0.97,0.97s0.97-0.41,0.97-0.97v-2.7
		C25.98,30.68,25.57,30.27,25.01,30.27z"/>
	<path class="st1" d="M21.42,29.61c-0.1-0.03-0.21-0.07-0.35-0.07c-0.38,0-0.76,0.24-0.9,0.62l-0.93,2.52
		c-0.17,0.48,0.07,1.07,0.59,1.24c0.48,0.17,1.07-0.07,1.24-0.59L22,30.81C22.18,30.33,21.9,29.78,21.42,29.61L21.42,29.61z"/>
	<path class="st1" d="M29.85,30.2c-0.14-0.38-0.52-0.62-0.9-0.62c-0.1,0-0.21,0.03-0.35,0.07c-0.52,0.17-0.76,0.73-0.59,1.24
		l0.93,2.52c0.17,0.52,0.73,0.76,1.24,0.59c0.52-0.17,0.76-0.73,0.59-1.24L29.85,30.2z"/>
	<path class="st1" d="M23.53,23.73h-3.77c-0.17-1.38-1.38-2.49-2.8-2.49h-2.07c-1.45,0-2.63,1.07-2.8,2.49H9.05
		c-0.24,0-0.45,0.21-0.45,0.45v1.35c0,0.24,0.21,0.45,0.45,0.45h3.01c0.17,1.42,1.35,2.49,2.8,2.49h2.07c1.45,0,2.63-1.11,2.8-2.49
		h4.08L23.53,23.73z M17.55,25.6c0,0.35-0.28,0.62-0.62,0.62h-2.07c-0.35,0-0.62-0.28-0.62-0.62v-1.52c0-0.35,0.28-0.62,0.62-0.62
		h2.07c0.35,0,0.62,0.28,0.62,0.62V25.6z"/>
	<path class="st1" d="M26.5,25.95h3.77c0.17,1.38,1.38,2.49,2.8,2.49h2.07c1.45,0,2.63-1.07,2.8-2.49h3.01
		c0.24,0,0.45-0.21,0.45-0.45v-1.35c0-0.24-0.21-0.45-0.45-0.45h-3.01c-0.17-1.42-1.35-2.49-2.8-2.49h-2.07
		c-1.45,0-2.63,1.11-2.8,2.49h-4.08L26.5,25.95z M32.48,24.08c0-0.35,0.28-0.62,0.62-0.62h2.07c0.35,0,0.62,0.28,0.62,0.62v1.52
		c0,0.35-0.28,0.62-0.62,0.62H33.1c-0.35,0-0.62-0.28-0.62-0.62V24.08z"/>
</g>
</svg>
