<?xml version="1.0" encoding="utf-8"?>
<!-- Generator: Adobe Illustrator 27.5.0, SVG Export Plug-In . SVG Version: 6.00 Build 0)  -->
<svg version="1.1" id="Layer_1" xmlns="http://www.w3.org/2000/svg" xmlns:xlink="http://www.w3.org/1999/xlink" x="0px" y="0px"
	 viewBox="0 0 50 50" style="enable-background:new 0 0 50 50;" xml:space="preserve">
<style type="text/css">
	.st0{fill:#C0CCE1;}
	.st1{fill:#FFFFFF;}
</style>
<circle class="st0" cx="25" cy="25" r="21.27"/>
<g>
	<path class="st1" d="M29.03,23.16c-0.12,0.09-0.2,0.23-0.22,0.38s0.02,0.31,0.11,0.43c0.32,0.42,0.46,0.94,0.39,1.46
		c-0.07,0.52-0.35,0.99-0.76,1.31c-0.17,0.12-0.25,0.33-0.23,0.53s0.16,0.38,0.35,0.46s0.41,0.05,0.57-0.07
		c0.66-0.5,1.1-1.25,1.21-2.07s-0.11-1.66-0.61-2.32c-0.09-0.12-0.23-0.2-0.38-0.22C29.31,23.03,29.16,23.07,29.03,23.16
		L29.03,23.16z"/>
	<path class="st1" d="M30.23,28.53c-0.17,0.12-0.25,0.33-0.23,0.53s0.16,0.38,0.35,0.46s0.41,0.05,0.57-0.07
		c0.75-0.56,1.33-1.32,1.69-2.18c0.36-0.86,0.49-1.8,0.37-2.73s-0.48-1.81-1.05-2.55c-0.12-0.17-0.33-0.25-0.53-0.23
		s-0.38,0.16-0.46,0.35s-0.05,0.41,0.07,0.57c0.44,0.58,0.73,1.27,0.82,2s-0.01,1.46-0.29,2.14C31.27,27.49,30.81,28.08,30.23,28.53
		L30.23,28.53z"/>
	<path class="st1" d="M25.11,29.05c-1.3,0.23-2.63,0.22-3.93-0.03c-0.15-0.04-2.08-0.56-2.85-1.72c-0.11-0.17-0.31-0.27-0.52-0.26
		s-0.39,0.13-0.48,0.32c-0.09,0.18-0.08,0.4,0.03,0.58c0.78,1.2,2.35,1.85,3.11,2.08v3.74c0,0.21,0.11,0.4,0.29,0.5
		c0.18,0.1,0.4,0.1,0.58,0s0.29-0.29,0.29-0.5v-3.48c1.23,0.17,2.48,0.15,3.7-0.07c0.6-0.12,1.13-0.49,1.44-1.02
		s0.37-1.17,0.18-1.75c-0.01-0.21,0.01-0.41,0.06-0.61l0.08-0.31l0,0c0.07-0.27,0.02-0.55-0.13-0.78c-0.15-0.23-0.39-0.39-0.65-0.44
		c-0.79-0.14-1.31-0.48-1.52-1c0.83,0.02,1.66-0.09,2.45-0.34c0.12-0.04,0.22-0.12,0.29-0.22c0.07-0.1,0.11-0.23,0.1-0.35
		l-0.07-1.47l0,0c0.46-0.17,0.87-0.44,1.2-0.8c0.21-0.23,0.33-0.52,0.36-0.83s-0.04-0.62-0.21-0.89c-0.18-0.27-0.43-0.48-0.73-0.61
		c-1-0.51-1.65-1.51-1.71-2.63c-0.01-0.33-0.04-0.67-0.09-1c-0.03-0.2-0.17-0.37-0.37-0.45c-0.19-0.07-0.41-0.04-0.57,0.09
		s-0.24,0.34-0.21,0.54c0.04,0.29,0.07,0.57,0.08,0.86c0.04,0.75,0.27,1.48,0.67,2.11c0.41,0.63,0.97,1.15,1.64,1.49
		c0.11,0.05,0.2,0.11,0.28,0.19c0.03,0.05,0.05,0.12,0.04,0.18c-0.01,0.06-0.03,0.12-0.07,0.17c-0.3,0.3-0.67,0.51-1.09,0.61
		c-0.13,0.03-0.24,0.11-0.31,0.22c-0.08,0.11-0.12,0.24-0.11,0.37l0.07,1.44c-0.57,0.13-1.16,0.18-1.74,0.16
		c-0.35-0.01-0.69,0.15-0.9,0.44c-0.21,0.27-0.27,0.63-0.17,0.96c0.17,0.56,0.69,1.53,2.29,1.88l-0.03,0.14l0,0
		c-0.1,0.38-0.12,0.77-0.06,1.16c0.01,0.02,0.01,0.05,0.02,0.07c0.1,0.27,0.07,0.57-0.07,0.82C25.63,28.83,25.39,29,25.11,29.05
		L25.11,29.05z"/>
	<path class="st1" d="M35.57,18.4c0-0.4-0.16-0.79-0.45-1.08c-0.29-0.29-0.67-0.45-1.08-0.45h-1.25c-0.21,0-0.4,0.11-0.5,0.29
		s-0.1,0.4,0,0.58s0.29,0.29,0.5,0.29h1.25c0.1,0,0.19,0.04,0.26,0.11s0.11,0.16,0.11,0.26v1.24c0,0.21,0.11,0.4,0.29,0.5
		c0.18,0.1,0.4,0.1,0.58,0s0.29-0.29,0.29-0.5V18.4z"/>
	<path class="st1" d="M16.8,16.87h-1.25c-0.4,0-0.79,0.16-1.08,0.45c-0.29,0.29-0.45,0.67-0.45,1.08v1.24c0,0.21,0.11,0.4,0.29,0.5
		c0.18,0.1,0.4,0.1,0.58,0s0.29-0.29,0.29-0.5V18.4c0-0.1,0.04-0.19,0.11-0.26c0.07-0.07,0.16-0.11,0.26-0.11h1.25
		c0.21,0,0.4-0.11,0.5-0.29s0.1-0.4,0-0.58C17.2,16.98,17.01,16.87,16.8,16.87L16.8,16.87z"/>
	<path class="st1" d="M14.03,31.26c0,0.4,0.16,0.79,0.45,1.08s0.67,0.45,1.08,0.45h1.25c0.21,0,0.4-0.11,0.5-0.29s0.1-0.4,0-0.58
		s-0.29-0.29-0.5-0.29h-1.25c-0.1,0-0.19-0.04-0.26-0.11s-0.11-0.16-0.11-0.26v-1.25c0-0.21-0.11-0.4-0.29-0.5s-0.4-0.1-0.58,0
		s-0.29,0.29-0.29,0.5V31.26z"/>
	<path class="st1" d="M34.99,29.44c-0.15,0-0.3,0.06-0.41,0.17c-0.11,0.11-0.17,0.26-0.17,0.41v1.25c0,0.1-0.04,0.19-0.11,0.26
		c-0.07,0.07-0.16,0.11-0.26,0.11h-1.25c-0.21,0-0.4,0.11-0.5,0.29s-0.1,0.4,0,0.58s0.29,0.29,0.5,0.29h1.25
		c0.4,0,0.79-0.16,1.08-0.45c0.29-0.29,0.45-0.67,0.45-1.08v-1.25c0-0.15-0.06-0.3-0.17-0.41C35.29,29.5,35.14,29.44,34.99,29.44
		L34.99,29.44z"/>
</g>
</svg>
