<?xml version="1.0" encoding="utf-8"?>
<!-- Generator: Adobe Illustrator 27.5.0, SVG Export Plug-In . SVG Version: 6.00 Build 0)  -->
<svg version="1.1" id="Layer_1" xmlns="http://www.w3.org/2000/svg" xmlns:xlink="http://www.w3.org/1999/xlink" x="0px" y="0px"
	 viewBox="0 0 50 50" style="enable-background:new 0 0 50 50;" xml:space="preserve">
<style type="text/css">
	.st0{fill:#C0CCE1;}
	.st1{fill:#FFFFFF;}
</style>
<circle class="st0" cx="25" cy="25" r="21.27"/>
<g>
	<path class="st1" d="M23.44,24.87c2.58,0,4.69-2.1,4.69-4.69s-2.1-4.69-4.69-4.69s-4.69,2.1-4.69,4.69S20.85,24.87,23.44,24.87z"/>
	<path class="st1" d="M27.16,25.86h-7.43c-2.39,0-4.35,1.72-4.35,3.83v3.25c0,0.29,0.24,0.53,0.53,0.53h15.07
		c0.29,0,0.53-0.24,0.53-0.53v-3.25C31.5,27.58,29.56,25.86,27.16,25.86z"/>
	<path class="st1" d="M32.94,19.55l2.81-2.81c0.18-0.18,0.18-0.48,0-0.66s-0.48-0.18-0.66,0l-2.81,2.81l-2.81-2.81
		c-0.18-0.18-0.48-0.18-0.66,0s-0.18,0.48,0,0.66l2.81,2.81l-2.68,2.68c-0.18,0.18-0.18,0.48,0,0.66c0.09,0.09,0.21,0.14,0.33,0.14
		s0.24-0.05,0.33-0.14l2.68-2.68l2.68,2.68c0.09,0.09,0.21,0.14,0.33,0.14s0.24-0.05,0.33-0.14c0.18-0.18,0.18-0.48,0-0.66
		L32.94,19.55z"/>
</g>
</svg>
