<?xml version="1.0" encoding="utf-8"?>
<!-- Generator: Adobe Illustrator 27.5.0, SVG Export Plug-In . SVG Version: 6.00 Build 0)  -->
<svg version="1.1" id="Layer_1" xmlns="http://www.w3.org/2000/svg" xmlns:xlink="http://www.w3.org/1999/xlink" x="0px" y="0px"
	 viewBox="0 0 1000 1000" style="enable-background:new 0 0 1000 1000;" xml:space="preserve">
<style type="text/css">
	.st0{fill:url(#SVGID_1_);}
	.st1{fill:none;}
	.st2{opacity:0.3;fill:#F0F5FB;}
	.st3{fill:#F0F5FB;}
	.st4{fill:#FFFFFF;}
	.st5{fill:#FCFDFF;}
	.st6{fill:#F7FBFF;}
	.st7{fill:#F4FAFD;}
	.st8{fill:#F2F9FD;}
	.st9{fill:#EEF8FD;}
	.st10{fill:#EBF7FD;}
	.st11{fill:#E8F6FD;}
	.st12{fill:#E5F5FC;}
	.st13{fill:#E2F3FC;}
	.st14{fill:#DFF2FC;}
	.st15{fill:#DCF1FC;}
	.st16{fill:#D9F0FC;}
	.st17{fill:#D4EEFB;}
	.st18{fill:#D0EDFA;}
	.st19{fill:#CDECFB;}
	.st20{fill:#CBEBFB;}
	.st21{fill:#C9EAFB;}
	.st22{fill:#C5E9FA;}
	.st23{fill:#C2E8FA;}
	.st24{fill:#BFE7FA;}
	.st25{fill:#BCE6FA;}
</style>
<linearGradient id="SVGID_1_" gradientUnits="userSpaceOnUse" x1="80.9329" y1="505" x2="927.4879" y2="505">
	<stop  offset="0" style="stop-color:#0093C7"/>
	<stop  offset="1" style="stop-color:#3E6DAA"/>
</linearGradient>
<path class="st0" d="M899.15,963H109.27c-15.59,0-28.34-12.75-28.34-28.34V75.34C80.93,59.75,93.69,47,109.27,47h789.88
	c15.59,0,28.34,12.75,28.34,28.34v859.32C927.49,950.25,914.74,963,899.15,963z"/>
<path class="st1" d="M899.15,963H109.27c-15.59,0-28.34-12.75-28.34-28.34V75.34C80.93,59.75,93.69,47,109.27,47h789.88
	c15.59,0,28.34,12.75,28.34,28.34v859.32C927.49,950.25,914.74,963,899.15,963z"/>
<path class="st2" d="M176.64,603.23v170.36c0,16.29-13.33,29.62-29.62,29.62h0c-16.29,0-29.62-13.33-29.62-29.62V603.23
	c0-16.29,13.33-29.62,29.62-29.62h0C163.32,573.62,176.64,586.94,176.64,603.23z"/>
<path class="st2" d="M315.53,579.11v194.48c0,16.29-13.33,29.62-29.62,29.62h0c-16.29,0-29.62-13.33-29.62-29.62V579.11
	c0-16.29,13.33-29.62,29.62-29.62h0C302.2,549.5,315.53,562.82,315.53,579.11z"/>
<path class="st2" d="M454.34,506.75v266.84c0,16.29-13.33,29.62-29.62,29.62h0c-16.29,0-29.62-13.33-29.62-29.62V506.75
	c0-16.29,13.33-29.62,29.62-29.62h0C441.02,477.14,454.34,490.46,454.34,506.75z"/>
<path class="st2" d="M593.16,458.51v315.08c0,16.29-13.33,29.62-29.62,29.62h0c-16.29,0-29.62-13.33-29.62-29.62V458.51
	c0-16.29,13.33-29.62,29.62-29.62h0C579.83,428.9,593.16,442.22,593.16,458.51z"/>
<path class="st2" d="M731.97,362.03v411.56c0,16.29-13.33,29.62-29.62,29.62h0c-16.29,0-29.62-13.33-29.62-29.62V362.03
	c0-16.29,13.33-29.62,29.62-29.62h0C718.65,332.42,731.97,345.74,731.97,362.03z"/>
<path class="st2" d="M870.79,144.95v628.64c0,16.29-13.33,29.62-29.62,29.62h0c-16.29,0-29.62-13.33-29.62-29.62V144.95
	c0-16.29,13.33-29.62,29.62-29.62h0C857.46,115.34,870.79,128.66,870.79,144.95z"/>
<path class="st3" d="M176.64,627.35v146.24c0,16.29-13.33,29.62-29.62,29.62h0c-16.29,0-29.62-13.33-29.62-29.62V627.35
	c0-16.29,13.33-29.62,29.62-29.62h0C163.32,597.74,176.64,611.06,176.64,627.35z"/>
<path class="st3" d="M315.53,627.35v146.24c0,16.29-13.33,29.62-29.62,29.62h0c-16.29,0-29.62-13.33-29.62-29.62V627.35
	c0-16.29,13.33-29.62,29.62-29.62h0C302.2,597.74,315.53,611.06,315.53,627.35z"/>
<path class="st3" d="M454.34,572.35v201.24c0,16.29-13.33,29.62-29.62,29.62h0c-16.29,0-29.62-13.33-29.62-29.62V572.35
	c0-16.29,13.33-29.62,29.62-29.62h0C441.02,542.74,454.34,556.06,454.34,572.35z"/>
<path class="st3" d="M593.16,572.35v201.24c0,16.29-13.33,29.62-29.62,29.62h0c-16.29,0-29.62-13.33-29.62-29.62V572.35
	c0-16.29,13.33-29.62,29.62-29.62h0C579.83,542.74,593.16,556.06,593.16,572.35z"/>
<path class="st3" d="M731.97,484.35v289.24c0,16.29-13.33,29.62-29.62,29.62h0c-16.29,0-29.62-13.33-29.62-29.62V484.35
	c0-16.29,13.33-29.62,29.62-29.62h0C718.65,454.74,731.97,468.06,731.97,484.35z"/>
<path class="st3" d="M870.79,484.35v289.24c0,16.29-13.33,29.62-29.62,29.62h0c-16.29,0-29.62-13.33-29.62-29.62V484.35
	c0-16.29,13.33-29.62,29.62-29.62h0C857.46,454.74,870.79,468.06,870.79,484.35z"/>
<g>
	<path class="st1" d="M510.84,47h-17.86c-14.24,181.25-125.53,363.81-289.2,463.59c-39.03,23.81-80.3,43.19-122.85,59.66v4.6
		c47.3-17.45,93.18-38.11,136.28-63.98C385.03,410.23,498.22,228.72,510.84,47z"/>
	<path class="st1" d="M484.03,47h-16.85c-15.08,179.31-121.5,356.61-281.42,455.64c-33.45,20.73-68.6,38.08-104.82,53.07v4.95
		c40.97-16.03,80.67-34.81,118.2-57.7C360.19,404.77,469.81,225.24,484.03,47z"/>
	<path class="st1" d="M384.18,47h-14.43c-19.72,168.97-112.36,329.59-256.12,423.87c-10.71,7.03-21.62,13.67-32.69,19.96v7.36
		c15.63-8.29,30.94-17.22,45.87-26.88C271.24,377.86,365.41,215.63,384.18,47z"/>
	<path class="st1" d="M360.77,47h-251.5c-15.59,0-28.34,12.75-28.34,28.34v405.2c9.4-5.45,18.67-11.15,27.8-17.14
		C250,370.73,341.13,213.02,360.77,47z"/>
	<path class="st1" d="M458.22,47h-16.04c-15.92,177.08-118.11,349.39-274.47,447.7c-27.84,17.51-56.89,32.63-86.79,45.92v5.41
		c34.61-14.49,68.18-31.2,100.12-50.99C338.38,397.58,443.17,223.29,458.22,47z"/>
	<path class="st1" d="M538.45,47h-18.66c-12.63,184.76-127.54,369.3-297.98,471.53c-44.6,26.77-92.04,47.99-140.88,65.85v4.23
		c53.6-18.75,105.69-41.1,154.37-69.82C407.25,417.39,526.5,230.37,538.45,47z"/>
	<path class="st1" d="M408.08,47h-14.96c-18.86,171.59-114.6,336.75-261.46,431.81c-16.49,10.67-33.43,20.46-50.73,29.48v6.62
		c21.92-10.69,43.3-22.51,63.95-35.69C292.55,385.01,390.17,218.06,408.08,47z"/>
	<path class="st1" d="M433.24,47h-16.2c-17.98,174.04-117.2,343.97-267.35,439.76c-22.2,14.17-45.18,26.76-68.76,38.09v5.98
		c28.26-12.74,55.71-27.14,82.03-43.69C316.77,390.46,417.36,221.09,433.24,47z"/>
	<path class="st1" d="M762.03,234.34C796.3,174.69,821.16,112.08,836.55,47h-41.31c-8.98,51.28-25.36,107.04-53.06,164.65
		C670.67,359.68,530.04,498.18,366,582.09c-90.36,46.27-188.5,78.59-285.07,108.41v4.33c100.82-31.74,204.09-65.31,299.1-112.79
		C542.03,501.15,681.28,374.41,762.03,234.34z"/>
	<path class="st1" d="M734.13,207.77C761.16,151.55,777.26,97.13,786.17,47h-35.75c-5.61,42.85-16.72,89.08-35.87,137.48
		c-62.19,156.37-199.21,302.04-366.57,389.66c-84.39,44.23-176.05,75.14-267.05,102.95v4.06c95.36-29.49,192.11-61.5,281.01-107.01
		C524.3,491.07,663.45,354.09,734.13,207.77z"/>
	<path class="st1" d="M927.49,395.83v-38.16c-6.59,5.6-13.24,11.17-19.99,16.7c-116.8,95.55-262.63,181.48-433.41,255.4
		c-99.23,42.97-202.83,80.38-303.01,116.56c-27.46,9.92-54.88,19.82-82.16,29.81c-2.67,0.97-5.32,1.95-7.97,2.92v6.88
		c30.54-11.46,61.3-22.89,92.22-34.38C435.83,653.97,704.08,554.31,927.49,395.83z"/>
	<path class="st1" d="M176.26,759.93c-31.97,11.88-63.77,23.69-95.33,35.55v139.18c0,15.59,12.75,28.34,28.34,28.34h789.88
		c15.59,0,28.34-12.75,28.34-28.34V406.85C704.31,563.77,437.53,662.88,176.26,759.93z"/>
	<path class="st1" d="M452.43,613.67c163.8-73.19,309.54-167.44,421.42-272.87c18.66-17.59,36.52-35.52,53.63-53.83V228.5
		c-23.13,31.83-48.14,62.43-75.03,91.7C744.96,436.94,601.67,538.53,438.07,613.88c-100.33,46.23-207,82.58-310.15,117.73
		c-15.69,5.35-31.35,10.69-46.99,16.06v5.93c23.52-8.38,47.13-16.67,70.79-24.98C251.49,693.6,354.67,657.38,452.43,613.67z"/>
	<path class="st1" d="M168.03,737.93c100.06-36.13,203.52-73.5,302.5-116.36c170.02-73.59,315.14-159.09,431.3-254.11
		c8.69-7.12,17.23-14.3,25.65-21.54v-45.93c-15.25,16.05-31.07,31.82-47.51,47.32c-112.66,105.91-259.2,200.93-423.9,274.52
		c-98.1,43.86-201.45,80.14-301.4,115.24c-24.64,8.65-49.24,17.3-73.74,26.03v6.46c1.64-0.6,3.27-1.2,4.91-1.8
		C113.14,757.76,140.56,747.85,168.03,737.93z"/>
	<path class="st1" d="M398.13,589.95c162.11-78.91,301.26-195.75,391.84-329.02c44.85-66.2,79-137.76,102.2-213.93h-46.43
		c-15.55,66.65-40.89,130.76-75.96,191.79c-81.62,141.56-222.22,269.57-385.76,351.24c-96.47,48.2-201.09,82.07-303.09,114.16v4.67
		c0.43-0.14,0.86-0.28,1.28-0.41C187.94,674.34,297.28,639.07,398.13,589.95z"/>
	<path class="st1" d="M434.33,605.76c162.54-74.85,304.84-175.69,411.55-291.61c29.48-32.09,56.69-65.8,81.61-100.99v-82.25
		c-28.36,57.5-62.6,111.67-102.58,162.17c-99.27,125.1-243.05,236.18-404.86,312.85c-100.79,47.78-208.85,83.61-313.34,118.25
		c-8.6,2.85-17.19,5.7-25.78,8.55v5.5c14.68-5.04,29.38-10.05,44.1-15.07C227.98,688.07,334.42,651.8,434.33,605.76z"/>
	<path class="st1" d="M650.56,128.02c6.83-27.78,11.11-54.84,13.22-81.02h-25.33c-1.22,18.23-3.47,36.91-6.91,56.02
		c-31.78,175.03-164.32,350.6-337.62,447.28c-67.02,37.42-139.48,64.5-212.99,87.45v3.69c78.11-24.08,155.48-52.05,226.72-91.03
		C477.63,457.47,609.04,295.63,650.56,128.02z"/>
	<path class="st1" d="M594.96,74.82c1.11-9.37,1.92-18.64,2.48-27.82h-21.25c-0.03,0.59-0.06,1.17-0.09,1.76
		c-11.85,187.09-139.75,382.26-318.23,485.65c-55.76,32.32-115.62,56.7-176.94,77.06v3.82C146.96,594,211.6,568.67,271.48,534.6
		C446.35,435.14,573.35,254.67,594.96,74.82z"/>
	<path class="st1" d="M706.25,181.19c18.69-47.22,29.6-92.34,35.17-134.19h-31.75c-3.68,36.97-11.24,74.05-22.76,110.32
		c-51.8,162.07-188.58,318.73-356.95,408.87c-78.51,42.07-163.74,71.67-249.03,97.68v3.86c89.74-27.48,180-58.06,262.91-101.51
		C509.35,479.57,644.83,335.64,706.25,181.19z"/>
	<path class="st1" d="M567.18,48.2c0.02-0.4,0.04-0.8,0.06-1.2H547.4c-11.95,186.41-132.96,376.5-307.56,479.48
		c-50.17,29.6-103.8,52.47-158.91,71.59v3.99c59.85-20.02,118.19-43.92,172.46-75.38C429.41,424.72,555.52,232.43,567.18,48.2z"/>
	<path class="st1" d="M622.75,101.44c3.34-18.57,5.54-36.72,6.75-54.44h-23.11c-0.57,9.53-1.4,19.16-2.56,28.89
		C581.88,258.44,453.16,441.56,275.9,542.36c-61.37,34.92-127.51,60.69-194.96,82.32v3.71c72.12-22.63,143.1-49.3,208.64-85.89
		C460.65,447.05,591.45,273.93,622.75,101.44z"/>
	<path class="st1" d="M416.23,597.85c160.6-76.09,303.26-186.31,401.68-310.32c43.42-54.84,80.01-114.08,109.58-177.24V75.34
		c0-14.81-11.51-27.05-26.03-28.24c-23.47,77.96-58.25,151.17-104.1,218.85C705.91,400.48,565.54,518.4,402.04,597.98
		c-101.42,49.4-211.06,84.77-317.08,118.98c-1.34,0.43-2.68,0.87-4.02,1.3v5.06c7.65-2.54,15.3-5.08,22.96-7.62
		C208.15,681.14,315.94,645.41,416.23,597.85z"/>
	<path class="st1" d="M678.4,154.61c11.24-35.39,18.65-71.55,22.3-107.61h-27.96c-2.13,26.87-6.5,54.65-13.51,83.16
		c-42.11,169.97-175.19,333.98-347.29,428.09c-72.73,39.79-151.55,68.14-231.01,92.54v3.74c84-25.69,167.78-54.94,244.82-96.21
		C492.14,469.24,627.28,314.54,678.4,154.61z"/>
	<path class="st4" d="M369.74,47h-8.97C341.13,213.02,250,370.73,108.73,463.4c-9.12,5.99-18.39,11.69-27.8,17.14v10.29
		c11.07-6.3,21.98-12.93,32.69-19.96C257.38,376.59,350.02,215.97,369.74,47z"/>
	<path class="st5" d="M393.12,47h-8.94c-18.77,168.63-112.94,330.86-257.37,424.31c-14.93,9.66-30.24,18.59-45.87,26.88v10.1
		c17.3-9.02,34.24-18.81,50.73-29.48C278.52,383.75,374.26,218.59,393.12,47z"/>
	<path class="st6" d="M417.04,47h-8.96c-17.91,171.06-115.53,338.01-263.2,432.23c-20.66,13.18-42.03,24.99-63.95,35.69v9.93
		c23.58-11.33,46.56-23.93,68.76-38.09C299.84,390.97,399.06,221.04,417.04,47z"/>
	<path class="st7" d="M442.19,47h-8.95c-15.88,174.09-116.47,343.46-270.28,440.14c-26.32,16.56-53.77,30.96-82.03,43.69v9.79
		c29.89-13.29,58.94-28.41,86.79-45.92C324.07,396.39,426.26,224.08,442.19,47z"/>
	<path class="st8" d="M467.17,47h-8.95c-15.05,176.29-119.84,350.58-277.17,448.05c-31.94,19.79-65.5,36.49-100.12,50.99v9.67
		c36.22-14.99,71.37-32.34,104.82-53.07C345.68,403.61,452.09,226.31,467.17,47z"/>
	<path class="st9" d="M492.98,47h-8.95c-14.21,178.24-123.84,357.77-284.89,455.96c-37.53,22.89-77.23,41.67-118.2,57.7v9.59
		c42.54-16.47,83.82-35.85,122.85-59.66C367.44,410.81,478.74,228.25,492.98,47z"/>
	<path class="st10" d="M519.79,47h-8.95c-12.62,181.72-125.81,363.23-293.62,463.87c-43.11,25.87-88.98,46.53-136.28,63.98v9.53
		c48.84-17.85,96.28-39.08,140.88-65.85C392.24,416.3,507.16,231.76,519.79,47z"/>
	<path class="st11" d="M547.4,47h-8.95C526.5,230.37,407.25,417.39,235.3,518.78c-48.68,28.72-100.77,51.07-154.37,69.82v9.46
		c55.11-19.12,108.73-41.99,158.91-71.59C414.44,423.5,535.45,233.41,547.4,47z"/>
	<path class="st12" d="M576.1,48.76c0.04-0.59,0.06-1.17,0.09-1.76h-8.95c-0.02,0.4-0.04,0.8-0.06,1.2
		c-11.66,184.23-137.77,376.52-313.79,478.48c-54.27,31.46-112.61,55.36-172.46,75.38v9.41c61.32-20.36,121.18-44.74,176.94-77.06
		C436.35,431.02,564.25,235.85,576.1,48.76z"/>
	<path class="st13" d="M603.84,75.89c1.15-9.73,1.99-19.36,2.56-28.89h-8.95c-0.56,9.18-1.37,18.45-2.48,27.82
		C573.35,254.67,446.35,435.14,271.48,534.6C211.6,568.67,146.96,594,80.93,615.29v9.38c67.45-21.62,133.59-47.39,194.96-82.32
		C453.16,441.56,581.88,258.44,603.84,75.89z"/>
	<path class="st14" d="M631.55,103.02c3.44-19.11,5.69-37.79,6.91-56.02h-8.96c-1.21,17.72-3.41,35.87-6.75,54.44
		c-31.31,172.49-162.1,345.62-333.18,441.06c-65.54,36.59-136.52,63.26-208.64,85.89v9.36c73.51-22.95,145.97-50.03,212.99-87.45
		C467.23,453.62,599.77,278.05,631.55,103.02z"/>
	<path class="st15" d="M659.23,130.16c7.01-28.52,11.38-56.29,13.51-83.16h-8.96c-2.12,26.18-6.39,53.24-13.22,81.02
		c-41.53,167.61-172.94,329.45-342.91,422.39c-71.24,38.98-148.61,66.94-226.72,91.03v9.35c79.46-24.4,158.28-52.75,231.01-92.54
		C484.04,464.15,617.12,300.13,659.23,130.16z"/>
	<path class="st16" d="M686.91,157.32c11.52-36.27,19.08-73.35,22.76-110.32h-8.97c-3.65,36.05-11.06,72.22-22.3,107.61
		c-51.12,159.93-186.26,314.63-352.65,403.71c-77.03,41.27-160.82,70.53-244.82,96.21v9.34c85.3-26.01,170.52-55.61,249.03-97.68
		C498.33,476.05,635.11,319.39,686.91,157.32z"/>
	<path class="st17" d="M714.55,184.48c19.15-48.4,30.26-94.63,35.87-137.48h-9c-5.57,41.85-16.48,86.97-35.17,134.19
		c-61.42,154.45-196.9,298.38-362.41,385.04c-82.91,43.45-173.17,74.04-262.91,101.51v9.35c91-27.81,182.66-58.72,267.05-102.95
		C515.34,486.52,652.36,340.85,714.55,184.48z"/>
	<path class="st18" d="M742.18,211.65c27.7-57.6,44.08-113.36,53.06-164.65h-9.07c-8.91,50.13-25.01,104.55-52.04,160.77
		c-70.69,146.32-209.83,283.3-372.19,366.37c-88.89,45.52-185.65,77.52-281.01,107.01v9.35c96.58-29.83,194.71-62.14,285.07-108.41
		C530.04,498.18,670.67,359.68,742.18,211.65z"/>
	<path class="st19" d="M769.78,238.79c35.06-61.04,60.41-125.14,75.96-191.79h-9.19c-15.39,65.08-40.25,127.69-74.52,187.34
		c-80.76,140.07-220.01,266.81-382,347.7c-95.01,47.48-198.28,81.05-299.1,112.79v9.37c102-32.09,206.62-65.96,303.09-114.16
		C547.56,508.36,688.16,380.35,769.78,238.79z"/>
	<path class="st20" d="M402.04,597.98c163.5-79.58,303.87-197.5,395.32-332.03c45.85-67.68,80.63-140.89,104.1-218.85
		c-0.76-0.06-1.53-0.1-2.31-0.1h-6.98c-23.2,76.17-57.35,147.73-102.2,213.93C699.39,394.2,560.24,511.05,398.13,589.95
		c-100.85,49.12-210.19,84.39-315.92,118.5c-0.43,0.14-0.85,0.28-1.28,0.41v9.39c1.34-0.43,2.69-0.87,4.02-1.3
		C190.98,682.75,300.62,647.38,402.04,597.98z"/>
	<path class="st21" d="M420.05,605.93c161.81-76.67,305.59-187.75,404.86-312.85c39.97-50.49,74.21-104.67,102.58-162.17v-20.62
		c-29.57,63.16-66.16,122.4-109.58,177.24c-98.42,124.02-241.07,234.24-401.68,310.32c-100.29,47.55-208.08,83.28-312.33,117.84
		c-7.66,2.54-15.31,5.08-22.96,7.62v9.41c8.59-2.85,17.18-5.7,25.78-8.55C211.21,689.53,319.27,653.71,420.05,605.93z"/>
	<path class="st22" d="M438.07,613.88c163.6-75.35,306.9-176.94,414.39-293.68c26.89-29.27,51.9-59.87,75.03-91.7v-15.33
		c-24.92,35.19-52.13,68.9-81.61,100.99c-106.7,115.91-249.01,216.75-411.55,291.61c-99.91,46.03-206.35,82.31-309.29,117.4
		c-14.72,5.02-29.43,10.03-44.1,15.07v9.45c15.63-5.37,31.3-10.71,46.99-16.06C231.07,696.46,337.74,660.11,438.07,613.88z"/>
	<path class="st23" d="M456.08,621.82c164.7-73.59,311.24-168.61,423.9-274.52c16.44-15.5,32.26-31.27,47.51-47.32v-13.02
		c-17.11,18.31-34.97,36.24-53.63,53.83C761.97,446.22,616.23,540.48,452.43,613.67c-97.76,43.71-200.94,79.93-300.71,114.96
		c-23.65,8.3-47.27,16.6-70.79,24.98v9.49c24.5-8.74,49.1-17.38,73.74-26.03C254.63,701.97,357.98,665.68,456.08,621.82z"/>
	<path class="st24" d="M171.07,746.33c100.19-36.18,203.78-73.6,303.01-116.56c170.79-73.92,316.61-159.85,433.41-255.4
		c6.75-5.53,13.4-11.1,19.99-16.7v-11.76c-8.41,7.24-16.96,14.42-25.65,21.54c-116.17,95.03-261.28,180.52-431.3,254.11
		c-98.98,42.86-202.44,80.22-302.5,116.36c-27.48,9.92-54.9,19.83-82.19,29.83c-1.65,0.6-3.27,1.2-4.91,1.8v9.51
		c2.66-0.97,5.3-1.95,7.97-2.92C116.19,766.15,143.61,756.25,171.07,746.33z"/>
	<path class="st25" d="M927.49,406.85v-11.02C704.08,554.31,435.83,653.97,173.15,751.56c-30.92,11.49-61.68,22.91-92.22,34.38v9.54
		c31.56-11.86,63.36-23.67,95.33-35.55C437.53,662.88,704.31,563.77,927.49,406.85z"/>
</g>
</svg>
