<?xml version="1.0" encoding="utf-8"?>
<!-- Generator: Adobe Illustrator 27.5.0, SVG Export Plug-In . SVG Version: 6.00 Build 0)  -->
<svg version="1.1" id="Layer_1" xmlns="http://www.w3.org/2000/svg" xmlns:xlink="http://www.w3.org/1999/xlink" x="0px" y="0px"
	 viewBox="0 0 50 50" style="enable-background:new 0 0 50 50;" xml:space="preserve">
<style type="text/css">
	.st0{fill:none;}
	.st1{opacity:0.6;}
	.st2{fill:#636464;}
	.st3{fill:url(#path-81_00000106829313636334781040000001113908174486327443_);fill-opacity:0.02;}
	.st4{fill:#FDDC2F;}
	.st5{fill:url(#path-84_00000146493572554411045040000004139495511497143462_);fill-opacity:0.02;}
	.st6{fill:#FCB630;}
	.st7{fill:url(#path-87_00000008852763216464959350000014970854894280908944_);fill-opacity:0.02;}
	.st8{fill-opacity:0.1;}
	.st9{fill:url(#path-90_00000002365547163464125580000002958760523500628655_);}
	.st10{fill:url(#path-90_00000124857700783237525740000011989949106540566456_);fill-opacity:0.02;}
	.st11{fill:#BFBEBE;}
	.st12{fill:url(#path-93_00000176760208710361771850000008700349678739700145_);fill-opacity:0.02;}
	.st13{fill:url(#path-96_00000052094377610396066610000010050474740896633992_);fill-opacity:0.02;}
	.st14{fill:url(#path-99_00000150815306981475881640000007311130749825331089_);fill-opacity:0.02;}
	.st15{fill:url(#path-102_00000119111983993985866270000017357828356592945059_);fill-opacity:0.02;}
	.st16{fill:#FFFFFF;}
</style>
<pattern  y="50" width="50" height="50" patternUnits="userSpaceOnUse" id="path-102_0000012990809362756473" viewBox="0 -50 50 50" style="overflow:visible;">
	<g>
		<rect y="-50" class="st0" width="50" height="50"/>
		<g>
			<rect y="-50" class="st0" width="50" height="50"/>
			<g>
			</g>
		</g>
	</g>
</pattern>
<pattern  y="50" width="50" height="50" patternUnits="userSpaceOnUse" id="path-81_00000050636049697974521" viewBox="0 -50 50 50" style="overflow:visible;">
	<g>
		<rect y="-50" class="st0" width="50" height="50"/>
		<g>
			<rect y="-50" class="st0" width="50" height="50"/>
			<g>
			</g>
		</g>
	</g>
</pattern>
<pattern  y="50" width="50" height="50" patternUnits="userSpaceOnUse" id="path-84_00000183929313590577304" viewBox="0 -50 50 50" style="overflow:visible;">
	<g>
		<rect y="-50" class="st0" width="50" height="50"/>
		<g>
			<rect y="-50" class="st0" width="50" height="50"/>
			<g>
			</g>
		</g>
	</g>
</pattern>
<pattern  y="50" width="50" height="50" patternUnits="userSpaceOnUse" id="path-87_00000171678875079741335" viewBox="0 -50 50 50" style="overflow:visible;">
	<g>
		<rect y="-50" class="st0" width="50" height="50"/>
		<g>
			<rect y="-50" class="st0" width="50" height="50"/>
			<g>
			</g>
		</g>
	</g>
</pattern>
<pattern  y="50" width="50" height="50" patternUnits="userSpaceOnUse" id="path-90_00000018210427958036582" viewBox="0 -50 50 50" style="overflow:visible;">
	<g>
		<rect y="-50" class="st0" width="50" height="50"/>
		<g>
			<rect y="-50" class="st0" width="50" height="50"/>
			<g>
			</g>
		</g>
	</g>
</pattern>
<pattern  y="50" width="50" height="50" patternUnits="userSpaceOnUse" id="path-93_00000062158749367576704" viewBox="0 -50 50 50" style="overflow:visible;">
	<g>
		<rect y="-50" class="st0" width="50" height="50"/>
		<g>
			<rect y="-50" class="st0" width="50" height="50"/>
			<g>
			</g>
		</g>
	</g>
</pattern>
<pattern  y="50" width="50" height="50" patternUnits="userSpaceOnUse" id="path-96_00000133493603845032806" viewBox="0 -50 50 50" style="overflow:visible;">
	<g>
		<rect y="-50" class="st0" width="50" height="50"/>
		<g>
			<rect y="-50" class="st0" width="50" height="50"/>
			<g>
			</g>
		</g>
	</g>
</pattern>
<pattern  y="50" width="50" height="50" patternUnits="userSpaceOnUse" id="path-99_00000092438153466420856" viewBox="0 -50 50 50" style="overflow:visible;">
	<g>
		<rect y="-50" class="st0" width="50" height="50"/>
		<g>
			<rect y="-50" class="st0" width="50" height="50"/>
			<g>
			</g>
		</g>
	</g>
</pattern>
<g class="st1">
	<ellipse id="path-81" class="st2" cx="24.89" cy="42.96" rx="4.26" ry="2.13"/>
	
		<pattern  id="path-81_00000145047538651694650220000005543244697438093754_" xlink:href="#path-81_00000050636049697974521" patternTransform="matrix(0.0487 0 0 0.0487 -30798.1035 16056.001)"  class="st1">
	</pattern>
	
		<ellipse id="path-81_1_" style="fill:url(#path-81_00000145047538651694650220000005543244697438093754_);fill-opacity:0.02;" cx="24.89" cy="42.96" rx="4.26" ry="2.13"/>
	<path id="path-84" class="st4" d="M14.55,24.76c-1.61-2.16-2.56-4.84-2.56-7.75c0-7.17,5.76-12.99,12.87-12.99
		s12.87,5.79,12.87,12.99c0,3.08-1.04,5.88-2.82,8.09c-2.04,3.69-3.14,7.17-3.2,10.51c-3.72,0-8.84,0-13.74,0
		C17.89,32.34,16.74,28.71,14.55,24.76z"/>
	
		<pattern  id="path-84_00000069380319326580856000000011378261222264516490_" xlink:href="#path-84_00000183929313590577304" patternTransform="matrix(0.0487 0 0 0.0487 -30806.7129 16019.208)"  class="st1">
	</pattern>
	<path id="path-84_1_" style="fill:url(#path-84_00000069380319326580856000000011378261222264516490_);fill-opacity:0.02;" d="
		M14.55,24.76c-1.61-2.16-2.56-4.84-2.56-7.75c0-7.17,5.76-12.99,12.87-12.99s12.87,5.79,12.87,12.99c0,3.08-1.04,5.88-2.82,8.09
		c-2.04,3.69-3.14,7.17-3.2,10.51c-3.72,0-8.84,0-13.74,0C17.89,32.34,16.74,28.71,14.55,24.76z"/>
	<path id="path-87" class="st6" d="M24.89,23.5L24.89,23.5c0.69,0,1.3,0.55,1.3,1.3v8.18h-2.53v-8.18
		C23.62,24.04,24.23,23.5,24.89,23.5z"/>
	
		<pattern  id="path-87_00000062873786049025727540000014856584468436444863_" xlink:href="#path-87_00000171678875079741335" patternTransform="matrix(0.0487 0 0 0.0487 -30795.0488 16038.6729)"  class="st1">
	</pattern>
	<path id="path-87_1_" style="fill:url(#path-87_00000062873786049025727540000014856584468436444863_);fill-opacity:0.02;" d="
		M24.89,23.5L24.89,23.5c0.69,0,1.3,0.55,1.3,1.3v8.18h-2.53v-8.18C23.62,24.04,24.23,23.5,24.89,23.5z"/>
	<path id="Combined-Shape_11_" class="st8" d="M32.15,31.65c-0.14,0.55-0.26,1.15-0.35,1.7H17.78c-0.09-0.55-0.23-1.09-0.35-1.7
		H32.15z"/>
	
		<linearGradient id="path-90_00000075864691314321211940000011512204996003919264_" gradientUnits="userSpaceOnUse" x1="-272.4734" y1="-397.5852" x2="-272.4375" y2="-397.5685" gradientTransform="matrix(318.3893 0 0 215 86772.2031 85517.1094)">
		<stop  offset="0" style="stop-color:#E5E5E4"/>
		<stop  offset="1" style="stop-color:#CBCBCA"/>
	</linearGradient>
	<path id="path-90" style="fill:url(#path-90_00000075864691314321211940000011512204996003919264_);" d="M18.06,32.97h13.71
		c0.49,0,0.86,0.4,0.86,0.86v6.97c0,1.44-1.18,2.62-2.62,2.62H19.79c-1.44,0-2.62-1.18-2.62-2.62v-6.97
		C17.2,33.34,17.6,32.97,18.06,32.97z"/>
	
		<pattern  id="path-90_00000028306513636467300700000010883823115067599784_" xlink:href="#path-90_00000018210427958036582" patternTransform="matrix(0.0487 0 0 0.0487 -30801.5039 16048.1377)"  class="st1">
	</pattern>
	<path id="path-90_1_" style="fill:url(#path-90_00000028306513636467300700000010883823115067599784_);fill-opacity:0.02;" d="
		M18.06,32.97h13.71c0.49,0,0.86,0.4,0.86,0.86v6.97c0,1.44-1.18,2.62-2.62,2.62H19.79c-1.44,0-2.62-1.18-2.62-2.62v-6.97
		C17.2,33.34,17.6,32.97,18.06,32.97z"/>
	<path id="path-93" class="st11" d="M19.33,34.81H30.5c0.49,0,0.86,0.37,0.86,0.84l0,0c0,0.46-0.4,0.84-0.86,0.84H19.33
		c-0.49,0-0.86-0.37-0.86-0.84l0,0C18.47,35.19,18.81,34.81,19.33,34.81z"/>
	
		<pattern  id="path-93_00000087411781019900387210000005843163113074051732_" xlink:href="#path-93_00000062158749367576704" patternTransform="matrix(0.0487 0 0 0.0487 -30800.2422 16049.9824)"  class="st1">
	</pattern>
	<path id="path-93_1_" style="fill:url(#path-93_00000087411781019900387210000005843163113074051732_);fill-opacity:0.02;" d="
		M19.33,34.81H30.5c0.49,0,0.86,0.37,0.86,0.84l0,0c0,0.46-0.4,0.84-0.86,0.84H19.33c-0.49,0-0.86-0.37-0.86-0.84l0,0
		C18.47,35.19,18.81,34.81,19.33,34.81z"/>
	<path id="path-96" class="st11" d="M19.33,37.38H30.5c0.49,0,0.86,0.37,0.86,0.84l0,0c0,0.46-0.4,0.84-0.86,0.84H19.33
		c-0.49,0-0.86-0.37-0.86-0.84l0,0C18.47,37.75,18.81,37.38,19.33,37.38z"/>
	
		<pattern  id="path-96_00000155137429987508139050000001646606851257816449_" xlink:href="#path-96_00000133493603845032806" patternTransform="matrix(0.0487 0 0 0.0487 -30800.2422 16052.5557)"  class="st1">
	</pattern>
	<path id="path-96_1_" style="fill:url(#path-96_00000155137429987508139050000001646606851257816449_);fill-opacity:0.02;" d="
		M19.33,37.38H30.5c0.49,0,0.86,0.37,0.86,0.84l0,0c0,0.46-0.4,0.84-0.86,0.84H19.33c-0.49,0-0.86-0.37-0.86-0.84l0,0
		C18.47,37.75,18.81,37.38,19.33,37.38z"/>
	<path id="path-99" class="st11" d="M19.33,39.94H30.5c0.49,0,0.86,0.37,0.86,0.84l0,0c0,0.46-0.4,0.84-0.86,0.84H19.33
		c-0.49,0-0.86-0.37-0.86-0.84l0,0C18.47,40.34,18.81,39.94,19.33,39.94z"/>
	
		<pattern  id="path-99_00000148653131546935806550000018131125477748402866_" xlink:href="#path-99_00000092438153466420856" patternTransform="matrix(0.0487 0 0 0.0487 -30800.2422 16055.1289)"  class="st1">
	</pattern>
	<path id="path-99_1_" style="fill:url(#path-99_00000148653131546935806550000018131125477748402866_);fill-opacity:0.02;" d="
		M19.33,39.94H30.5c0.49,0,0.86,0.37,0.86,0.84l0,0c0,0.46-0.4,0.84-0.86,0.84H19.33c-0.49,0-0.86-0.37-0.86-0.84l0,0
		C18.47,40.34,18.81,39.94,19.33,39.94z"/>
	<path id="path-102" class="st6" d="M26.79,20.67c0.35,0.52,1.04,0.52,1.38,0l2.56-3.66c0.26-0.37,0.17-0.89-0.23-1.21
		c-0.4-0.26-0.92-0.17-1.18,0.2l-1.87,2.65l-1.79-2.62c-0.32-0.46-1.01-0.52-1.38-0.03l-2.13,2.71l-1.61-2.62
		c-0.26-0.37-0.78-0.52-1.18-0.26c-0.4,0.26-0.52,0.78-0.26,1.21l2.25,3.66c0.32,0.52,1.04,0.55,1.38,0.09l2.13-2.71L26.79,20.67z"
		/>
	
		<pattern  id="path-102_00000018238068795401875560000017252949654314583689_" xlink:href="#path-102_0000012990809362756473" patternTransform="matrix(0.0487 0 0 0.0487 -30799.6855 16030.8486)"  class="st1">
	</pattern>
	<path id="path-102_1_" style="fill:url(#path-102_00000018238068795401875560000017252949654314583689_);fill-opacity:0.02;" d="
		M26.79,20.67c0.35,0.52,1.04,0.52,1.38,0l2.56-3.66c0.26-0.37,0.17-0.89-0.23-1.21c-0.4-0.26-0.92-0.17-1.18,0.2l-1.87,2.65
		l-1.79-2.62c-0.32-0.46-1.01-0.52-1.38-0.03l-2.13,2.71l-1.61-2.62c-0.26-0.37-0.78-0.52-1.18-0.26c-0.4,0.26-0.52,0.78-0.26,1.21
		l2.25,3.66c0.32,0.52,1.04,0.55,1.38,0.09l2.13-2.71L26.79,20.67z"/>
	<path id="Path-35" class="st16" d="M28.66,8.66c-0.43-0.23-0.6-0.75-0.43-1.12c0.17-0.4,0.75-0.6,1.12-0.43
		c2.13,1.01,3.74,2.48,4.78,4.32c0.23,0.43,0.09,0.95-0.35,1.18c-0.43,0.23-0.95,0.09-1.18-0.35C31.77,10.68,30.48,9.53,28.66,8.66z
		 M33.79,15.03c-0.14-0.49,0.14-0.95,0.6-1.09c0.49-0.14,0.95,0.14,1.09,0.6c0.23,0.78,0.35,1.61,0.4,2.48
		c0.06,0.49-0.35,0.86-0.84,0.92c-0.49,0.06-0.86-0.35-0.92-0.84C34.05,16.35,33.96,15.66,33.79,15.03z"/>
</g>
</svg>
