<svg version="1.1" id="Layer_1" xmlns="http://www.w3.org/2000/svg" xmlns:xlink="http://www.w3.org/1999/xlink" x="0px" y="0px"
	 width="100%" viewBox="0 0 1000 618" enable-background="new 0 0 1000 618" xml:space="preserve">
<path fill="#fff" opacity="1.000000" stroke="none" 
	d="
M615.000000,619.000000 
	C602.645752,619.000000 590.291565,619.000000 577.468628,618.531372 
	C577.000000,612.907654 577.002930,607.752563 576.999390,602.597534 
	C576.993835,594.615601 577.085144,586.630798 576.865845,578.654724 
	C576.833252,577.467712 575.329346,576.321289 574.506165,575.156067 
	C573.678955,576.317139 572.276306,577.413757 572.137695,578.651917 
	C571.788147,581.773193 572.002930,584.958191 572.001160,588.117676 
	C571.997498,594.662109 572.000000,601.206604 572.000000,607.751038 
	C570.468689,607.330811 569.995361,606.744080 569.592285,606.112366 
	C563.716431,596.902649 557.702454,587.776001 552.059143,578.425659 
	C550.014832,575.038452 547.163330,574.137451 544.167786,575.396362 
	C542.876648,575.939026 542.122192,579.100769 542.093567,581.086731 
	C541.911560,593.722290 542.000366,606.361816 542.000000,619.000000 
	C532.979126,619.000000 523.958191,619.000000 514.468628,618.531372 
	C513.995789,605.098877 513.993103,592.135010 513.985962,579.171204 
	C513.984680,576.869751 513.822754,574.343140 510.605438,575.457092 
	C509.701782,575.769958 509.087677,578.164307 509.074738,579.610474 
	C508.957184,592.739502 509.002411,605.869934 509.000000,619.000000 
	C497.312439,619.000000 485.624878,619.000000 473.444153,618.648987 
	C474.904755,616.317322 477.107147,614.523560 478.763733,612.319580 
	C483.008545,606.671997 483.213806,600.043884 483.024902,593.302795 
	C482.660339,580.289795 470.863647,571.192322 458.337006,574.361206 
	C449.791687,576.522888 444.883942,582.322693 443.428467,590.603210 
	C441.888824,599.362427 442.928192,607.873901 449.565796,614.737122 
	C450.990204,616.209961 452.519196,617.581665 454.000000,619.000000 
	C434.645782,619.000000 415.291534,619.000000 395.468658,618.531982 
	C395.005280,613.743042 395.111572,609.419067 394.981110,605.102295 
	C394.891266,602.129028 396.063965,601.010864 399.062744,600.946838 
	C402.848083,600.866089 406.666321,600.525635 410.392731,599.861633 
	C417.838409,598.535095 420.810211,593.606506 419.962708,584.563843 
	C419.454224,579.138367 414.832825,575.212646 408.513367,575.037720 
	C404.029663,574.913574 399.527252,575.215149 395.056580,574.942993 
	C391.090576,574.701538 389.882935,576.250244 389.936157,580.112793 
	C390.114746,593.073059 390.001556,606.037292 390.000000,619.000000 
	C369.979095,619.000000 349.958221,619.000000 329.468658,618.531372 
	C329.000000,613.241211 329.002747,608.419739 328.999390,603.598267 
	C328.993652,595.285461 329.081360,586.970154 328.866821,578.662659 
	C328.836121,577.474609 327.335602,576.324585 326.515289,575.156921 
	C325.685150,576.314270 324.257111,577.413940 324.138733,578.640076 
	C323.804688,582.099976 324.003174,585.611755 324.001099,589.103088 
	C323.997253,595.649963 324.000000,602.196899 324.000000,608.743774 
	C322.384247,608.192566 321.826691,607.471680 321.336517,606.707642 
	C315.349609,597.375977 309.255341,588.109863 303.460876,578.659973 
	C301.600037,575.625305 299.124054,574.048706 296.149323,575.390442 
	C294.841858,575.980103 294.120850,579.106384 294.092529,581.094543 
	C293.912506,593.727539 294.000397,606.364441 294.000000,619.000000 
	C284.645782,619.000000 275.291534,619.000000 265.468689,618.531372 
	C264.995819,605.098877 264.993195,592.135010 264.986023,579.171204 
	C264.984741,576.869812 264.822754,574.343018 261.605347,575.457031 
	C260.701691,575.769897 260.087646,578.164368 260.074707,579.610535 
	C259.957153,592.739502 260.002411,605.869995 260.000000,619.000000 
	C240.979111,619.000000 221.958206,619.000000 202.511169,618.624146 
	C203.356750,615.340820 202.658127,613.850525 199.233200,613.989502 
	C196.243744,614.110901 193.243469,614.066650 190.250732,613.989380 
	C177.390518,613.657471 179.179001,616.612305 178.982452,602.100464 
	C178.942078,599.119263 180.071655,597.897034 183.078384,597.979797 
	C187.732834,598.107849 192.407440,598.187683 197.043579,597.862061 
	C198.357483,597.769775 199.567307,596.196228 200.824860,595.302002 
	C199.601028,594.540405 198.410370,593.192749 197.147461,593.121216 
	C192.337494,592.848755 187.483322,593.229553 182.693359,592.815125 
	C181.387634,592.702209 179.783401,590.862610 179.165192,589.445129 
	C178.554321,588.044495 179.141403,586.163635 178.983643,584.514404 
	C178.644379,580.967346 180.290009,579.835327 183.662704,579.960205 
	C188.480469,580.138489 193.318710,580.144958 198.129196,579.880005 
	C199.396362,579.810242 200.593658,578.471985 201.823029,577.716309 
	C200.572250,576.816101 199.352737,575.193665 198.065369,575.137939 
	C191.755066,574.864624 185.419754,575.185974 179.107285,574.939148 
	C175.214310,574.786926 173.873337,576.130310 173.931778,580.070862 
	C174.124207,593.044739 174.001602,606.023254 174.000000,619.000000 
	C163.645767,619.000000 153.291550,619.000000 142.464508,618.651611 
	C152.249542,610.489014 151.148956,597.168579 136.154053,593.524902 
	C132.975311,592.752502 129.666977,591.808899 126.921158,590.124573 
	C122.810020,587.602844 123.178719,582.266052 127.220619,579.974670 
	C131.631912,577.473877 138.292831,578.805603 140.918289,583.082336 
	C142.478745,585.624268 144.077484,586.729919 147.511612,585.121704 
	C146.813950,583.321289 146.385986,581.398926 145.401031,579.825134 
	C142.153549,574.636047 134.338242,572.440491 127.111465,574.478149 
	C121.699829,576.004028 118.261475,579.954346 118.027306,584.915039 
	C117.744080,590.915039 120.015816,594.008667 126.338593,596.195496 
	C130.094894,597.494690 134.198700,598.216370 137.505371,600.243347 
	C139.853531,601.682739 142.723633,605.057190 142.466568,607.224854 
	C142.173248,609.698242 139.047256,612.472107 136.477081,613.900024 
	C131.849106,616.471191 125.272888,613.620056 123.009148,608.899902 
	C121.557999,605.874268 119.452065,605.394104 116.237961,606.852112 
	C116.868340,608.648743 117.139847,610.551086 118.118477,611.963379 
	C119.852516,614.465881 122.016136,616.670654 124.000000,619.000000 
	C114.979103,619.000000 105.958214,619.000000 96.424484,618.628052 
	C90.960335,605.085815 85.947655,591.937988 81.111282,578.725708 
	C80.183060,576.189819 78.878769,574.326233 76.180595,575.157776 
	C74.480186,575.681824 72.403038,577.136719 71.791885,578.685730 
	C68.329376,587.461670 65.172768,596.362549 62.090206,605.282410 
	C60.533146,609.788025 59.351433,614.423340 58.000000,619.000000 
	C48.645771,619.000000 39.291542,619.000000 29.462841,618.653687 
	C32.220314,614.940796 36.566090,612.295837 36.650448,606.806885 
	C32.805916,606.028137 32.805916,606.028137 30.441410,608.926086 
	C23.520321,617.408569 12.480660,615.937805 7.992998,605.917542 
	C5.417563,600.166992 5.637748,594.422913 7.692732,588.510254 
	C9.492782,583.331055 12.705235,579.861084 18.144005,579.120178 
	C23.682161,578.365845 28.138468,580.252258 31.253281,585.287170 
	C32.032879,586.547302 34.312340,586.879639 35.902470,587.638367 
	C35.886566,585.992737 36.344280,584.160156 35.780140,582.730957 
	C31.091200,570.851318 12.075467,571.832947 5.900127,580.187805 
	C4.396990,582.221497 2.640168,584.067627 0.999996,586.000000 
	C1.000000,540.312439 1.000000,494.624878 1.398236,448.543152 
	C2.192930,449.340851 2.803335,450.507111 2.949869,451.728973 
	C3.698484,457.971375 3.817098,464.333740 5.085359,470.461823 
	C10.974068,498.915253 27.778324,517.906250 56.127892,524.699951 
	C69.198105,527.832153 83.036446,528.417114 96.565468,528.807861 
	C113.001556,529.282471 129.477448,528.197876 145.938553,528.038269 
	C162.185211,527.880798 177.512375,524.576477 191.602875,516.165161 
	C204.165375,508.665985 212.831299,498.261902 216.172104,483.840240 
	C219.756317,468.367798 219.852798,452.594208 220.005371,436.829041 
	C220.032166,434.057800 218.884598,432.983185 216.139328,432.991913 
	C199.143188,433.045776 182.146622,433.053680 165.150604,432.980194 
	C162.212128,432.967468 160.882904,433.980988 160.980026,437.039886 
	C161.117477,441.367645 161.271912,445.724884 160.933212,450.031281 
	C160.282425,458.305389 158.959091,466.910553 150.651657,470.853943 
	C144.203506,473.914703 136.920151,476.149994 129.841202,476.735748 
	C118.330269,477.688171 106.621910,477.749023 95.107140,476.819824 
	C76.590561,475.325592 68.918457,470.333557 64.593140,453.773041 
	C62.812347,446.954865 62.117813,439.670929 62.125328,432.600098 
	C62.153618,405.976074 62.127293,379.330292 63.209496,352.736938 
	C63.890232,336.009094 70.034752,326.918976 89.354408,323.940796 
	C104.055748,321.674561 118.776993,321.407288 133.502426,323.099457 
	C147.672363,324.727844 154.155365,328.177612 157.391876,340.169006 
	C158.752167,345.208954 158.862411,350.678040 158.891434,355.955566 
	C158.913330,359.939148 160.298920,361.099213 164.142258,361.062164 
	C180.470612,360.904816 196.802017,360.914581 213.130661,361.055695 
	C216.789612,361.087311 218.338242,359.900970 218.015762,356.178284 
	C216.929459,343.638306 216.795471,330.944916 214.703949,318.579651 
	C211.620941,300.352631 201.788330,286.620880 184.442978,278.660583 
	C172.214981,273.048767 159.253342,271.131348 146.180405,271.172791 
	C121.258850,271.251831 96.302902,271.720337 71.433304,273.221222 
	C53.118591,274.326508 36.639698,281.162354 23.187099,294.280151 
	C11.366816,305.806244 5.749218,320.234955 2.986852,336.112122 
	C2.748549,337.481842 1.681880,338.707458 1.000001,340.000000 
	C1.000000,227.047531 1.000000,114.095062 1.000000,1.000000 
	C234.354202,1.000000 467.708435,1.000000 701.743896,1.379506 
	C699.659119,2.504444 696.918152,3.363213 694.123413,3.977455 
	C670.808167,9.101676 650.282166,19.904495 632.320557,35.357704 
	C620.920715,45.165451 611.322937,56.759270 603.740234,69.825607 
	C591.888245,90.248833 584.905334,112.325912 584.229980,135.907486 
	C583.898193,147.492630 585.228027,159.274094 587.138123,170.744888 
	C591.619690,197.657837 604.588623,220.570404 622.992554,240.336716 
	C636.337524,254.669540 652.324463,265.680359 670.529541,272.954285 
	C679.388916,276.494080 688.852844,278.520721 698.023560,281.614685 
	C686.790588,318.527710 675.577087,355.058411 664.303101,391.786194 
	C703.756897,391.786194 742.697266,391.786194 781.829163,391.786194 
	C787.598877,371.515167 793.430725,351.419159 798.968262,331.242340 
	C800.088440,327.160828 801.911682,325.902344 806.156555,325.885651 
	C828.251099,325.798737 850.348450,325.499634 872.436523,324.946869 
	C888.397095,324.547455 903.511963,320.079407 917.897705,313.477295 
	C937.591553,304.439117 954.630676,291.846741 968.606323,275.025482 
	C984.494690,255.902130 994.674438,234.309723 999.088379,209.901367 
	C999.219543,209.176071 1000.340515,208.629761 1001.000000,208.000000 
	C1001.000000,344.924286 1001.000000,481.848602 1001.000000,619.000000 
	C874.312500,619.000000 747.624939,619.000000 620.468628,618.531372 
	C620.000000,609.256287 619.931885,600.449036 620.032898,591.643799 
	C620.074280,588.039673 619.354980,583.663330 621.115601,581.109436 
	C622.298523,579.393616 627.227600,580.259644 630.480774,579.972656 
	C630.811584,579.943420 631.268616,580.061584 631.453735,579.886230 
	C632.288879,579.095276 633.047119,578.223206 633.833130,577.380371 
	C632.966736,576.609680 632.111633,575.184082 631.232239,575.168884 
	C621.764954,575.005432 612.292847,575.003967 602.825439,575.161194 
	C601.929504,575.176025 601.056458,576.569214 600.172791,577.322571 
	C601.103149,578.198792 601.931824,579.646118 602.984802,579.833557 
	C605.242432,580.235535 607.634338,580.180725 609.937805,579.961731 
	C613.888306,579.586243 615.130859,581.230652 615.064575,585.104797 
	C614.871216,596.400269 614.998413,607.701233 615.000000,619.000000 
M425.000000,293.500275 
	C425.000122,368.990936 424.998810,444.481628 425.002686,519.972290 
	C425.003021,526.984375 425.018250,526.994690 432.161194,526.997742 
	C447.492645,527.004211 462.826538,526.845764 478.154022,527.092163 
	C482.738922,527.165894 484.138641,525.735657 484.091217,521.154297 
	C483.879028,500.659058 484.103638,480.159393 483.918457,459.663605 
	C483.879730,455.375366 485.045807,453.912415 489.526062,453.895477 
	C506.321259,453.832092 523.115540,453.373016 539.908752,452.999573 
	C552.704163,452.715088 565.546875,452.924347 578.279663,451.855286 
	C595.693298,450.393219 610.535217,443.189423 621.059814,428.743195 
	C630.769714,415.415192 633.233704,399.575958 633.690735,383.868042 
	C634.235291,365.149872 633.337769,346.310425 631.739502,327.636963 
	C630.667664,315.114899 625.524658,303.612549 616.673767,294.161255 
	C602.855652,279.405670 585.273315,273.472565 565.668579,273.089508 
	C545.178894,272.689240 524.675354,272.999451 504.177887,273.000153 
	C479.514282,273.000946 454.850372,273.060272 430.187317,272.943390 
	C426.412994,272.925507 424.690247,273.929047 424.936493,278.006561 
	C425.227295,282.821625 425.001740,287.667877 425.000000,293.500275 
M286.000000,480.500000 
	C286.000885,494.160919 286.170471,507.825134 285.906982,521.480957 
	C285.820038,525.984863 287.392609,527.137634 291.670197,527.081604 
	C307.660675,526.872070 323.656921,526.883728 339.647888,527.074219 
	C343.773071,527.123413 345.074463,525.803955 345.069458,521.664612 
	C344.971161,440.532349 344.969513,359.399933 345.071991,278.267700 
	C345.077332,274.044495 343.621979,272.881409 339.580200,272.928986 
	C324.088928,273.111328 308.594177,272.996094 293.100739,273.002594 
	C286.017181,273.005585 286.002899,273.016876 286.002502,280.084320 
	C285.998688,346.556213 286.000092,413.028107 286.000000,480.500000 
z"/>
<path fill="#406CA9" opacity="1.000000" stroke="none" 
	d="
M1001.000000,207.531342 
	C1000.340515,208.629761 999.219543,209.176071 999.088379,209.901367 
	C994.674438,234.309723 984.494690,255.902130 968.606323,275.025482 
	C954.630676,291.846741 937.591553,304.439117 917.897705,313.477295 
	C903.511963,320.079407 888.397095,324.547455 872.436523,324.946869 
	C850.348450,325.499634 828.251099,325.798737 806.156555,325.885651 
	C801.911682,325.902344 800.088440,327.160828 798.968262,331.242340 
	C793.430725,351.419159 787.598877,371.515167 781.829163,391.786194 
	C742.697266,391.786194 703.756897,391.786194 664.303101,391.786194 
	C675.577087,355.058411 686.790588,318.527710 698.258301,281.542725 
	C698.512451,281.088409 698.979370,280.936951 699.348022,281.081360 
	C704.949768,282.137787 710.177673,283.801025 715.416992,283.838287 
	C746.238831,284.057404 777.063721,283.825500 807.886658,283.951813 
	C811.982788,283.968597 813.722717,282.508728 814.874878,278.687683 
	C826.213806,241.082642 837.642273,203.504120 849.202454,165.966446 
	C858.906311,134.456436 868.873657,103.027634 878.603882,71.525696 
	C881.300354,62.795818 883.567322,53.933304 886.274170,45.059235 
	C886.678223,44.935947 886.839355,44.885067 887.410400,44.899292 
	C888.152710,44.977352 888.497070,44.938026 888.815918,45.010689 
	C920.345703,52.196228 947.018250,67.318054 967.995056,92.350830 
	C984.268860,111.771217 994.985291,133.577682 999.134155,158.600449 
	C999.226074,159.154846 1000.354919,159.537323 1001.000000,160.000000 
	C1001.000000,175.687561 1001.000000,191.375122 1001.000000,207.531342 
z"/>
<path fill="#86BF46" opacity="1.000000" stroke="none" 
	d="
M698.979370,280.936951 
	C698.979370,280.936951 698.512451,281.088409 698.277771,281.160400 
	C688.852844,278.520721 679.388916,276.494080 670.529541,272.954285 
	C652.324463,265.680359 636.337524,254.669540 622.992554,240.336716 
	C604.588623,220.570404 591.619690,197.657837 587.138123,170.744888 
	C585.228027,159.274094 583.898193,147.492630 584.229980,135.907486 
	C584.905334,112.325912 591.888245,90.248833 603.740234,69.825607 
	C611.322937,56.759270 620.920715,45.165451 632.320557,35.357704 
	C650.282166,19.904495 670.808167,9.101676 694.123413,3.977455 
	C696.918152,3.363213 699.659119,2.504444 702.212524,1.379506 
	C768.020874,1.000000 834.041809,1.000000 900.409058,1.359497 
	C900.520081,2.145126 900.203796,2.545907 900.061340,3.001072 
	C895.697144,16.942150 891.350159,30.888582 887.000488,44.834183 
	C886.839355,44.885067 886.678223,44.935947 885.872070,44.958824 
	C879.783997,44.247913 874.345459,43.018726 868.897034,42.972893 
	C838.923218,42.720734 808.945862,42.871490 778.972534,42.584831 
	C773.939636,42.536701 771.767761,44.092556 770.275757,48.977837 
	C750.630615,113.301910 730.750122,177.554092 710.941589,241.828278 
	C706.926636,254.856003 702.965332,267.900299 698.979370,280.936951 
z"/>
<path fill="#404041" opacity="1.000000" stroke="none" 
	d="
M1.000001,340.468658 
	C1.681880,338.707458 2.748549,337.481842 2.986852,336.112122 
	C5.749218,320.234955 11.366816,305.806244 23.187099,294.280151 
	C36.639698,281.162354 53.118591,274.326508 71.433304,273.221222 
	C96.302902,271.720337 121.258850,271.251831 146.180405,271.172791 
	C159.253342,271.131348 172.214981,273.048767 184.442978,278.660583 
	C201.788330,286.620880 211.620941,300.352631 214.703949,318.579651 
	C216.795471,330.944916 216.929459,343.638306 218.015762,356.178284 
	C218.338242,359.900970 216.789612,361.087311 213.130661,361.055695 
	C196.802017,360.914581 180.470612,360.904816 164.142258,361.062164 
	C160.298920,361.099213 158.913330,359.939148 158.891434,355.955566 
	C158.862411,350.678040 158.752167,345.208954 157.391876,340.169006 
	C154.155365,328.177612 147.672363,324.727844 133.502426,323.099457 
	C118.776993,321.407288 104.055748,321.674561 89.354408,323.940796 
	C70.034752,326.918976 63.890232,336.009094 63.209496,352.736938 
	C62.127293,379.330292 62.153618,405.976074 62.125328,432.600098 
	C62.117813,439.670929 62.812347,446.954865 64.593140,453.773041 
	C68.918457,470.333557 76.590561,475.325592 95.107140,476.819824 
	C106.621910,477.749023 118.330269,477.688171 129.841202,476.735748 
	C136.920151,476.149994 144.203506,473.914703 150.651657,470.853943 
	C158.959091,466.910553 160.282425,458.305389 160.933212,450.031281 
	C161.271912,445.724884 161.117477,441.367645 160.980026,437.039886 
	C160.882904,433.980988 162.212128,432.967468 165.150604,432.980194 
	C182.146622,433.053680 199.143188,433.045776 216.139328,432.991913 
	C218.884598,432.983185 220.032166,434.057800 220.005371,436.829041 
	C219.852798,452.594208 219.756317,468.367798 216.172104,483.840240 
	C212.831299,498.261902 204.165375,508.665985 191.602875,516.165161 
	C177.512375,524.576477 162.185211,527.880798 145.938553,528.038269 
	C129.477448,528.197876 113.001556,529.282471 96.565468,528.807861 
	C83.036446,528.417114 69.198105,527.832153 56.127892,524.699951 
	C27.778324,517.906250 10.974068,498.915253 5.085359,470.461823 
	C3.817098,464.333740 3.698484,457.971375 2.949869,451.728973 
	C2.803335,450.507111 2.192930,449.340851 1.398236,448.074463 
	C1.000000,412.312439 1.000000,376.624878 1.000001,340.468658 
z"/>
<path fill="#fff" opacity="1.000000" stroke="none" 
	d="
M887.410400,44.899292 
	C891.350159,30.888582 895.697144,16.942150 900.061340,3.001072 
	C900.203796,2.545907 900.520081,2.145126 900.877686,1.359497 
	C934.276917,1.000000 967.553894,1.000000 1001.000000,1.000000 
	C1001.000000,53.687439 1001.000000,106.375061 1001.000000,159.531342 
	C1000.354919,159.537323 999.226074,159.154846 999.134155,158.600449 
	C994.985291,133.577682 984.268860,111.771217 967.995056,92.350830 
	C947.018250,67.318054 920.345703,52.196228 888.815918,45.010689 
	C888.497070,44.938026 888.152710,44.977352 887.410400,44.899292 
z"/>
<path fill="#404041" opacity="1.000000" stroke="none" 
	d="
M542.428467,619.000000 
	C542.000366,606.361816 541.911560,593.722290 542.093567,581.086731 
	C542.122192,579.100769 542.876648,575.939026 544.167786,575.396362 
	C547.163330,574.137451 550.014832,575.038452 552.059143,578.425659 
	C557.702454,587.776001 563.716431,596.902649 569.592285,606.112366 
	C569.995361,606.744080 570.468689,607.330811 572.000000,607.751038 
	C572.000000,601.206604 571.997498,594.662109 572.001160,588.117676 
	C572.002930,584.958191 571.788147,581.773193 572.137695,578.651917 
	C572.276306,577.413757 573.678955,576.317139 574.506165,575.156067 
	C575.329346,576.321289 576.833252,577.467712 576.865845,578.654724 
	C577.085144,586.630798 576.993835,594.615601 576.999390,602.597534 
	C577.002930,607.752563 577.000000,612.907654 577.000000,618.531372 
	C574.958313,619.000000 572.916687,619.000000 570.468262,618.639404 
	C563.124390,606.922119 556.187195,595.565369 549.250061,584.208618 
	C548.833374,584.370972 548.416687,584.533386 548.000000,584.695740 
	C548.000000,596.130493 548.000000,607.565247 548.000000,619.000000 
	C546.285645,619.000000 544.571289,619.000000 542.428467,619.000000 
z"/>
<path fill="#404041" opacity="1.000000" stroke="none" 
	d="
M294.416656,619.000000 
	C294.000397,606.364441 293.912506,593.727539 294.092529,581.094543 
	C294.120850,579.106384 294.841858,575.980103 296.149323,575.390442 
	C299.124054,574.048706 301.600037,575.625305 303.460876,578.659973 
	C309.255341,588.109863 315.349609,597.375977 321.336517,606.707642 
	C321.826691,607.471680 322.384247,608.192566 324.000000,608.743774 
	C324.000000,602.196899 323.997253,595.649963 324.001099,589.103088 
	C324.003174,585.611755 323.804688,582.099976 324.138733,578.640076 
	C324.257111,577.413940 325.685150,576.314270 326.515289,575.156921 
	C327.335602,576.324585 328.836121,577.474609 328.866821,578.662659 
	C329.081360,586.970154 328.993652,595.285461 328.999390,603.598267 
	C329.002747,608.419739 329.000000,613.241211 329.000000,618.531372 
	C326.629425,619.000000 324.258881,619.000000 321.506226,618.633972 
	C314.210297,606.801025 307.296478,595.334045 300.382660,583.867126 
	C299.921783,584.022522 299.460876,584.177979 299.000000,584.333374 
	C299.000000,595.888916 299.000000,607.444458 299.000000,619.000000 
	C297.611115,619.000000 296.222198,619.000000 294.416656,619.000000 
z"/>
<path fill="#404041" opacity="1.000000" stroke="none" 
	d="
M454.468262,619.000000 
	C452.519196,617.581665 450.990204,616.209961 449.565796,614.737122 
	C442.928192,607.873901 441.888824,599.362427 443.428467,590.603210 
	C444.883942,582.322693 449.791687,576.522888 458.337006,574.361206 
	C470.863647,571.192322 482.660339,580.289795 483.024902,593.302795 
	C483.213806,600.043884 483.008545,606.671997 478.763733,612.319580 
	C477.107147,614.523560 474.904755,616.317322 472.975494,618.648987 
	C466.978851,619.000000 460.957703,619.000000 454.468262,619.000000 
M464.256866,579.026855 
	C458.938629,578.528870 454.881500,580.904541 451.772430,584.907227 
	C447.815338,590.001709 447.935822,602.969666 451.772034,608.157288 
	C457.004517,615.233093 466.181000,616.873352 472.058838,611.153442 
	C477.869080,605.499207 479.033325,598.164185 476.840057,590.492920 
	C475.146393,584.569092 471.589478,580.209351 464.256866,579.026855 
z"/>
<path fill="#404041" opacity="1.000000" stroke="none" 
	d="
M124.467941,619.000000 
	C122.016136,616.670654 119.852516,614.465881 118.118477,611.963379 
	C117.139847,610.551086 116.868340,608.648743 116.237961,606.852112 
	C119.452065,605.394104 121.557999,605.874268 123.009148,608.899902 
	C125.272888,613.620056 131.849106,616.471191 136.477081,613.900024 
	C139.047256,612.472107 142.173248,609.698242 142.466568,607.224854 
	C142.723633,605.057190 139.853531,601.682739 137.505371,600.243347 
	C134.198700,598.216370 130.094894,597.494690 126.338593,596.195496 
	C120.015816,594.008667 117.744080,590.915039 118.027306,584.915039 
	C118.261475,579.954346 121.699829,576.004028 127.111465,574.478149 
	C134.338242,572.440491 142.153549,574.636047 145.401031,579.825134 
	C146.385986,581.398926 146.813950,583.321289 147.511612,585.121704 
	C144.077484,586.729919 142.478745,585.624268 140.918289,583.082336 
	C138.292831,578.805603 131.631912,577.473877 127.220619,579.974670 
	C123.178719,582.266052 122.810020,587.602844 126.921158,590.124573 
	C129.666977,591.808899 132.975311,592.752502 136.154053,593.524902 
	C151.148956,597.168579 152.249542,610.489014 141.995850,618.651611 
	C136.311951,619.000000 130.623917,619.000000 124.467941,619.000000 
z"/>
<path fill="#404041" opacity="1.000000" stroke="none" 
	d="
M58.416664,619.000000 
	C59.351433,614.423340 60.533146,609.788025 62.090206,605.282410 
	C65.172768,596.362549 68.329376,587.461670 71.791885,578.685730 
	C72.403038,577.136719 74.480186,575.681824 76.180595,575.157776 
	C78.878769,574.326233 80.183060,576.189819 81.111282,578.725708 
	C85.947655,591.937988 90.960335,605.085815 95.955826,618.628052 
	C94.285645,619.000000 92.571281,619.000000 90.382904,618.631592 
	C88.707230,615.030823 87.840820,611.609741 86.169785,608.641602 
	C85.264389,607.033508 83.051773,605.282288 81.318642,605.160217 
	C68.844528,604.281555 68.829376,604.406189 64.097374,615.747803 
	C63.657898,616.801147 63.362370,617.914490 63.000004,619.000000 
	C61.611111,619.000000 60.222221,619.000000 58.416664,619.000000 
M70.674034,597.902954 
	C71.160004,598.561829 71.618286,599.764893 72.136429,599.791321 
	C75.513115,599.963074 78.902786,599.879578 83.089867,599.879578 
	C80.799103,593.592285 78.835419,588.202698 76.871735,582.813049 
	C76.445793,582.834778 76.019859,582.856445 75.593925,582.878113 
	C74.024483,587.638367 72.455040,592.398621 70.674034,597.902954 
z"/>
<path fill="#404041" opacity="1.000000" stroke="none" 
	d="
M174.468658,619.000000 
	C174.001602,606.023254 174.124207,593.044739 173.931778,580.070862 
	C173.873337,576.130310 175.214310,574.786926 179.107285,574.939148 
	C185.419754,575.185974 191.755066,574.864624 198.065369,575.137939 
	C199.352737,575.193665 200.572250,576.816101 201.823029,577.716309 
	C200.593658,578.471985 199.396362,579.810242 198.129196,579.880005 
	C193.318710,580.144958 188.480469,580.138489 183.662704,579.960205 
	C180.290009,579.835327 178.644379,580.967346 178.983643,584.514404 
	C179.141403,586.163635 178.554321,588.044495 179.165192,589.445129 
	C179.783401,590.862610 181.387634,592.702209 182.693359,592.815125 
	C187.483322,593.229553 192.337494,592.848755 197.147461,593.121216 
	C198.410370,593.192749 199.601028,594.540405 200.824860,595.302002 
	C199.567307,596.196228 198.357483,597.769775 197.043579,597.862061 
	C192.407440,598.187683 187.732834,598.107849 183.078384,597.979797 
	C180.071655,597.897034 178.942078,599.119263 178.982452,602.100464 
	C179.179001,616.612305 177.390518,613.657471 190.250732,613.989380 
	C193.243469,614.066650 196.243744,614.110901 199.233200,613.989502 
	C202.658127,613.850525 203.356750,615.340820 202.042511,618.624146 
	C192.979111,619.000000 183.958206,619.000000 174.468658,619.000000 
z"/>
<path fill="#404041" opacity="1.000000" stroke="none" 
	d="
M0.999996,586.468567 
	C2.640168,584.067627 4.396990,582.221497 5.900127,580.187805 
	C12.075467,571.832947 31.091200,570.851318 35.780140,582.730957 
	C36.344280,584.160156 35.886566,585.992737 35.902470,587.638367 
	C34.312340,586.879639 32.032879,586.547302 31.253281,585.287170 
	C28.138468,580.252258 23.682161,578.365845 18.144005,579.120178 
	C12.705235,579.861084 9.492782,583.331055 7.692732,588.510254 
	C5.637748,594.422913 5.417563,600.166992 7.992998,605.917542 
	C12.480660,615.937805 23.520321,617.408569 30.441410,608.926086 
	C32.805916,606.028137 32.805916,606.028137 36.650448,606.806885 
	C36.566090,612.295837 32.220314,614.940796 28.994184,618.653687 
	C23.311958,619.000000 17.623919,619.000000 11.474253,618.654175 
	C7.675084,614.872253 4.337540,611.436157 0.999998,608.000000 
	C1.000000,600.979065 1.000000,593.958069 0.999996,586.468567 
z"/>
<path fill="#404041" opacity="1.000000" stroke="none" 
	d="
M390.416656,619.000000 
	C390.001556,606.037292 390.114746,593.073059 389.936157,580.112793 
	C389.882935,576.250244 391.090576,574.701538 395.056580,574.942993 
	C399.527252,575.215149 404.029663,574.913574 408.513367,575.037720 
	C414.832825,575.212646 419.454224,579.138367 419.962708,584.563843 
	C420.810211,593.606506 417.838409,598.535095 410.392731,599.861633 
	C406.666321,600.525635 402.848083,600.866089 399.062744,600.946838 
	C396.063965,601.010864 394.891266,602.129028 394.981110,605.102295 
	C395.111572,609.419067 395.005280,613.743042 395.000000,618.531982 
	C393.611115,619.000000 392.222198,619.000000 390.416656,619.000000 
M403.205933,579.008728 
	C394.086670,579.047607 395.092590,578.298035 395.000427,587.435364 
	C394.997070,587.767761 394.999756,588.100220 395.000122,588.432617 
	C395.009094,596.119324 395.009125,596.119324 402.578827,595.995178 
	C410.135864,595.871216 414.504822,592.947144 414.794037,587.819763 
	C415.063446,583.043152 411.834473,580.389709 403.205933,579.008728 
z"/>
<path fill="#fff" opacity="1.000000" stroke="none" 
	d="
M299.468567,619.000000 
	C299.000000,607.444458 299.000000,595.888916 299.000000,584.333374 
	C299.460876,584.177979 299.921783,584.022522 300.382660,583.867126 
	C307.296478,595.334045 314.210297,606.801025 321.062073,618.633972 
	C313.979034,619.000000 306.958099,619.000000 299.468567,619.000000 
z"/>
<path fill="#fff" opacity="1.000000" stroke="none" 
	d="
M548.468567,619.000000 
	C548.000000,607.565247 548.000000,596.130493 548.000000,584.695740 
	C548.416687,584.533386 548.833374,584.370972 549.250061,584.208618 
	C556.187195,595.565369 563.124390,606.922119 570.030762,618.639404 
	C562.979065,619.000000 555.958069,619.000000 548.468567,619.000000 
z"/>
<path fill="#404041" opacity="1.000000" stroke="none" 
	d="
M615.416626,619.000000 
	C614.998413,607.701233 614.871216,596.400269 615.064575,585.104797 
	C615.130859,581.230652 613.888306,579.586243 609.937805,579.961731 
	C607.634338,580.180725 605.242432,580.235535 602.984802,579.833557 
	C601.931824,579.646118 601.103149,578.198792 600.172791,577.322571 
	C601.056458,576.569214 601.929504,575.176025 602.825439,575.161194 
	C612.292847,575.003967 621.764954,575.005432 631.232239,575.168884 
	C632.111633,575.184082 632.966736,576.609680 633.833130,577.380371 
	C633.047119,578.223206 632.288879,579.095276 631.453735,579.886230 
	C631.268616,580.061584 630.811584,579.943420 630.480774,579.972656 
	C627.227600,580.259644 622.298523,579.393616 621.115601,581.109436 
	C619.354980,583.663330 620.074280,588.039673 620.032898,591.643799 
	C619.931885,600.449036 620.000000,609.256287 620.000000,618.531372 
	C618.611084,619.000000 617.222229,619.000000 615.416626,619.000000 
z"/>
<path fill="#fff" opacity="1.000000" stroke="none" 
	d="
M63.468658,619.000000 
	C63.362370,617.914490 63.657898,616.801147 64.097374,615.747803 
	C68.829376,604.406189 68.844528,604.281555 81.318642,605.160217 
	C83.051773,605.282288 85.264389,607.033508 86.169785,608.641602 
	C87.840820,611.609741 88.707230,615.030823 89.954445,618.631592 
	C81.312439,619.000000 72.624870,619.000000 63.468658,619.000000 
z"/>
<path fill="#404041" opacity="1.000000" stroke="none" 
	d="
M260.416656,619.000000 
	C260.002411,605.869995 259.957153,592.739502 260.074707,579.610535 
	C260.087646,578.164368 260.701691,575.769897 261.605347,575.457031 
	C264.822754,574.343018 264.984741,576.869812 264.986023,579.171204 
	C264.993195,592.135010 264.995819,605.098877 265.000000,618.531372 
	C263.611115,619.000000 262.222198,619.000000 260.416656,619.000000 
z"/>
<path fill="#404041" opacity="1.000000" stroke="none" 
	d="
M509.416656,619.000000 
	C509.002411,605.869934 508.957184,592.739502 509.074738,579.610474 
	C509.087677,578.164307 509.701782,575.769958 510.605438,575.457092 
	C513.822754,574.343140 513.984680,576.869751 513.985962,579.171204 
	C513.993103,592.135010 513.995789,605.098877 514.000000,618.531372 
	C512.611084,619.000000 511.222198,619.000000 509.416656,619.000000 
z"/>
<path fill="#fff" opacity="1.000000" stroke="none" 
	d="
M0.999998,608.482971 
	C4.337540,611.436157 7.675084,614.872253 11.006313,618.654175 
	C7.742430,619.000000 4.484859,619.000000 1.000000,619.000000 
	C1.000000,615.657227 1.000000,612.311584 0.999998,608.482971 
z"/>
<path fill="#404041" opacity="1.000000" stroke="none" 
	d="
M425.000000,293.000427 
	C425.001740,287.667877 425.227295,282.821625 424.936493,278.006561 
	C424.690247,273.929047 426.412994,272.925507 430.187317,272.943390 
	C454.850372,273.060272 479.514282,273.000946 504.177887,273.000153 
	C524.675354,272.999451 545.178894,272.689240 565.668579,273.089508 
	C585.273315,273.472565 602.855652,279.405670 616.673767,294.161255 
	C625.524658,303.612549 630.667664,315.114899 631.739502,327.636963 
	C633.337769,346.310425 634.235291,365.149872 633.690735,383.868042 
	C633.233704,399.575958 630.769714,415.415192 621.059814,428.743195 
	C610.535217,443.189423 595.693298,450.393219 578.279663,451.855286 
	C565.546875,452.924347 552.704163,452.715088 539.908752,452.999573 
	C523.115540,453.373016 506.321259,453.832092 489.526062,453.895477 
	C485.045807,453.912415 483.879730,455.375366 483.918457,459.663605 
	C484.103638,480.159393 483.879028,500.659058 484.091217,521.154297 
	C484.138641,525.735657 482.738922,527.165894 478.154022,527.092163 
	C462.826538,526.845764 447.492645,527.004211 432.161194,526.997742 
	C425.018250,526.994690 425.003021,526.984375 425.002686,519.972290 
	C424.998810,444.481628 425.000122,368.990936 425.000000,293.000427 
M570.576599,389.786072 
	C575.198059,374.180573 574.459290,358.422333 572.391235,342.513824 
	C570.508545,328.031158 560.995239,322.505280 548.432434,322.160156 
	C528.469055,321.611755 508.479248,322.072876 488.501526,321.952759 
	C484.942261,321.931335 483.945557,323.331177 483.958710,326.680969 
	C484.051514,350.321777 484.046356,373.963226 483.968567,397.604126 
	C483.958160,400.771698 485.007690,402.088074 488.287598,402.025970 
	C509.724274,401.619995 531.168335,401.510651 552.598328,400.898193 
	C560.086365,400.684174 566.287598,397.232239 570.576599,389.786072 
z"/>
<path fill="#404041" opacity="1.000000" stroke="none" 
	d="
M286.000000,480.000000 
	C286.000092,413.028107 285.998688,346.556213 286.002502,280.084320 
	C286.002899,273.016876 286.017181,273.005585 293.100739,273.002594 
	C308.594177,272.996094 324.088928,273.111328 339.580200,272.928986 
	C343.621979,272.881409 345.077332,274.044495 345.071991,278.267700 
	C344.969513,359.399933 344.971161,440.532349 345.069458,521.664612 
	C345.074463,525.803955 343.773071,527.123413 339.647888,527.074219 
	C323.656921,526.883728 307.660675,526.872070 291.670197,527.081604 
	C287.392609,527.137634 285.820038,525.984863 285.906982,521.480957 
	C286.170471,507.825134 286.000885,494.160919 286.000000,480.000000 
z"/>
<path fill="#1FAB55" opacity="1.000000" stroke="none" 
	d="
M699.348022,281.081360 
	C702.965332,267.900299 706.926636,254.856003 710.941589,241.828278 
	C730.750122,177.554092 750.630615,113.301910 770.275757,48.977837 
	C771.767761,44.092556 773.939636,42.536701 778.972534,42.584831 
	C808.945862,42.871490 838.923218,42.720734 868.897034,42.972893 
	C874.345459,43.018726 879.783997,44.247913 885.629150,45.031231 
	C883.567322,53.933304 881.300354,62.795818 878.603882,71.525696 
	C868.873657,103.027634 858.906311,134.456436 849.202454,165.966446 
	C837.642273,203.504120 826.213806,241.082642 814.874878,278.687683 
	C813.722717,282.508728 811.982788,283.968597 807.886658,283.951813 
	C777.063721,283.825500 746.238831,284.057404 715.416992,283.838287 
	C710.177673,283.801025 704.949768,282.137787 699.348022,281.081360 
z"/>
<path fill="#fff" opacity="1.000000" stroke="none" 
	d="
M464.669373,579.046387 
	C471.589478,580.209351 475.146393,584.569092 476.840057,590.492920 
	C479.033325,598.164185 477.869080,605.499207 472.058838,611.153442 
	C466.181000,616.873352 457.004517,615.233093 451.772034,608.157288 
	C447.935822,602.969666 447.815338,590.001709 451.772430,584.907227 
	C454.881500,580.904541 458.938629,578.528870 464.669373,579.046387 
z"/>
<path fill="#fff" opacity="1.000000" stroke="none" 
	d="
M70.779816,597.530884 
	C72.455040,592.398621 74.024483,587.638367 75.593925,582.878113 
	C76.019859,582.856445 76.445793,582.834778 76.871735,582.813049 
	C78.835419,588.202698 80.799103,593.592285 83.089867,599.879578 
	C78.902786,599.879578 75.513115,599.963074 72.136429,599.791321 
	C71.618286,599.764893 71.160004,598.561829 70.779816,597.530884 
z"/>
<path fill="#fff" opacity="1.000000" stroke="none" 
	d="
M403.648193,579.016418 
	C411.834473,580.389709 415.063446,583.043152 414.794037,587.819763 
	C414.504822,592.947144 410.135864,595.871216 402.578827,595.995178 
	C395.009125,596.119324 395.009094,596.119324 395.000122,588.432617 
	C394.999756,588.100220 394.997070,587.767761 395.000427,587.435364 
	C395.092590,578.298035 394.086670,579.047607 403.648193,579.016418 
z"/>
<path fill="#fff" opacity="1.000000" stroke="none" 
	d="
M570.381714,390.115051 
	C566.287598,397.232239 560.086365,400.684174 552.598328,400.898193 
	C531.168335,401.510651 509.724274,401.619995 488.287598,402.025970 
	C485.007690,402.088074 483.958160,400.771698 483.968567,397.604126 
	C484.046356,373.963226 484.051514,350.321777 483.958710,326.680969 
	C483.945557,323.331177 484.942261,321.931335 488.501526,321.952759 
	C508.479248,322.072876 528.469055,321.611755 548.432434,322.160156 
	C560.995239,322.505280 570.508545,328.031158 572.391235,342.513824 
	C574.459290,358.422333 575.198059,374.180573 570.381714,390.115051 
z"/>
</svg>