<?xml version="1.0" encoding="utf-8"?>
<!-- Generator: Adobe Illustrator 27.5.0, SVG Export Plug-In . SVG Version: 6.00 Build 0)  -->
<svg version="1.1" id="Layer_1" xmlns="http://www.w3.org/2000/svg" xmlns:xlink="http://www.w3.org/1999/xlink" x="0px" y="0px"
	 viewBox="0 0 50 50" style="enable-background:new 0 0 50 50;" xml:space="preserve">
<style type="text/css">
	.st0{fill:#C6C6C5;}
</style>
<g>
	<path class="st0" d="M16.97,25.69c0.96-0.33,1.84-0.86,2.6-1.58c0.07-0.07,0.16-0.11,0.27-0.09l2.88,0.4l-1.53-2.37
		c-0.05-0.09-0.07-0.2-0.04-0.29c0.62-1.53,0.67-3.24,0.15-4.8c-0.96-2.88-3.68-4.71-6.55-4.71c-0.73,0-1.47,0.11-2.2,0.36
		c-1.75,0.58-3.17,1.82-3.99,3.48s-0.95,3.53-0.36,5.28c0.58,1.75,1.82,3.17,3.48,3.99C13.34,26.15,15.22,26.27,16.97,25.69
		L16.97,25.69z"/>
	<path class="st0" d="M37.13,6.35c-4.35,0-7.88,3.44-7.88,7.68c0,1.84,0.67,3.6,1.91,5c0.07,0.07,0.09,0.2,0.07,0.29l-0.8,3.09
		l3.02-1.47c0.09-0.04,0.2-0.04,0.27,0c1.07,0.49,2.22,0.75,3.39,0.75c4.35,0,7.88-3.44,7.88-7.68C45.01,9.79,41.46,6.35,37.13,6.35
		L37.13,6.35z"/>
	<path class="st0" d="M34.85,30.5c-0.04,0.02-0.09,0.04-0.13,0.05c-0.35,0.51-2.35,3.42-5.5,4.84c-0.04,0.02-0.09,0.04-0.13,0.04
		c-0.13,0-0.24-0.07-0.29-0.2c-0.07-0.16,0-0.36,0.16-0.44c3.2-1.44,5.24-4.64,5.26-4.68l0,0l0,0c0.18-0.25,0.27-0.56,0.36-0.89
		c0.07-0.25,0.09-0.56-0.07-0.76c-0.2-0.24-0.58-0.25-0.86-0.16c-0.35,0.11-0.62,0.35-0.91,0.6c0,0,0,0-0.02,0.02
		c-0.25,0.35-2.93,3.97-5.68,4.79c-0.04,0-0.05,0.02-0.09,0.02c-0.15,0-0.27-0.09-0.31-0.24c-0.05-0.18,0.05-0.36,0.22-0.4
		c2.62-0.78,5.33-4.53,5.35-4.57c0-0.02,0.02-0.02,0.04-0.02c0-0.02,0.02-0.02,0.02-0.04c0.25-0.22,0.35-0.6,0.22-0.91
		s-0.47-0.51-0.8-0.49c-0.44,0.04-0.8,0.42-1.18,0.84c-0.33,0.36-0.66,0.73-0.98,1.07c-0.27,0.29-0.55,0.58-0.8,0.89
		c-0.05,0.07-0.13,0.15-0.2,0.22l0,0l0,0c-0.09,0.07-2.27,1.97-3.44,2.58c-0.05,0.02-0.11,0.04-0.15,0.04
		c-0.11,0-0.24-0.05-0.29-0.18c-0.09-0.16-0.02-0.36,0.15-0.44c1.07-0.56,3.15-2.35,3.31-2.48c0.04-0.05,0.09-0.11,0.13-0.15
		c0.18-0.25,0.2-0.58,0.07-0.93c-0.07-0.18-0.25-0.35-0.45-0.38c-0.16-0.04-0.36,0-0.56,0.09c-0.11,0.05-0.24,0.18-0.36,0.29
		c-0.07,0.07-0.15,0.15-0.22,0.2c-0.42,0.35-1.04,0.87-1.33,1.13c-0.13,0.11-0.27,0.22-0.42,0.31c-1.58,1-2.84,1.2-5.33,1.58
		c-0.53,0.07-1.11,0.16-1.78,0.27c-3.18,0.53-4.11,1.47-4.31,1.73v8.08c8.19,0.02,8.54-0.16,9.95-0.96
		c0.47-0.25,1.06-0.58,2.02-0.98c0.86-0.35,1.69-0.75,2.51-1.18c0.09-0.22,0.27-0.87-0.25-1.33c-0.22-0.18-0.51-0.29-0.89-0.35
		c-0.56-0.07-1.16,0.07-1.73,0.38c-1.47,0.82-1.77,0.98-1.89,1c-0.02,0.02-0.05,0.04-0.11,0.05c-0.36,0.18-1.26,0.6-2.37,0.55
		c-0.18,0-0.33-0.16-0.31-0.35c0-0.18,0.16-0.33,0.35-0.31c0.95,0.04,1.73-0.33,2.06-0.49c0.11-0.05,0.18-0.09,0.25-0.11
		c0.07-0.04,0.38-0.18,1.71-0.93c0.69-0.38,1.42-0.55,2.13-0.45c0.51,0.05,0.93,0.22,1.24,0.49c0.49,0.42,0.6,0.95,0.56,1.42
		c0.75-0.42,1.49-0.86,2.2-1.33c0.31-0.22,0.66-0.42,1-0.64c1.27-0.8,2.73-1.71,3.55-2.91c0.24-0.35,0.45-0.73,0.64-1.11
		c0.04-0.09,0.07-0.16,0.11-0.25c0.27-0.66,0.25-1.22-0.02-1.49C35.96,30.26,35.47,30.24,34.85,30.5L34.85,30.5z"/>
	<path class="st0" d="M9.21,31.35h-4.2v12.3h4.59V31.72C9.59,31.52,9.43,31.35,9.21,31.35L9.21,31.35z"/>
	<path class="st0" d="M12.91,33.61v8.52c0,0.67-0.55,1.2-1.22,1.2h-1.51V32.32h1.51c0.67,0,1.22,0.55,1.22,1.2V33.61L12.91,33.61z"
		/>
</g>
</svg>
