<?xml version="1.0" encoding="utf-8"?>
<!-- Generator: Adobe Illustrator 27.5.0, SVG Export Plug-In . SVG Version: 6.00 Build 0)  -->
<svg version="1.1" id="Layer_1" xmlns="http://www.w3.org/2000/svg" xmlns:xlink="http://www.w3.org/1999/xlink" x="0px" y="0px"
	 viewBox="0 0 50 50" style="enable-background:new 0 0 50 50;" xml:space="preserve">
<style type="text/css">
	.st0{fill:#406CA9;}
	.st1{fill:#86BF46;}
	.st2{fill:#1FAB55;}
</style>
<path class="st0" d="M45.49,25.42c-0.06,0.11-0.17,0.16-0.18,0.23c-0.43,2.36-1.41,4.45-2.95,6.3c-1.35,1.63-3,2.85-4.91,3.72
	c-1.39,0.64-2.85,1.07-4.4,1.11c-2.14,0.05-4.27,0.08-6.41,0.09c-0.41,0-0.59,0.12-0.7,0.52c-0.54,1.95-1.1,3.9-1.66,5.86
	c-3.79,0-7.55,0-11.37,0c1.09-3.55,2.18-7.09,3.29-10.67c0.02-0.04,0.07-0.06,0.11-0.04c0.54,0.1,1.05,0.26,1.55,0.27
	c2.98,0.02,5.96,0,8.95,0.01c0.4,0,0.56-0.14,0.68-0.51c1.1-3.64,2.2-7.27,3.32-10.91c0.94-3.05,1.9-6.09,2.84-9.14
	c0.26-0.84,0.48-1.7,0.74-2.56c0.04-0.01,0.05-0.02,0.11-0.02c0.07,0.01,0.11,0,0.14,0.01c3.05,0.7,5.63,2.16,7.66,4.58
	c1.57,1.88,2.61,3.99,3.01,6.41c0.01,0.05,0.12,0.09,0.18,0.14C45.49,22.34,45.49,23.86,45.49,25.42z"/>
<path class="st1" d="M16.27,32.52c0,0-0.05,0.01-0.07,0.02c-0.91-0.26-1.83-0.45-2.68-0.79c-1.76-0.7-3.31-1.77-4.6-3.16
	c-1.78-1.91-3.04-4.13-3.47-6.73c-0.18-1.11-0.31-2.25-0.28-3.37c0.07-2.28,0.74-4.42,1.89-6.39c0.73-1.26,1.66-2.39,2.77-3.33
	c1.74-1.5,3.72-2.54,5.98-3.04c0.27-0.06,0.54-0.14,0.78-0.25c6.37-0.04,12.75-0.04,19.18,0c0.01,0.08-0.02,0.11-0.03,0.16
	c-0.42,1.35-0.84,2.7-1.26,4.05c-0.02,0-0.03,0.01-0.11,0.01c-0.59-0.07-1.12-0.19-1.64-0.19c-2.9-0.02-5.8-0.01-8.7-0.04
	c-0.49,0-0.7,0.15-0.84,0.62c-1.9,6.22-3.82,12.44-5.74,18.66C17.04,30,16.65,31.26,16.27,32.52z"/>
<path class="st2" d="M16.3,32.54c0.35-1.28,0.73-2.54,1.12-3.8c1.92-6.22,3.84-12.43,5.74-18.66c0.14-0.47,0.35-0.62,0.84-0.62
	c2.9,0.03,5.8,0.01,8.7,0.04c0.53,0,1.05,0.12,1.62,0.2c-0.2,0.86-0.42,1.72-0.68,2.56c-0.94,3.05-1.91,6.09-2.84,9.14
	c-1.12,3.63-2.22,7.27-3.32,10.91c-0.11,0.37-0.28,0.51-0.68,0.51c-2.98-0.01-5.96,0.01-8.95-0.01
	C17.35,32.8,16.85,32.64,16.3,32.54z"/>
</svg>
