<?xml version="1.0" encoding="utf-8"?>
<!-- Generator: Adobe Illustrator 27.5.0, SVG Export Plug-In . SVG Version: 6.00 Build 0)  -->
<svg version="1.1" id="Layer_1" xmlns="http://www.w3.org/2000/svg" xmlns:xlink="http://www.w3.org/1999/xlink" x="0px" y="0px"
	 viewBox="0 0 50 50" style="enable-background:new 0 0 50 50;" xml:space="preserve">
<style type="text/css">
	.st0{fill:#C6C6C5;}
</style>
<path class="st0" d="M19.38,6.82c-0.4,0.04-0.78,0.12-1.16,0.24L11.34,9.4c-2.7,0.92-4.52,3.46-4.52,6.3v22.84
	c0,2.64,2.66,4.56,5.16,3.7l6.86-2.34c0.38-0.14,0.74-0.16,1.1-0.14s0.7,0.08,1.04,0.2c2.46,1,4.94,2.02,7.04,2.88
	c0.7,0.3,1.36,0.34,2.06,0.32s1.4-0.18,2.02-0.48c2.32-1.18,4.62-2.36,6.94-3.54c2.54-1.3,4.14-3.92,4.16-6.78V11.6
	c0-2.16-1.78-3.94-3.94-3.92c-0.42,0-0.82,0.08-1.22,0.2c-2.3,0.78-4.58,1.56-6.86,2.34c-0.34,0.1-0.7,0.14-1.04,0.14h-0.02h-0.02
	c-0.36,0-0.7-0.08-1.04-0.2c-2.44-1-4.88-2-7.32-3c-0.56-0.22-1.14-0.32-1.74-0.34C19.75,6.82,19.56,6.84,19.38,6.82L19.38,6.82z
	 M20.95,9.06c2.56,1.04,5.16,2.1,7.34,3c0.24,0.1,0.5,0.08,0.74,0.14v28.82c-0.1-0.02-0.2,0-0.3-0.04c-2.34-0.96-4.7-1.92-7.04-2.88
	c-0.24-0.1-0.5-0.08-0.74-0.14V9.06z"/>
</svg>
