<?xml version="1.0" encoding="utf-8"?>
<!-- Generator: Adobe Illustrator 27.5.0, SVG Export Plug-In . SVG Version: 6.00 Build 0)  -->
<svg version="1.1" id="Layer_1" xmlns="http://www.w3.org/2000/svg" xmlns:xlink="http://www.w3.org/1999/xlink" x="0px" y="0px"
	 viewBox="0 0 620 768" style="enable-background:new 0 0 620 768;" xml:space="preserve">
<style type="text/css">
	.st0{fill:url(#SVGID_1_);}
	.st1{opacity:0.3;clip-path:url(#SVGID_00000135670860369977455550000000121771207302658221_);}
	.st2{fill:#FFFFFF;}
	.st3{fill:#FCFDFF;}
	.st4{fill:#F7FBFF;}
	.st5{fill:#F4FAFD;}
	.st6{fill:#F2F9FD;}
	.st7{fill:#EEF8FD;}
	.st8{fill:#EBF7FD;}
	.st9{fill:#E8F6FD;}
	.st10{fill:#E5F5FC;}
	.st11{fill:#E2F3FC;}
	.st12{fill:#DFF2FC;}
	.st13{fill:#DCF1FC;}
	.st14{fill:#D9F0FC;}
	.st15{fill:#D4EEFB;}
	.st16{fill:#D0EDFA;}
	.st17{fill:#CDECFB;}
	.st18{fill:#CBEBFB;}
	.st19{fill:#C9EAFB;}
	.st20{fill:#C5E9FA;}
	.st21{fill:#C2E8FA;}
	.st22{fill:#BFE7FA;}
	.st23{fill:#BCE6FA;}
	.st24{clip-path:url(#SVGID_00000135670860369977455550000000121771207302658221_);}
	.st25{fill:url(#SVGID_00000049914392622898117010000015124442203128636303_);}
	.st26{opacity:0.3;fill:#F0F5FB;}
	.st27{fill:#F0F5FB;}
</style>
<linearGradient id="SVGID_1_" gradientUnits="userSpaceOnUse" x1="106.4091" y1="383.7319" x2="514.3583" y2="383.7319">
	<stop  offset="0" style="stop-color:#0093C7"/>
	<stop  offset="1" style="stop-color:#3E6DAA"/>
</linearGradient>
<path class="st0" d="M500.7,604.44H120.07c-7.51,0-13.66-6.15-13.66-13.66v-414.1c0-7.51,6.15-13.66,13.66-13.66H500.7
	c7.51,0,13.66,6.15,13.66,13.66v414.1C514.36,598.29,508.21,604.44,500.7,604.44z"/>
<g>
	<defs>
		<path id="SVGID_00000000922467464494770230000011975342708987977891_" d="M500.7,604.44H120.07c-7.51,0-13.66-6.15-13.66-13.66
			v-414.1c0-7.51,6.15-13.66,13.66-13.66H500.7c7.51,0,13.66,6.15,13.66,13.66v414.1C514.36,598.29,508.21,604.44,500.7,604.44z"/>
	</defs>
	<clipPath id="SVGID_00000180354371713123393850000009866922572739483264_">
		<use xlink:href="#SVGID_00000000922467464494770230000011975342708987977891_"  style="overflow:visible;"/>
	</clipPath>
	<g style="opacity:0.3;clip-path:url(#SVGID_00000180354371713123393850000009866922572739483264_);">
		<g>
			<path class="st2" d="M-639.31,2034.92c34.76,0,69.93-6.67,104.12-20.27c94.6-37.61,158.31-121.99,166.28-220.21
				c7.93-97.77-38.22-184.72-82.85-268.81c-32.61-61.45-66.34-124.99-79.21-192.71c-17.37-91.42,6.71-172.04,64.44-215.67
				c64.69-48.88,162.89-46.33,269.44,7.03c22.81,11.42,45.62,24.34,67.68,36.84c58.51,33.14,119,67.4,186.16,77.63
				c116.57,17.76,239.27-45.99,291.75-151.58c52.48-105.58,29.23-241.89-55.29-324.1l-3,3.09
				c83.22,80.94,106.11,215.14,54.44,319.09c-51.67,103.95-172.47,166.72-287.25,149.24c-66.37-10.11-126.52-44.18-184.68-77.12
				c-22.1-12.52-44.96-25.47-67.87-36.94c-108.06-54.11-207.92-56.52-273.97-6.61c-59.06,44.64-83.76,126.84-66.07,219.91
				c12.99,68.37,46.87,132.2,79.63,193.93c44.34,83.55,90.2,169.94,82.37,266.45c-7.84,96.58-70.52,179.56-163.58,216.56
				c-99.52,39.56-207.42,19.54-288.62-53.57c-36.79-33.12-64.88-75.56-92.04-116.59c-29.24-44.18-59.48-89.86-100.72-124.2
				c-113.91-94.86-266.36-83.74-413.78-72.99c-67.43,4.92-131.12,9.57-190.11,4.28c-119.83-10.73-215.23-61.72-261.75-139.91
				c-48.1-80.85-40.8-180.52-33.74-276.91c7.31-99.89,14.87-203.18-39.38-285.43c-42.19-63.96-112.84-100.21-181.17-135.27
				c-65.5-33.6-133.22-68.35-175.68-127.43c-65.1-90.58-49.29-229.27,34.54-302.87l-2.84-3.23
				c-85.42,74.99-101.53,216.31-35.2,308.61c43.07,59.93,111.27,94.92,177.21,128.75c67.83,34.8,137.97,70.79,179.54,133.81
				c53.45,81.02,45.94,183.57,38.68,282.74c-7.11,97.06-14.45,197.41,34.34,279.42c47.23,79.39,143.85,131.15,265.07,142
				c59.34,5.31,123.19,0.65,190.8-4.27c146.57-10.69,298.14-21.74,410.72,72c40.75,33.94,70.81,79.35,99.88,123.27
				c27.31,41.26,55.55,83.92,92.75,117.41C-773.73,2009.41-707.29,2034.92-639.31,2034.92z"/>
			<path class="st3" d="M-651.52,2015.21c62.65,0.01,125.11-22.62,176.72-67.76c51.32-44.89,83.28-106.46,89.99-173.36
				c9.66-95.86-31.57-180.33-71.45-262.02c-9.21-18.86-18.73-38.36-27.45-57.66c-22.14-49.02-34.66-87.68-40.6-125.33
				c-13.74-87.06,10.78-160.74,67.28-202.16c64.49-47.28,161.92-44.31,267.28,8.16c22.48,11.17,44.97,23.77,66.73,35.96
				c57.8,32.38,117.57,65.87,183.69,76.36c113.7,18.02,235.31-41.51,289.11-141.6c53.36-99.32,36.04-229.58-41.19-309.72l-3.1,2.99
				c75.97,78.84,93,206.98,40.49,304.7c-52.96,98.53-172.66,157.16-284.64,139.39c-65.35-10.37-124.78-43.66-182.26-75.86
				c-21.8-12.21-44.34-24.84-66.91-36.06c-106.85-53.21-205.91-56.05-271.75-7.77c-57.84,42.4-82.98,117.59-68.98,206.3
				c6,38.05,18.63,77.04,40.93,126.43c8.74,19.36,18.28,38.89,27.5,57.78c39.61,81.15,80.58,165.05,71.04,259.7
				c-6.6,65.81-38.05,126.38-88.54,170.55c-100.05,87.51-241.61,89.02-344.25,3.67c-34.3-28.52-61.07-64.09-89.42-101.74
				c-30.92-41.07-62.89-83.54-105.95-117c-88.17-68.52-199.79-80.72-287.18-83.69c-42.02-1.42-84.77-0.37-126.1,0.65
				c-65.99,1.64-128.31,3.17-186.54-4.67c-9.47-1.24-19-2.76-28.32-4.51c-61.73-11.6-174.39-44.92-235.4-137.68
				c-11.32-17.2-20.66-36.1-27.77-56.19c-21.9-61.71-20.68-127.54-19.39-197.23c0.18-9.51,0.35-19.06,0.47-28.63
				c1.15-87.43-1.91-179.12-51.87-254.72c-40.92-61.98-108.66-97.79-174.17-132.41c-63.07-33.33-128.29-67.8-169.25-125.55
				c-62.2-87.7-47.89-222.59,31.27-294.57l-2.9-3.18c-80.68,73.37-95.28,210.86-31.88,300.24c41.55,58.59,107.23,93.3,170.75,126.87
				c65.04,34.37,132.28,69.91,172.59,130.98c49.34,74.64,52.35,161.93,51.16,252.29c-0.11,9.56-0.29,19.1-0.47,28.6
				c-1.3,70.1-2.53,136.31,19.63,198.75c7.23,20.41,16.72,39.63,28.23,57.12c61.89,94.09,175.81,127.82,238.21,139.55
				c9.4,1.77,19.01,3.3,28.55,4.55c58.56,7.88,121.05,6.35,187.21,4.71c41.27-1.03,83.96-2.08,125.85-0.65
				c86.74,2.95,197.49,15.02,284.69,82.78c42.6,33.1,74.4,75.34,105.15,116.19c28.5,37.86,55.42,73.62,90.1,102.46
				C-773.28,1993.9-712.31,2015.2-651.52,2015.21z"/>
			<path class="st4" d="M-665.46,1995.81c62.51,0,124.76-23.91,176.21-71.17c49.26-45.27,80.7-105.96,88.53-170.91
				c11.39-93.87-24.81-175.76-59.83-254.96c-7.87-17.79-16-36.2-23.4-54.33c-18.91-46.41-29.3-83.17-33.69-119.2
				c-9.92-81.41,15.61-150.22,70.07-188.78c64.36-45.57,161.01-42.14,265.16,9.42c22.14,10.92,44.32,23.21,65.76,35.08
				c57.11,31.64,116.16,64.35,181.23,75.1c110.88,18.33,231.37-37.03,286.47-131.62c54.16-93.05,42.77-217.27-27.07-295.35
				l-3.21,2.87c68.63,76.73,79.81,198.83,26.56,290.32c-54.23,93.1-172.84,147.58-282.04,129.54
				c-64.34-10.62-123.06-43.16-179.84-74.61c-21.49-11.91-43.71-24.21-65.94-35.18c-105.61-52.28-203.86-55.6-269.56-9.07
				c-55.79,39.51-81.98,109.79-71.85,192.82c4.44,36.42,14.92,73.52,33.98,120.3c7.42,18.19,15.57,36.62,23.45,54.44
				c34.78,78.67,70.74,160.01,59.5,252.7c-7.7,63.94-38.66,123.69-87.17,168.26c-94.24,86.58-225.34,93.49-326.23,17.19
				c-32.11-24.29-58.9-55.25-87.26-88.03c-32.45-37.52-66.02-76.31-110.7-108.65c-87.61-63.4-194.73-79.84-287.96-87.57
				c-41.66-3.45-83.85-4.56-124.64-5.64c-64.6-1.7-125.61-3.3-183.16-13.5c-10.19-1.8-19.35-3.63-27.99-5.59
				c-61.13-13.83-173.3-50.25-237.71-138.89c-11.93-16.4-22.08-34.27-30.18-53.12c-24.51-56.8-27.1-116.35-29.85-179.4
				c-0.43-9.85-0.86-19.77-1.38-29.79c-4.2-84.48-12.5-173.29-62.57-248.89c-39.63-59.99-104.46-95.34-167.16-129.53
				c-60.66-33.07-123.38-67.27-162.84-123.7c-59.33-84.81-46.51-215.91,27.99-286.27l-2.95-3.13
				c-75.96,71.75-89.04,205.4-28.56,291.87c40.04,57.26,103.21,91.7,164.3,125.02c62.23,33.93,126.58,69.02,165.63,128.12
				c49.48,74.7,57.69,162.85,61.87,246.74c0.52,10.01,0.95,19.92,1.38,29.76c2.77,63.46,5.38,123.4,30.2,180.91
				c8.23,19.14,18.54,37.3,30.66,53.96c65.23,89.78,178.52,126.6,240.24,140.56c8.71,1.97,17.93,3.82,28.19,5.63
				c57.87,10.25,119.03,11.86,183.79,13.56c40.74,1.07,82.86,2.18,124.4,5.62c92.64,7.68,199.03,23.99,285.79,86.77
				c44.28,32.04,77.67,70.64,109.97,107.98c28.51,32.96,55.44,64.09,87.92,88.65C-773.48,1978.02-719.37,1995.81-665.46,1995.81z"/>
			<path class="st5" d="M-679.39,1976.55c62.51,0,124.51-25.25,175.68-74.72c47.23-45.67,78.15-105.49,87.06-168.46
				c13.12-91.73-17.93-170.93-47.97-247.52c-6.61-16.85-13.44-34.28-19.59-51.37c-15.5-43.16-24.01-79.09-26.8-113.07
				c-6.21-75.84,20.34-139.83,72.84-175.56c64.28-43.75,160.17-39.81,263.07,10.83c21.8,10.67,43.65,22.63,64.79,34.2
				c56.41,30.89,114.75,62.83,178.78,73.83c109.81,18.89,226.52-31.12,283.82-121.64c54.86-86.77,49.42-204.94-12.95-280.97
				l-3.33,2.73c61.22,74.64,66.54,190.69,12.64,275.94c-56.39,89.08-171.32,138.31-279.45,119.69
				c-63.33-10.89-121.34-42.65-177.44-73.36c-21.17-11.59-43.07-23.58-64.96-34.29c-104.33-51.33-201.79-55.17-267.4-10.52
				c-53.82,36.63-81.05,102.05-74.7,179.48c2.82,34.37,11.41,70.64,27.03,114.17c6.17,17.16,13.02,34.61,19.64,51.49
				c29.83,76.07,60.68,154.73,47.72,245.34c-8.79,62.03-39.26,120.97-85.8,165.98c-88.25,85.32-209.23,97.37-308.22,30.7
				c-30.43-20.5-57.51-47.37-86.18-75.81c-33.68-33.42-68.51-67.97-114.36-98.79c-86.65-58.25-189.98-78.38-288.74-91.45
				c-41.01-5.43-82.35-8.68-122.33-11.82c-63.52-4.99-123.51-9.71-180.63-22.42c-10.67-2.37-19.46-4.5-27.66-6.67
				c-60.54-16.06-172.23-55.61-240.01-140.11c-12.52-15.59-23.49-32.43-32.61-50.07c-27.34-52.61-33.57-106.71-40.18-163.99
				c-1.08-9.38-2.17-18.88-3.38-28.54c-10.33-85.48-23.71-168.39-73.26-243.05c-38.35-57.99-100.25-92.87-160.12-126.61
				c-58.25-32.82-118.48-66.76-156.45-121.88c-57.43-83.35-46.34-208.04,24.72-277.98l-3.02-3.07
				c-72.48,71.33-83.8,198.5-25.24,283.49c38.53,55.94,99.2,90.13,157.88,123.19c59.42,33.48,120.87,68.11,158.64,125.24
				c49.03,73.88,62.31,156.24,72.58,241.19c1.2,9.65,2.29,19.14,3.37,28.51c6.65,57.68,12.93,112.17,40.63,165.48
				c9.24,17.89,20.37,34.97,33.07,50.78c68.56,85.45,181.21,125.38,242.27,141.57c8.26,2.19,17.1,4.33,27.83,6.72
				c57.41,12.77,117.55,17.5,181.23,22.51c39.92,3.14,81.2,6.38,122.1,11.8c98.24,13.01,200.98,33.01,286.9,90.76
				c45.51,30.59,80.19,65,113.72,98.28c28.82,28.6,56.04,55.6,86.81,76.33C-774,1962.18-726.55,1976.55-679.39,1976.55z"/>
			<path class="st6" d="M-693.61,1957.5c62.83,0,124.63-26.66,175.46-78.48c45.86-46.76,75.46-104.16,85.6-166.01
				c14.83-89.43-10.96-165.79-35.9-239.63c-5.42-16.05-11.03-32.65-16-48.85c-12.37-40.48-18.7-74.46-19.9-106.94
				c-2.6-70.36,24.95-129.6,75.59-162.53c65.21-42.41,157.9-38,261,12.4c21.46,10.41,42.98,22.05,63.79,33.31
				c55.73,30.15,113.34,61.31,176.35,72.58c106.96,19.16,222.58-26.76,281.16-111.65c55.46-80.48,55.96-192.59,1.19-266.57
				l-3.46,2.56c53.71,72.55,53.17,182.56-1.28,261.57c-57.65,83.54-171.5,128.71-276.86,109.86
				c-62.32-11.15-119.63-42.15-175.06-72.13c-20.85-11.28-42.42-22.95-63.96-33.4c-104.5-51.09-198.7-55.4-265.23-12.14
				c-51.94,33.77-80.2,94.38-77.54,166.29c1.21,32.86,7.59,67.19,20.08,108.04c4.99,16.26,10.6,32.89,16.04,48.96
				c24.77,73.34,50.38,149.19,35.73,237.55c-12.63,77.03-52.89,131.53-84.43,163.69c-82.12,83.72-193.33,100.65-290.24,44.19
				c-29.64-17.26-57.79-40.81-87.6-65.74c-32.61-27.28-69.58-58.19-115.5-86.79c-80.09-49.87-173.66-74.18-289.51-95.33
				c-40.1-7.32-80.35-12.67-119.28-17.85c-62.7-8.33-121.92-16.21-178.83-31.51c-8.05-2.16-17.59-4.78-27.33-7.76
				c-59.96-18.3-171.17-60.99-242.33-141.32c-13.08-14.74-24.87-30.56-35.04-47.02c-30.89-49.66-40.31-97.38-51.22-152.64
				c-1.5-7.6-3.03-15.34-4.64-23.23l-0.34-1.67c-14.44-70.64-32.4-158.54-83.59-235.51c-37.05-55.98-96.02-90.39-153.06-123.66
				c-55.85-32.58-113.61-66.27-150.08-120.1c-54.53-80.42-44.91-201.4,21.44-269.69l-3.09-3c-67.7,69.68-77.53,193.09-21.92,275.1
				c37.02,54.64,95.21,88.58,151.48,121.4c56.61,33.02,115.15,67.17,151.64,122.32c50.72,76.28,67.85,160.07,82.96,233.99l0.34,1.68
				c1.61,7.88,3.14,15.61,4.64,23.2c11,55.67,20.49,103.75,51.79,154.08c10.3,16.66,22.24,32.68,35.48,47.61
				c71.85,81.11,183.9,124.15,244.29,142.58c9.8,3,19.39,5.62,27.47,7.8c57.18,15.37,116.53,23.27,179.38,31.62
				c38.88,5.17,79.08,10.51,119.07,17.82c115.37,21.06,208.5,45.24,288.01,94.75c45.66,28.43,82.5,59.25,115.01,86.43
				c29.95,25.05,58.23,48.7,88.19,66.16C-774.97,1946.44-734.08,1957.5-693.61,1957.5z"/>
			<path class="st7" d="M-708.61,1938.83c63.7,0,125.5-28.2,176.01-82.63c43.83-47.24,72.93-103.79,84.14-163.54
				c16.5-86.87-3.91-160.21-23.64-231.13c-4.5-16.16-8.74-31.42-12.59-46.93c-9.3-37.73-13.44-69.76-13-100.81
				c0.9-64.99,29.46-119.55,78.35-149.69c65.27-40.23,157.23-35.21,258.93,14.16c21.11,10.16,42.31,21.48,62.8,32.42
				c55.03,29.39,111.94,59.79,173.91,71.32c104.14,19.4,218.65-22.41,278.5-101.66c55.93-74.19,62.38-180.25,15.34-252.17l-3.6,2.35
				c46.08,70.46,39.7,174.43-15.17,247.22c-58.9,78-171.7,119.13-274.27,100.02c-61.32-11.41-117.93-41.65-172.67-70.89
				c-20.53-10.97-41.77-22.31-62.96-32.5c-103.06-50.04-196.49-54.99-263.06-13.95c-50.17,30.93-79.47,86.8-80.39,153.29
				c-0.44,31.42,3.74,63.81,13.13,101.9c3.87,15.57,8.32,31.57,12.62,47.05c19.6,70.45,39.86,143.29,23.55,229.18
				c-13.98,74.48-52.88,128.89-83.06,161.42c-75.88,81.76-177.67,103.32-272.28,57.69c-30.74-14.83-60.67-35.45-95.32-59.34
				c-31.48-21.7-67.15-46.29-110.31-71.1c-84.99-48.87-185.81-74.81-290.29-99.2c-38.86-9.07-77.72-16.43-115.3-23.54
				c-62.21-11.78-120.97-22.9-177.97-40.93c-8.69-2.75-17.93-5.69-27-8.84c-59.4-20.56-170.16-66.41-244.64-142.53
				c-13.59-13.87-26.2-28.66-37.49-43.98c-35.18-47.39-47.7-89.83-63.54-143.57l-4.64-15.67c-1.79-5.99-3.59-12.12-5.43-18.37
				c-18.6-63.17-41.75-141.79-89.16-212.95c-35.74-53.95-91.78-87.86-145.97-120.65c-53.46-32.35-108.75-65.81-143.74-118.36
				c-51.65-77.49-43.49-194.76,18.17-261.4l-3.16-2.93c-62.93,68.02-71.27,187.67-18.59,266.72
				c35.52,53.35,91.22,87.06,145.09,119.65c53.79,32.55,109.41,66.2,144.61,119.35c47.05,70.62,70.09,148.89,88.61,211.78
				c1.84,6.26,3.65,12.39,5.44,18.38l4.64,15.65c15.97,54.15,28.58,96.91,64.21,144.91c11.4,15.47,24.14,30.42,37.87,44.43
				c75.1,76.75,186.55,122.9,246.31,143.59c9.13,3.16,18.4,6.12,27.11,8.88c57.24,18.11,116.12,29.25,178.47,41.06
				c37.53,7.11,76.34,14.45,115.12,23.5c104.15,24.32,204.64,50.16,289.12,98.74c43.01,24.73,78.61,49.27,110.01,70.92
				c34.8,23.99,64.85,44.7,95.89,59.67C-776.55,1930.93-742.31,1938.83-708.61,1938.83z"/>
			<path class="st8" d="M-723.71,1921.27c64.95,0.01,125.82-29.85,176.66-87.89c41.83-47.77,70.42-103.48,82.67-161.08
				c18.08-83.99,3.16-154.08-11.27-221.86c-3.36-15.79-6.54-30.7-9.29-45.76c-6.31-34.92-8.25-65-6.12-94.68
				c4.35-60.48,33.06-109.07,80.84-136.8c65.33-37.93,156.64-32.3,257.12,15.87c20.38,9.77,40.87,20.58,60.69,31.04
				c54.7,28.85,111.26,58.69,172.6,70.56c102.92,19.95,213.76-16.89,275.83-91.66c56.25-67.92,68.66-167.9,29.5-237.74l-3.76,2.11
				c38.32,68.35,26.1,166.29-29.06,232.88c-61.09,73.6-170.27,109.85-271.7,90.19C20.31,1274.69-35.96,1245-90.38,1216.3
				c-19.86-10.48-40.39-21.31-60.84-31.11c-101.81-48.79-194.54-54.37-261.15-15.71c-49.05,28.48-78.52,78.27-82.97,140.22
				c-2.16,30.05-0.2,60.48,6.17,95.76c2.76,15.12,5.94,30.07,9.31,45.89c14.34,67.34,29.16,136.97,11.27,220.06
				c-15.28,71.88-52.86,126.22-81.7,159.15c-70.64,80.66-160.97,105.94-254.36,71.18c-37.37-13.91-75.94-35.45-124.76-62.71
				c-24.47-13.67-52.2-29.16-83.36-45.64c-82.73-43.76-177.99-70.88-278.85-99.6l-12.21-3.48c-37.18-10.59-74.22-19.77-110.04-28.65
				c-62.17-15.4-120.89-29.95-178.37-50.93l-2-0.73c-8.15-2.97-16.4-5.98-24.67-9.2c-58.86-22.84-169.21-71.87-246.96-143.75
				c-13.83-12.75-26.89-26.15-39.95-40.94c-41.57-47.13-57.68-86.64-79.97-141.31l-0.53-1.29c-4.97-12.2-10-25.18-15.31-38.92
				c-21.26-54.93-47.71-123.28-89.9-186.5c-34.41-51.9-87.5-85.3-138.84-117.6c-51.09-32.14-103.92-65.38-137.44-116.67
				c-49.61-75.83-43.06-187.02,14.9-253.13l-3.24-2.84c-59.17,67.49-65.87,180.95-15.26,258.32
				c34.03,52.08,87.27,85.57,138.75,117.96c50.95,32.06,103.65,65.21,137.55,116.34c41.94,62.83,67.19,128.09,89.47,185.67
				c5.32,13.76,10.35,26.75,15.34,38.99l0.53,1.29c22.46,55.07,38.68,94.86,80.73,142.53c13.15,14.9,26.32,28.4,40.25,41.26
				c78.28,72.35,189.18,121.65,248.32,144.59c8.3,3.23,16.58,6.24,24.76,9.23l2,0.73c57.7,21.06,116.53,35.64,178.81,51.07
				c35.79,8.87,72.79,18.04,109.9,28.62l12.21,3.47c100.64,28.65,195.7,55.71,278.02,99.26c31.11,16.46,58.82,31.94,83.28,45.59
				c48.99,27.36,87.68,48.97,125.36,62.99C-778.26,1916.14-750.62,1921.27-723.71,1921.27z"/>
			<path class="st9" d="M-737.97,1911.24c59.66,0,122.26-34.9,176.47-100.67c39.89-48.41,67.97-103.26,81.2-158.61
				c19.52-80.6,9.72-150.13,1.07-211.48c-2.23-15.8-4.33-30.73-5.97-45.68c-3.37-31.57-3.12-60.54,0.77-88.56
				c7.67-55.28,37.38-99.47,83.67-124.43c65.54-35.35,156.1-28.94,254.99,18.06c19.96,9.49,40.06,19.94,59.5,30.06
				c54.07,28.14,109.99,57.24,170.37,69.4c100.1,20.17,209.86-12.65,273.15-81.67c57.32-62.66,75.28-154.47,43.68-223.29l-3.91,1.8
				c30.9,67.28,13.24,157.17-42.94,218.58c-62.31,67.95-170.47,100.24-269.13,80.36c-59.78-12.03-115.42-40.99-169.23-68.99
				c-19.47-10.13-39.6-20.61-59.63-30.13c-100.16-47.6-192.1-53.98-258.89-17.96c-47.52,25.63-78.03,70.96-85.89,127.63
				c-3.94,28.38-4.2,57.7-0.78,89.62c1.64,15.02,3.75,29.98,5.98,45.82c8.59,60.96,18.33,130.06-1,209.87
				c-13.08,54.73-40.86,108.97-80.34,156.88c-73.04,88.62-161.3,120.32-236.08,84.81l-0.82-0.2c-43.3-2.16-88.88-25.25-151.97-57.19
				c-18.29-9.26-37.2-18.84-58.19-29.01c-69.22-33.54-147.01-59.13-229.36-86.22c-20.68-6.8-41.54-13.66-62.48-20.73
				c-34.78-11.73-69.32-22.38-102.73-32.69c-62.84-19.38-122.18-37.69-180.84-62.01l-5.94-2.46c-6.75-2.79-13.56-5.6-20.4-8.55
				c-58.37-25.15-168.38-77.43-249.29-144.96c-13.7-11.41-27.18-23.45-42.42-37.89c-43.97-41.68-64.17-72.55-92.84-126
				c-9.94-18.53-20.14-39.99-30.93-62.7c-23.02-48.43-49.12-103.33-84.89-156.82c-33.08-49.83-83.2-82.7-131.68-114.48
				c-48.73-31.95-99.12-64.99-131.17-115.05c-46.71-72.86-41.6-180.42,11.63-244.86l-3.32-2.74
				c-54.35,65.8-59.6,175.58-11.94,249.92c32.54,50.83,83.33,84.13,132.44,116.33c48.11,31.55,97.86,64.17,130.46,113.27
				c35.6,53.24,61.62,107.98,84.58,156.28c10.82,22.76,21.04,44.27,31.03,62.89c28.89,53.87,49.27,85,93.67,127.09
				c15.3,14.51,28.84,26.61,42.62,38.08c81.32,67.88,191.75,120.36,250.34,145.6c6.86,2.96,13.7,5.78,20.47,8.58l5.94,2.46
				c58.84,24.4,118.28,42.73,181.21,62.15c33.38,10.3,67.9,20.94,102.62,32.66c20.95,7.07,41.82,13.93,62.51,20.74
				c82.21,27.04,159.87,52.58,228.83,86c20.96,10.16,39.85,19.72,58.12,28.98c63.35,32.08,109.18,55.3,153.27,57.63
				C-781.68,1906.46-760.02,1911.24-737.97,1911.24z"/>
			<path class="st10" d="M-750.96,1896.35c58.52,0.01,120.17-37.68,175.02-108.61c38.01-49.17,65.58-103.16,79.73-156.14
				c20.7-76.52,16.68-141.91,13.12-199.6c-1.01-16.35-1.96-31.79-2.36-47.07c-0.67-28.6,1.83-55.57,7.65-82.45
				c10.88-50.23,41.64-90.13,86.64-112.35c65.84-32.51,155.6-25.22,252.74,20.53c19.53,9.2,39.22,19.3,58.25,29.07
				c53.47,27.44,108.75,55.8,168.18,68.24c97.28,20.39,205.98-8.41,270.47-71.67c66.84-65.75,76.84-154.33,57.86-208.8l-4.06,1.42
				c18.56,53.23,8.69,139.87-56.81,204.31c-63.5,62.3-170.62,90.64-266.56,70.53c-58.86-12.32-113.89-40.55-167.1-67.86
				c-19.07-9.78-38.79-19.9-58.38-29.13c-98.35-46.32-189.44-53.61-256.48-20.5c-46.19,22.81-77.78,63.76-88.94,115.3
				c-5.89,27.21-8.43,54.52-7.75,83.47c0.41,15.37,1.36,30.84,2.37,47.23c3.53,57.36,7.54,122.38-12.98,198.22
				c-14,52.44-41.31,105.9-78.98,154.62c-68.9,89.11-148.4,124.95-218.13,98.31l-0.5-0.19l-0.53,0.07
				c-52.29,6.53-115.19-21.25-210.38-63.29l-2.09-0.92c-52.47-23.18-109.66-43.74-170.21-65.52
				c-39.86-14.34-81.08-29.16-122.41-45.29c-31.05-12.12-61.83-23.55-91.59-34.6c-64.83-24.06-126.06-46.79-187.12-75.22l-8.96-4.15
				c-5.65-2.61-11.35-5.24-17.06-7.95c-58.01-27.54-167.84-83.15-251.61-146.17c-14.81-11.11-28.41-21.84-40.41-31.3l-4.49-3.54
				c-50.52-39.81-74.11-64.35-105.18-109.4c-16.78-24.33-34.2-55.83-52.63-89.19c-21.25-38.44-45.33-82.01-73.76-124.44
				c-31.72-47.73-78.87-80.04-124.46-111.27c-46.39-31.79-94.36-64.65-124.96-113.52c-44.57-71.06-40.97-172.77,8.37-236.59
				l-3.41-2.63c-50.38,65.18-54.09,169-8.61,241.51c31.07,49.62,79.42,82.75,126.17,114.78c45.26,31.01,92.05,63.07,123.31,110.11
				c28.33,42.29,52.37,85.77,73.57,124.13c18.49,33.45,35.96,65.05,52.86,89.55c31.36,45.46,55.15,70.21,106.06,110.33l4.48,3.54
				c12.02,9.48,25.64,20.23,40.49,31.36c84.07,63.24,194.19,119,252.35,146.62c5.73,2.72,11.44,5.36,17.1,7.97l8.94,4.14
				c61.22,28.51,122.53,51.27,187.44,75.36c29.75,11.04,60.51,22.46,91.53,34.57c41.38,16.15,82.63,30.99,122.52,45.33
				c60.47,21.75,117.59,42.29,169.93,65.41l2.09,0.92c95.53,42.19,158.74,70.11,212.12,63.69
				C-783.05,1893.47-767.12,1896.35-750.96,1896.35z"/>
			<path class="st11" d="M-834.8,1884.26c14.41,0,27.72-1.84,40.17-5.74c66.82,18.1,137.42-21.17,204.24-113.6
				c36.76-50.87,63.09-102.56,78.26-153.65c21.48-71.42,23.04-132.08,24.42-185.59c0.46-17.66,0.89-34.35,1.99-50.59
				c1.83-25.57,6.58-50.54,14.53-76.34c13.98-45.36,45.88-81.09,89.83-100.59c66.22-29.39,155.1-21.11,250.29,23.3
				c19.1,8.91,38.37,18.65,57,28.08c52.86,26.72,107.52,54.36,166.01,67.09c96.01,20.93,201.12-3.28,267.77-61.67
				c66.92-58.81,84.4-139.95,72.04-194.27l-4.2,0.95c12.08,53.08-5.09,132.44-70.68,190.08c-65.66,57.52-169.29,81.34-264.02,60.7
				c-57.95-12.62-112.36-40.12-164.98-66.73c-18.66-9.44-37.96-19.2-57.12-28.14c-96.33-44.94-186.49-53.23-253.86-23.34
				c-45.1,20.02-77.84,56.69-92.19,103.26c-8.05,26.12-12.86,51.4-14.71,77.31c-1.11,16.34-1.54,33.07-2,50.77
				c-1.37,53.24-2.93,113.59-24.24,184.47c-15.03,50.63-41.15,101.89-77.62,152.36c-45.93,63.54-117.96,134.52-200.22,111.8
				l-0.62-0.17l-0.61,0.19c-50.71,16.23-117.15-3.22-214.76-42.28c-32.28-12.92-66.1-25.48-101.9-38.78
				c-61.99-23.03-126.09-46.84-191.5-75.9c-24.28-10.79-48.14-21.18-71.7-31.43c-69.86-30.42-135.84-59.15-202.18-93.5
				c-3.84-1.99-7.71-3.97-11.61-5.96c-4.67-2.38-9.36-4.78-14.08-7.23c-58.07-30.18-168.28-89.47-253.94-147.38l-13.28-8.98
				c-12.09-8.18-23.5-15.91-34.11-22.8l-12.75-8.25c-44.14-28.52-70.79-45.73-104.79-84.55c-25.57-29.2-50.96-70.54-80.36-118.41
				c-17.82-29.02-36.24-59.02-56.58-89.33c-30.34-45.6-74.49-77.31-117.19-107.97c-44.07-31.65-89.65-64.38-118.81-112.08
				c-41.67-68.04-39.48-166.2,5.1-228.34l-3.5-2.51c-45.53,63.45-47.79,163.66-5.27,233.09c29.61,48.44,75.55,81.43,119.97,113.33
				c42.38,30.43,86.21,61.91,116.12,106.86c20.29,30.24,38.7,60.21,56.49,89.19c29.5,48.04,54.98,89.53,80.79,119
				c34.4,39.28,61.24,56.61,105.7,85.33l12.74,8.25c10.58,6.87,21.98,14.58,34.04,22.76l13.28,8.98
				c85.83,58.03,196.21,117.4,254.36,147.62c4.72,2.46,9.43,4.86,14.1,7.25c3.89,1.98,7.76,3.96,11.59,5.94
				c66.46,34.42,132.51,63.18,202.44,93.63c23.54,10.25,47.39,20.64,71.66,31.42c65.53,29.11,129.7,52.94,191.75,76
				c35.77,13.29,69.56,25.84,101.8,38.74C-937.11,1865.78-880.46,1884.25-834.8,1884.26z"/>
			<path class="st12" d="M-855.92,1883.91c25.72,0,46.99-4.89,65.2-14.56c60.5,8.97,123.02-33.88,185.88-127.26
				c35.15-52.24,60.99-103.1,76.78-151.16c21.44-64.43,28.08-119.24,33.95-167.6c2.48-20.45,4.82-39.76,8.08-58.05
				c4.02-22.58,10.83-44.9,21.41-70.25c17.24-41.28,49.5-72.11,93.31-89.16c66.64-25.94,154.56-16.57,247.56,26.39
				c18.66,8.62,37.51,18,55.73,27.08c52.26,26.02,106.3,52.92,163.85,65.94c93.27,21.13,197.32,0.85,265.06-51.67
				c70.94-55.19,90.78-131.3,86.2-179.7l-4.29,0.4c4.47,47.31-14.99,121.77-84.56,175.89c-66.76,51.77-169.4,71.73-261.47,50.87
				c-57.05-12.91-110.85-39.69-162.88-65.59c-18.25-9.09-37.13-18.48-55.85-27.13c-94.06-43.46-183.18-52.87-250.92-26.5
				c-44.92,17.49-78.03,49.13-95.72,91.51c-10.71,25.64-17.6,48.25-21.68,71.15c-3.28,18.41-5.63,37.78-8.12,58.28
				c-5.84,48.15-12.46,102.74-33.76,166.76c-15.67,47.7-41.33,98.2-76.26,150.11c-62.09,92.24-123.43,134.38-182.36,125.31
				l-0.71-0.11l-0.64,0.34c-45.02,24.25-109.94,18.15-217.08-20.42l-25.41-9.12c-82.17-29.43-175.31-62.79-268.77-109.43
				l-21.07-10.51c-85.64-42.7-166.54-83.02-247.95-129.55c-4.68-2.67-9.41-5.32-14.18-7.99c-3.71-2.07-7.44-4.16-11.17-6.28
				c-71.37-40.39-175.58-99.74-256.26-148.58c-16.39-9.89-33.77-20.22-49.89-28.71c-15.24-8.03-28.98-14.66-41.11-20.51
				c-32.59-15.73-58.33-28.15-88.81-55.69c-37.01-33.45-75.23-91.84-115.69-153.66c-10.35-15.82-20.93-31.98-31.78-48.2
				c-28.97-43.3-70.02-74.32-109.71-104.33c-41.82-31.62-85.07-64.32-112.85-110.98c-38.8-65.03-38-159.65,1.84-220.09l-3.59-2.37
				c-41.36,62.74-42.18,157.23-1.95,224.67c28.21,47.38,71.8,80.34,113.96,112.2c39.41,29.79,80.15,60.6,108.73,103.29
				c10.84,16.2,21.41,32.35,31.76,48.16c40.61,62.06,78.98,120.68,116.4,154.5c30.94,27.96,56.93,40.5,89.83,56.37
				c12.09,5.84,25.8,12.45,40.97,20.44c16.02,8.44,33.34,18.73,49.67,28.59c80.73,48.87,184.98,108.24,256.37,148.64
				c3.74,2.12,7.48,4.22,11.19,6.29c4.76,2.66,9.48,5.31,14.15,7.97c81.52,46.58,162.46,86.94,248.16,129.66l21.07,10.51
				c93.69,46.75,186.96,80.16,269.24,109.63l25.41,9.12C-945.32,1872.37-895.39,1883.91-855.92,1883.91z"/>
			<path class="st13" d="M-877.45,1886.64c37.8,0,67.84-8.84,90.65-26.53c0.18,0,0.36,0,0.54,0c54.68,0,106.23-43.53,166.97-140.86
				c34.41-55.18,59.04-103.81,75.3-148.67c20.35-55.47,30.98-103.25,40.36-145.4c5.54-24.88,10.77-48.38,17.25-69.69
				c6.09-20.02,14.55-39.21,28.29-64.16c44.78-81.3,167.79-127.75,341.66-48.27c18.21,8.33,36.61,17.34,54.41,26.06
				c51.68,25.32,105.11,51.49,161.74,64.81c92.01,21.67,192.53,5.71,262.35-41.68c70.1-47.75,97.8-116.58,100.35-165.08l-4.3-0.22
				c-2.49,47.47-29.67,114.88-98.47,161.74c-68.85,46.73-168.08,62.45-258.95,41.05c-56.15-13.21-109.37-39.28-160.83-64.49
				c-17.82-8.73-36.26-17.76-54.52-26.11c-176.38-80.65-301.48-32.94-347.22,50.1c-13.89,25.23-22.46,44.66-28.64,64.98
				c-6.53,21.48-11.78,45.05-17.33,70.01c-9.35,42.03-19.95,89.66-40.21,144.87c-16.16,44.58-40.66,92.95-74.91,147.87
				c-60.33,96.69-111.11,139.69-164.56,138.83l-0.76-0.01l-0.6,0.47c-43.65,34.34-115.43,34.79-219.45,1.4
				c-87.16-27.98-190.36-64.4-294.98-122.41c-97.72-54.19-181.66-103.49-264.17-155.17c-5.4-3.38-10.89-6.73-16.42-10.1l-8.6-5.26
				c-86.93-53.31-183.6-109.31-258.59-149.79c-21.04-11.33-37.68-19.47-52.38-25.63c-21.37-8.95-40.14-14.99-56.7-20.32
				c-29.9-9.62-55.72-17.93-85.62-39.28c-50.99-36.41-102.18-112.79-156.39-193.65l-1.59-2.37
				c-27.52-41.05-65.5-71.36-102.23-100.68c-39.58-31.59-80.51-64.25-106.9-109.88c-36.54-63.03-37.14-152.13-1.42-211.86
				l-3.69-2.21c-36.47,60.99-35.88,151.92,1.39,216.23c26.79,46.33,68.04,79.25,107.94,111.08c36.48,29.11,74.19,59.21,101.34,99.71
				l1.59,2.37c54.43,81.2,105.83,157.89,157.46,194.76c30.44,21.74,56.55,30.14,86.8,39.88c17.28,5.56,35.15,11.31,56.35,20.19
				c14.57,6.11,31.1,14.19,52.01,25.45c74.92,40.44,171.52,96.39,258.38,149.66l8.61,5.26c5.52,3.37,10.99,6.7,16.38,10.08
				c82.57,51.72,166.58,101.06,264.37,155.29c104.94,58.19,208.39,94.7,295.74,122.74
				C-957.96,1878.35-914.06,1886.64-877.45,1886.64z"/>
			<path class="st14" d="M-897.97,1892.14c50.05,0,89.03-13.85,115.08-41.34c55.4-9,98.18-65.78,149.15-154.39
				c24.85-43.22,53.05-94.38,73.82-146.17c17.14-42.74,29.54-80.81,40.49-114.4c11.18-34.3,20.83-63.93,32.69-90.15
				c9.11-20.15,20.65-37.79,35.18-58.07c47.08-65.72,165.01-114.02,342.48-33.77c17.74,8.02,35.69,16.67,53.06,25.03
				c51.1,24.62,103.95,50.07,159.66,63.69c89.39,21.89,188.87,9.75,259.63-31.68c58.81-34.58,101.59-90.82,114.45-150.44l-4.21-0.91
				c-12.61,58.46-54.63,113.65-112.41,147.63c-69.82,40.89-168.08,52.84-256.42,31.21c-55.28-13.52-107.91-38.87-158.82-63.39
				c-17.38-8.37-35.36-17.03-53.15-25.08c-179.85-81.31-299.73-31.87-347.75,35.19c-14.68,20.49-26.35,38.33-35.6,58.81
				c-11.95,26.43-21.64,56.16-32.86,90.58c-10.92,33.52-23.31,71.52-40.39,114.13c-20.66,51.54-48.78,102.54-73.56,145.63
				c-50.56,87.9-92.76,144.05-146.81,152.4l-0.74,0.11l-0.51,0.54c-41.62,44.51-118.36,52.53-221.9,23.21
				c-111.75-31.65-208.5-72.96-295.77-126.28c-94.06-57.47-178.07-114.82-259.32-170.29c-6.21-4.24-12.55-8.43-18.94-12.65
				l-5.74-3.8c-90.53-59.92-185.63-114.95-260.91-150.98c-20.98-10.01-38.93-17.38-54.88-22.53c-25.48-8.22-46.89-12.05-67.59-15.75
				c-30.31-5.41-56.48-10.09-87.11-27.24c-57.41-32.14-114.9-110.41-168.47-190.2c-26.01-38.73-60.89-68.24-94.62-96.79
				c-37.39-31.63-76.04-64.34-101.07-109.02c-34.22-60.94-36.15-144.68-4.68-203.64l-3.8-2.03
				c-32.12,60.19-30.17,145.63,4.73,207.77c25.41,45.35,64.37,78.32,102.05,110.2c33.51,28.35,68.16,57.67,93.83,95.9
				c53.88,80.24,111.75,158.98,169.95,191.55c31.26,17.5,57.77,22.24,88.46,27.72c20.56,3.67,41.83,7.47,67.03,15.61
				c15.77,5.09,33.54,12.39,54.35,22.32c75.11,35.95,170.01,90.88,260.39,150.69l5.75,3.8c6.38,4.21,12.69,8.39,18.89,12.62
				c81.29,55.5,165.35,112.88,259.5,170.41c87.61,53.53,184.71,94.99,296.84,126.75C-967.42,1886.34-930.37,1892.14-897.97,1892.14z
				"/>
			<path class="st15" d="M-915.69,1899.83c61.51,0,108.68-19.79,136.67-58.39c48.81-17.69,82.03-75.3,130.83-167.87
				c3.59-6.82,7.25-13.72,10.95-20.7c21.11-39.83,42.94-81.02,61.38-122.97c10.84-24.64,20.24-47.12,29.33-68.85
				c21.43-51.24,38.36-91.7,59.36-125.14c11.94-19.01,26.12-34.79,42.07-51.99c54.75-59.02,173.69-95.08,343.34-19.27
				c17.26,7.71,34.74,15.99,51.64,23.99c50.55,23.92,102.82,48.65,157.64,62.59c88.21,22.47,184.24,14.35,256.89-21.69
				c83.86-41.79,117.8-108.88,128.5-135.78l-4-1.59c-10.52,26.45-43.89,92.4-126.41,133.52c-71.75,35.6-166.67,43.59-253.91,21.37
				c-54.42-13.84-106.5-38.48-156.86-62.31c-16.93-8.01-34.43-16.29-51.73-24.02c-171.72-76.73-292.49-39.84-348.25,20.27
				c-16.1,17.36-30.42,33.3-42.56,52.62c-21.2,33.74-38.18,74.35-59.69,125.77c-9.08,21.72-18.48,44.18-29.3,68.78
				c-18.38,41.81-40.17,82.92-61.25,122.68c-3.7,6.99-7.36,13.9-10.96,20.71c-48.52,92.04-81.43,149.15-129.1,166.04l-0.64,0.23
				l-0.39,0.55c-39.43,54.98-119.12,70.96-224.41,45.02c-107.08-26.4-206.86-70.18-296.57-130.14
				c-66.76-44.63-126.07-89.19-188.87-136.37c-21.64-16.26-43.4-32.61-65.6-49.04c-7.11-5.27-14.4-10.46-21.76-15.7l-2.59-1.84
				c-90.27-64.24-186.21-119.7-263.23-152.18c-21.41-9-40.18-15.36-57.37-19.42c-28.6-6.77-52.85-8.08-76.3-9.35
				c-30.22-1.64-58.77-3.18-90.81-17.02c-52.1-22.49-110.64-82.81-178.98-184.41c-24.41-36.29-56.14-64.89-86.82-92.55
				c-36.89-33.25-71.73-64.65-95.44-108.5c-31.35-57.83-34.62-138.2-7.95-195.44l-3.9-1.82c-27.21,58.4-23.89,140.35,8.06,199.3
				c24.06,44.51,60.81,77.63,96.34,109.65c30.49,27.48,62.02,55.9,86.13,91.76c69.76,103.72,127.23,162.81,180.84,185.95
				c32.75,14.14,61.67,15.7,92.28,17.36c23.26,1.26,47.31,2.56,75.54,9.24c16.96,4.01,35.51,10.29,56.7,19.2
				c76.74,32.36,172.38,87.65,262.41,151.72l2.59,1.84c7.34,5.22,14.6,10.39,21.7,15.65c22.19,16.43,43.94,32.77,65.57,49.03
				c62.84,47.21,122.2,91.81,189.06,136.5c90.13,60.24,190.37,104.23,297.93,130.75C-974.31,1895.78-943.53,1899.83-915.69,1899.83z
				"/>
			<path class="st16" d="M-931.4,1908.86c72.4,0,127.55-26.53,156.18-76.83c38.56-23.34,61.97-73.41,94.31-142.59
				c5.77-12.35,11.82-25.27,18.26-38.71c10.71-22.34,22.25-44.83,34.47-68.65c12.19-23.76,24.8-48.33,36.38-72.52
				c37.94-78.42,67.92-140.37,104.18-183.46c14.83-17.63,32.18-32,48.96-45.9c77.27-64,205.95-65.78,344.24-4.75
				c16.77,7.4,33.76,15.29,50.2,22.93c50.01,23.23,101.72,47.24,155.65,61.5c85.83,22.73,180.84,18.35,254.15-11.71
				c80.47-33.16,123.82-90.14,142.51-121.15l-3.69-2.22c-18.41,30.56-61.13,86.71-140.46,119.39
				c-72.45,29.71-166.45,34.02-251.41,11.53c-53.56-14.16-105.1-38.1-154.94-61.24c-16.46-7.65-33.47-15.55-50.28-22.96
				c-139.81-61.69-270.17-59.69-348.72,5.38c-16.92,14.02-34.42,28.52-49.51,46.44c-36.61,43.51-66.68,105.67-104.76,184.36
				c-11.56,24.14-24.16,48.68-36.34,72.42c-11.7,22.79-23.79,46.36-34.52,68.75c-6.45,13.45-12.5,26.39-18.28,38.75
				c-32.15,68.78-55.39,118.48-93.11,141.02l-0.49,0.29l-0.28,0.5c-36.75,65.15-119.47,89.52-226.96,66.85
				c-104.12-21.95-206.95-68.29-297.37-134.01c-57.96-42.13-111.59-86.71-163.45-129.83c-27.9-23.19-56.74-47.17-86.16-70.7
				c-7.83-6.26-15.88-12.42-24.01-18.63c-89.55-68.29-186.34-124.19-265.55-153.37c-21.81-8-41.38-13.34-59.85-16.3
				c-31.1-4.87-57.78-3.45-83.58-2.07c-31.89,1.71-62.01,3.32-95.94-7.66c-57.82-18.71-123.35-80.48-189.48-178.64
				c-22.7-33.7-51.2-61.2-78.75-87.8c-34.77-33.57-67.62-65.28-90.08-108.5c-28.96-55.59-33.46-130.84-11.21-187.25l-4-1.58
				c-22.69,57.51-18.11,134.19,11.39,190.82c22.78,43.84,57.41,77.28,90.9,109.61c27.39,26.44,55.72,53.79,78.17,87.11
				c66.68,98.97,132.98,161.33,191.73,180.33c34.69,11.22,65.2,9.59,97.49,7.86c25.58-1.37,52.03-2.78,82.68,2.02
				c18.18,2.92,37.5,8.19,59.04,16.09c78.83,29.03,175.21,84.7,264.43,152.75c8.11,6.19,16.13,12.33,23.93,18.57
				c29.39,23.5,58.22,47.47,86.09,70.65c51.92,43.16,105.6,87.79,163.68,130c90.91,66.08,194.31,112.67,299.01,134.75
				C-979.9,1906.1-954.75,1908.86-931.4,1908.86z"/>
			<path class="st17" d="M-945.42,1918.88c82.67,0.01,145.71-34.05,173.96-96.27c28.7-26.04,44.94-68.64,65.49-122.52
				c8.3-21.77,17.72-46.45,28.86-72.22c16.71-38.65,37.87-78.81,58.32-117.64c3.7-7.03,7.39-14.03,11.05-21.01
				c45.81-86.66,81.59-138.39,119.64-172.96c17.46-15.75,36.98-27.98,55.85-39.81c84.06-52.69,209.86-49.13,345.15,9.79
				c16.24,7.07,32.71,14.57,48.65,21.83c49.5,22.54,100.69,45.86,153.78,60.45c84.93,23.37,176.56,22.74,251.4-1.74
				c61.82-20.33,114.47-56.18,156.48-106.56l-3.31-2.76c-41.49,49.75-93.48,85.15-154.52,105.22
				c-74.05,24.22-164.79,24.83-248.92,1.68c-52.76-14.5-103.79-37.74-153.13-60.22c-15.95-7.26-32.44-14.78-48.71-21.86
				c-136.61-59.49-263.88-62.95-349.16-9.49c-19.03,11.93-38.71,24.27-56.45,40.27c-38.45,34.94-74.5,87.02-120.56,174.15
				c-3.65,6.98-7.34,13.98-11.05,21c-20.5,38.91-41.69,79.14-58.47,117.94c-11.19,25.86-20.61,50.58-28.93,72.4
				c-20.42,53.54-36.55,95.83-64.69,121.16l-0.52,0.71c-33.77,74.92-119.58,108.07-229.56,88.71
				c-72.2-12.72-182.53-46.97-298.17-137.89c-53.49-42.06-102.61-87.1-150.1-130.67c-30.52-27.99-62.07-56.93-94.65-84.98
				c-7.81-6.72-15.99-13.45-23.67-19.72c-88.65-72.26-186.28-128.59-267.86-154.55c-22.44-7.12-42.82-11.43-62.33-13.18
				c-33.34-2.88-62.31,1.4-90.33,5.54c-33.73,4.99-65.6,9.7-101.59,1.38c-63.64-14.71-134.67-76.11-200-172.9
				c-20.83-30.85-45.96-56.99-70.25-82.27c-32.83-34.15-63.83-66.4-85.14-109.27c-26.52-53.23-32.21-123.52-14.48-179.08l-4.1-1.31
				c-18.05,56.57-12.27,128.13,14.73,182.31c21.59,43.46,54.28,77.45,85.89,110.34c24.17,25.15,49.17,51.15,69.79,81.69
				c38.19,56.58,115.3,154.51,202.6,174.68c36.78,8.49,69.04,3.73,103.19-1.32c27.77-4.11,56.5-8.35,89.32-5.51
				c19.19,1.73,39.28,5.98,61.41,13c81.09,25.8,178.2,81.85,266.45,153.78c7.65,6.25,15.81,12.95,23.59,19.64
				c32.54,28.01,64.06,56.92,94.55,84.89c47.56,43.62,96.74,88.73,150.35,130.88c116.35,91.48,227.41,125.94,300.09,138.74
				C-984.56,1917.07-964.46,1918.88-945.42,1918.88z"/>
			<path class="st18" d="M-961.35,1929.46c105.61,0,163.18-61.24,193.57-116.25c16.5-29.87,28.26-66.4,41.86-108.69
				c9.5-29.52,20.26-62.97,34.35-99.48c18.28-47.36,44.57-95.39,67.89-136.13c44.34-76.85,88.53-130.01,135.09-162.5
				c19.14-13.26,39.74-23.12,62.75-33.72c88.68-40.87,214.83-31.98,346.09,24.37c15.67,6.73,31.59,13.83,46.99,20.7
				c49.03,21.87,99.73,44.49,152,59.43c84.25,24.11,172.54,27.02,248.64,8.23c63.34-15.75,120.69-46.7,170.46-92.01l-2.9-3.18
				c-49.23,44.82-105.96,75.44-168.6,91.01c-75.38,18.62-162.9,15.71-246.43-8.19c-51.97-14.86-102.53-37.42-151.42-59.23
				c-15.41-6.87-31.35-13.99-47.05-20.73c-132.38-56.84-259.8-65.7-349.58-24.33c-23.2,10.69-43.98,20.63-63.41,34.1
				c-47.1,32.86-91.71,86.47-136.37,163.89c-23.4,40.89-49.79,89.1-68.17,136.73c-14.14,36.63-24.92,70.15-34.44,99.72
				c-13.54,42.08-25.23,78.43-41.53,107.93c-33.64,60.89-101.24,129.58-232.32,110.9c-72.16-10.28-182.61-43.22-298.99-141.76
				c-50.69-42.92-96.81-89.41-141.41-134.37c-31.61-31.87-64.31-64.82-98.5-96.39c-6.59-6.08-13.79-12.5-23.34-20.8
				c-87.66-76.19-186.14-132.95-270.17-155.73c-22.78-6.16-44.58-9.54-64.8-10.05c-35.38-0.78-66.46,6.37-96.55,13.32
				c-35.75,8.25-69.55,16.03-107.76,10.26c-68.7-10.38-145.45-71.32-210.55-167.18c-18.69-27.75-40.34-52.17-61.29-75.78
				c-31.07-35.04-60.42-68.13-80.66-110.99c-24.04-50.76-30.85-116.26-17.75-170.94l-4.19-1c-13.31,55.59-6.4,122.18,18.05,173.79
				c20.5,43.41,50.05,76.73,81.33,112c20.85,23.51,42.41,47.82,60.94,75.34c65.78,96.86,143.58,158.47,213.47,169.02
				c39.04,5.91,73.2-1.98,109.37-10.32c29.83-6.88,60.65-14.01,95.48-13.21c19.87,0.5,41.33,3.84,63.78,9.9
				c83.43,22.62,181.28,79.05,268.47,154.83c9.52,8.28,16.69,14.67,23.24,20.72c34.12,31.51,66.78,64.43,98.36,96.27
				c44.66,45.02,90.85,91.58,141.68,134.62c117.16,99.21,228.44,132.38,301.16,142.74
				C-989.27,1928.45-974.91,1929.46-961.35,1929.46z"/>
			<path class="st19" d="M-970.93,1940.99c95.41,0,169.79-48.79,206.83-137.15c12.3-29.35,19.13-62.23,27.04-100.3
				c7.52-36.2,16.03-77.23,31.05-121.36c13.72-40.34,35.44-84.05,66.4-133.61c45-71.54,95.65-122.71,150.55-152.08
				c22.95-12.2,46.99-20.34,69.65-27.63c93.34-30.02,216.58-16.17,347.02,38.99c15.04,6.36,30.07,12.92,45.13,19.5
				c48.62,21.22,98.9,43.17,150.42,58.49c82.7,24.61,170.02,31.07,245.89,18.18c66.11-11.31,128.16-37.38,184.44-77.5l-2.5-3.5
				c-55.74,39.73-117.2,65.56-182.67,76.76c-75.22,12.78-161.85,6.37-243.94-18.06c-51.27-15.24-101.42-37.14-149.93-58.31
				c-15.07-6.58-30.11-13.14-45.17-19.51c-131.38-55.56-255.68-69.46-350.01-39.12c-22.84,7.35-47.09,15.55-70.36,27.93
				c-55.57,29.74-106.77,81.41-152.17,153.59c-31.14,49.85-53,93.85-66.82,134.51c-15.1,44.39-23.64,85.55-31.19,121.87
				c-7.86,37.86-14.65,70.55-26.79,99.51c-40.36,96.28-126.01,144.64-234.9,132.73c-72.35-7.93-183.09-39.63-299.81-145.64
				c-48.71-44.25-92.55-92.64-134.95-139.45c-31.99-35.31-65.06-71.83-100.1-106.44c-6.77-6.68-14.08-13.64-23-21.89
				c-86.64-80.09-185.96-137.28-272.48-156.91c-23.45-5.3-46.06-7.62-67.26-6.92c-37.23,1.33-70.41,11.39-102.5,21.12
				c-37.87,11.49-73.64,22.34-114.2,19.11c-73.85-6.14-156.5-66.5-221.1-161.47c-16.03-23.73-33.71-45.51-50.82-66.57
				c-29.91-36.82-58.16-71.59-77.69-115.43c-21.52-48.15-29.38-109.02-21.03-162.82l-4.25-0.66
				c-8.47,54.59-0.48,116.36,21.36,165.23c19.77,44.36,48.19,79.35,78.28,116.39c17.05,20.99,34.67,42.69,50.6,66.27
				c65.32,96.04,149.17,157.1,224.31,163.34c41.38,3.3,77.53-7.68,115.8-19.28c31.82-9.65,64.73-19.63,101.4-20.94
				c20.81-0.7,43.07,1.59,66.16,6.82c85.81,19.46,184.4,76.27,270.51,155.87c8.88,8.22,16.16,15.15,22.89,21.79
				c34.95,34.53,67.99,71,99.94,106.27c42.46,46.88,86.38,95.36,135.24,139.74c117.57,106.79,229.25,138.74,302.23,146.73
				C-992.37,1940.39-981.52,1940.99-970.93,1940.99z"/>
			<path class="st20" d="M-980.05,1952.95c105.13,0.01,188.16-59.23,219.59-158.45c9.95-31.42,13.54-66.2,17.34-103.03
				c4.32-41.87,8.79-85.17,22.63-132.15c12.35-41.92,34.18-86.02,64.91-131.08c46.17-67.35,103.58-116.35,166.02-141.7
				c26.26-10.61,53.43-16.84,76.55-21.53c96.26-19.55,216.58-1.01,347.94,53.64c14.33,5.96,28.65,12.07,43,18.19
				c48.3,20.61,98.25,41.91,149.11,57.64c82.92,25.66,167.01,35.37,243.13,28.12c70.04-6.75,136.81-27.95,198.44-63.02l-2.13-3.74
				c-61.1,34.76-127.28,55.78-196.72,62.48c-75.58,7.21-159.07-2.46-241.45-27.95c-50.64-15.66-100.49-36.93-148.69-57.49
				c-14.36-6.13-28.7-12.24-43.03-18.21c-132.15-54.99-253.33-73.61-350.45-53.89c-23.31,4.74-50.72,11.02-77.31,21.76
				c-63.23,25.67-121.31,75.2-167.96,143.26c-30.98,45.44-53.01,89.95-65.48,132.3c-13.95,47.35-18.64,92.81-22.79,132.92
				c-3.78,36.61-7.35,71.18-17.16,102.18c-32.99,104.15-123.97,163.38-237.52,154.58c-72.7-5.64-183.88-36.15-300.63-149.52
				c-47.21-45.84-89.19-96.43-129.78-145.35c-31.94-38.49-64.96-78.29-100.41-115.65c-6.91-7.28-14.33-14.8-22.66-22.98
				c-85.59-83.99-185.74-141.61-274.78-158.08c-24.12-4.45-47.58-5.74-69.71-3.78c-38.95,3.48-74.07,16.42-108.03,28.93
				c-40.12,14.78-77.91,28.7-121.06,27.96c-79.76-1.68-166.36-59.91-231.66-155.77c-12.22-18.04-25.05-35.34-37.45-52.07
				c-29.9-40.32-58.15-78.41-77.62-125.16c-18.94-45.35-27.81-101.74-24.33-154.72l-4.29-0.28c-3.52,53.62,5.47,110.72,24.65,156.66
				c19.67,47.23,48.07,85.52,78.14,126.06c12.38,16.69,25.18,33.95,37.35,51.93c66.09,97.01,153.99,155.94,235.14,157.65
				c43.88,0.79,82.12-13.29,122.63-28.22c33.7-12.42,68.55-25.26,106.92-28.69c21.75-1.91,44.81-0.65,68.55,3.73
				c88.21,16.32,187.55,73.51,272.54,156.92c8.29,8.14,15.67,15.62,22.55,22.87c35.35,37.26,68.33,77,100.22,115.44
				c40.67,49.01,82.72,99.69,130.09,145.69c117.67,114.26,229.88,145.03,303.29,150.72
				C-994.86,1952.66-987.4,1952.95-980.05,1952.95z"/>
			<path class="st21" d="M-987.95,1965.28c115.05,0,205-69.53,231.1-180.1c8.25-34.93,8.63-71.8,9.03-110.84
				c0.46-44.3,0.93-90.11,12.86-137.88c10.8-43.26,32.14-86.52,63.42-128.56c47.66-63.81,112.13-110.46,181.51-131.34
				c24-7.19,50.52-12.1,83.45-15.43c97.2-9.85,214.56,13.14,348.84,68.32c14.49,5.9,28.99,11.92,43.51,17.96
				c47.14,19.6,95.88,39.86,145.17,55.72c82.75,26.64,165.88,39.75,240.38,38.05c75.84-1.83,145.33-17.72,212.45-48.57l-1.8-3.91
				c-66.57,30.6-135.51,46.36-210.75,48.18c-74.06,1.78-156.66-11.35-238.96-37.84c-49.12-15.8-97.78-36.04-144.84-55.6
				c-14.53-6.04-29.03-12.07-43.53-17.97c-134.93-55.45-253-78.54-350.9-68.62c-33.21,3.36-59.98,8.32-84.25,15.59
				c-70.27,21.15-135.51,68.35-183.73,132.89c-31.62,42.5-53.2,86.27-64.14,130.09c-12.05,48.27-12.53,94.33-12.99,138.88
				c-0.4,38.79-0.78,75.43-8.92,109.9c-26.61,112.73-120.92,181.98-240.15,176.47c-103.44-4.79-210.5-59.27-301.46-153.4
				c-46-47.6-86.36-100.55-125.39-151.76c-31.64-41.5-64.35-84.42-99.95-124.36c-6.94-7.79-14.44-15.88-22.31-24.07
				c-84.51-87.88-185.5-145.92-277.07-159.25c-24.81-3.6-49.09-3.81-72.15-0.64c-40.57,5.62-77.57,21.42-113.34,36.69
				c-42.44,18.12-82.54,35.24-128.12,36.87c-100.76,3.46-191.21-75.28-242.25-150.08c-4.99-7.35-9.98-14.61-14.94-21.84
				c-33.62-48.97-65.38-95.21-86.69-150.62c-16.29-42.26-26.11-94.33-27.65-146.64l-4.3,0.13c1.56,52.78,11.47,105.36,27.93,148.06
				c21.49,55.87,53.39,102.33,87.16,151.51c4.96,7.21,9.94,14.48,14.93,21.82c51.68,75.75,143.38,155.44,245.95,151.96
				c46.39-1.66,88.73-19.73,129.67-37.21c35.52-15.17,72.24-30.84,112.24-36.39c22.67-3.12,46.53-2.91,70.95,0.64
				c90.64,13.19,190.72,70.77,274.58,157.97c7.83,8.15,15.3,16.2,22.21,23.95c35.49,39.82,68.16,82.67,99.74,124.11
				c39.11,51.3,79.54,104.35,125.72,152.14c91.72,94.92,199.81,149.87,304.35,154.71C-996.87,1965.18-992.39,1965.28-987.95,1965.28
				z"/>
			<path class="st22" d="M-995.76,1977.89c124.58,0.01,221.74-80.67,242.52-201.99c6.74-39.39,3.86-79.24,0.8-121.44
				c-3.32-45.84-6.75-93.25,3.02-140.86c9.07-44.2,29.91-86.61,61.93-126.02c49.39-60.68,121.2-104.79,197.03-121.02
				c27.44-5.86,56.99-8.91,90.35-9.34c94.77-1.31,205.93,25.17,349.72,83.02c13,5.2,26.02,10.48,39.06,15.77
				c47.57,19.28,96.76,39.22,146.18,55.76c85.04,28.48,164.99,44.62,237.63,47.97c81.02,3.73,155.12-7.45,226.48-34.12l-1.51-4.03
				c-70.8,26.46-144.33,37.52-224.77,33.85c-72.25-3.33-151.8-19.4-236.46-47.75c-49.29-16.5-98.42-36.42-145.93-55.67
				c-13.05-5.29-26.07-10.57-39.07-15.77c-144.33-58.07-256.05-84.67-351.38-83.33c-33.64,0.43-63.47,3.51-91.19,9.43
				c-76.77,16.42-149.47,61.08-199.47,122.51c-32.46,39.96-53.59,82.98-62.8,127.88c-9.89,48.19-6.44,95.9-3.1,142.04
				c3.04,41.93,5.9,81.53-0.75,120.4c-20.66,120.63-118.21,200.59-242.81,198.38c-104.22-1.65-211.58-57.51-302.29-157.28
				c-45.14-49.65-84.2-105.27-121.97-159.05c-31.05-44.21-63.15-89.92-98.51-132.18c-7.33-8.72-14.72-17.18-21.97-25.16
				c-83.42-91.76-185.24-150.23-279.36-160.41c-25.49-2.75-50.59-1.92-74.59,2.49c-42.13,7.76-80.94,26.37-118.47,44.37
				c-42.85,20.55-87.17,41.8-135.37,45.85c-88.66,7.37-187.86-49.3-252.84-144.39c-41.99-61.61-69.19-113.32-88.19-167.66
				c-13.82-39.48-23.96-84.81-30.99-138.59l-4.27,0.56c7.07,54.07,17.27,99.69,31.19,139.45c19.12,54.71,46.48,106.73,88.69,168.67
				c52.4,76.68,147.36,155.39,256.76,146.25c49-4.11,93.67-25.54,136.88-46.26c37.28-17.88,75.82-36.36,117.39-44.02
				c23.59-4.33,48.26-5.16,73.35-2.44c93.08,10.07,193.92,68.03,276.64,159.03c7.21,7.94,14.57,16.36,21.86,25.02
				c35.25,42.12,67.3,87.75,98.29,131.89c37.84,53.89,76.98,109.62,122.31,159.48c91.51,100.66,199.98,157.02,305.4,158.69
				C-998.83,1977.88-997.29,1977.89-995.76,1977.89z"/>
			<path class="st23" d="M-1003.39,1990.89c26.69,0,53.02-3.82,78.62-11.61c95.97-29.22,163.07-110.71,175.12-212.65
				c5.26-44.53-1.4-89.89-7.84-133.75c-6.87-46.79-13.97-95.18-6.4-142.14c21.21-131.53,153.39-217.38,273-234.2
				c153.73-21.62,310.78,40.38,477.04,106.01c201.96,79.73,410.8,162.18,628,96.06l-1.25-4.12
				c-215.76,65.67-423.89-16.49-625.16-95.94c-166.81-65.85-324.35-128.06-479.22-106.27c-121.17,17.04-255.11,104.18-276.65,237.77
				c-7.68,47.61-0.53,96.33,6.39,143.45c6.4,43.59,13.02,88.66,7.82,132.62c-11.84,100.22-77.78,180.32-172.09,209.04
				c-123.11,37.48-263.86-18.54-376.5-149.89c-44.12-51.45-81.69-109.46-118.02-165.56c-36.65-56.59-74.54-115.1-119.24-167.04
				c-82.57-95.95-220.13-187.29-358.66-155.95c-43.63,9.88-84.21,31.27-123.45,51.96c-45.17,23.82-91.89,48.45-142.77,54.94
				c-94.16,12.01-197.57-42.44-263.45-138.71c-59.97-87.63-86.07-196.96-109.09-293.41l-4.19,1
				c23.11,96.82,49.31,206.55,109.73,294.85c66.78,97.58,171.8,152.74,267.55,140.55c51.66-6.59,98.72-31.4,144.23-55.4
				c38.99-20.56,79.31-41.82,122.39-51.57c136.63-30.92,272.69,59.56,354.44,154.56c44.5,51.71,82.32,110.1,118.89,166.57
				c36.41,56.22,74.06,114.35,118.36,166.03C-1215.35,1933.54-1106.79,1990.89-1003.39,1990.89z"/>
		</g>
		<g>
			<path class="st2" d="M136.21,1424.74c25.86-23.23,47.57-51.68,63.93-84.65c45.26-91.19,36.29-196.54-23.4-274.95
				C117.31,987.11,24.88,953.25-64.52,920.5c-65.32-23.93-132.87-48.67-187.69-90.47c-74.01-56.41-109.95-132.5-96.15-203.52
				c15.47-79.59,90.25-143.3,205.17-174.8c24.6-6.74,50.21-12.37,74.97-17.81c65.67-14.43,133.57-29.36,190.37-66.62
				c98.6-64.67,147.3-194.08,115.81-307.71C206.47-54.05,98.11-139.93-19.71-144.62l-0.17,4.3c116,4.62,222.69,89.17,253.7,201.05
				c31.01,111.87-16.94,239.28-114.02,302.96C63.66,400.51-3.85,415.35-69.14,429.7c-24.81,5.45-50.47,11.09-75.18,17.86
				c-116.56,31.94-192.47,96.86-208.26,178.13c-14.12,72.67,22.43,150.34,97.76,207.76c55.34,42.19,123.2,67.05,188.82,91.09
				c88.81,32.54,180.65,66.18,239.31,143.22c58.69,77.09,67.5,180.71,22.97,270.42c-47.62,95.92-141.28,153.12-250.54,152.98
				c-49.51-0.06-98.75-12.87-146.38-25.26c-51.27-13.33-104.3-27.12-157.92-25.12c-148.13,5.53-254.13,115.65-356.64,222.15
				c-46.89,48.71-91.16,94.72-138.59,130.2c-96.32,72.08-201.38,97.88-288.23,70.78c-89.8-28.02-150.96-107.05-210.12-183.49
				c-61.3-79.21-124.68-161.11-220-186.06c-74.12-19.4-150.92,0.83-225.17,20.4c-71.18,18.76-144.79,38.15-215.86,22.56
				c-108.96-23.9-189.85-137.66-176.65-248.43l-4.28-0.51c-13.45,112.86,68.98,228.79,180,253.14
				c72.09,15.81,146.2-3.72,217.88-22.6c73.72-19.42,149.95-39.51,222.99-20.4c93.9,24.58,156.83,105.89,217.69,184.53
				c59.56,76.96,121.15,156.54,212.24,184.96c88.19,27.51,194.65,1.47,292.1-71.45c47.7-35.7,92.1-81.82,139.11-130.66
				c101.91-105.88,207.31-215.37,353.7-220.84c53-1.98,105.71,11.73,156.68,24.99c47.89,12.45,97.4,25.33,147.46,25.39
				C19.14,1495.56,85.62,1470.16,136.21,1424.74z"/>
			<path class="st3" d="M113.94,1418.23c46.62-41.86,77.98-100.42,86.22-168.49c8.19-67.69-9.16-134.85-48.87-189.11
				C94.43,982.85,7.31,947.55-76.93,913.41c-19.45-7.88-39.57-16.03-58.95-24.56c-49.22-21.68-84.36-42.08-113.94-66.13
				c-68.39-55.6-99.37-126.8-85.01-195.36c16.4-78.27,90.87-141.15,204.32-172.51c24.19-6.7,49.35-12.36,73.68-17.82
				c64.64-14.52,131.49-29.54,187.69-65.91c96.64-62.56,147.35-188.1,120.5-298.52C224.7-36.96,124.79-122.3,13.78-130.34
				l-0.31,4.29c109.2,7.9,207.48,91.87,233.71,199.66c26.43,108.7-23.46,232.29-118.66,293.89C72.97,403.45,6.5,418.38-57.78,432.82
				c-24.38,5.48-49.59,11.14-73.88,17.88c-115.05,31.8-190.65,95.87-207.39,175.78c-14.7,70.19,16.83,142.93,86.5,199.59
				c29.89,24.3,65.34,44.88,114.93,66.73c19.44,8.56,39.58,16.72,59.06,24.62c83.69,33.91,170.23,68.97,226.37,145.76
				c39.06,53.38,56.13,119.45,48.07,186.05c-15.97,131.96-120.3,227.66-253.69,232.74c-44.57,1.69-88.26-6.88-134.5-15.96
				c-50.45-9.9-102.61-20.14-157-16.26c-111.39,7.93-202.58,73.43-269.59,129.6c-32.22,27.02-63.32,56.36-93.39,84.74
				c-48,45.31-93.35,88.09-141.92,121.16c-7.87,5.41-15.98,10.64-24.09,15.56c-53.68,32.61-159.77,83.09-267.14,54.84
				c-19.91-5.23-39.49-13.06-58.2-23.25c-57.52-31.28-100.6-81.08-146.2-133.8c-6.22-7.19-12.47-14.41-18.78-21.61
				c-57.56-65.82-121.09-132-208.78-154.86c-71.86-18.78-146.18-0.16-218.06,17.85c-69.2,17.34-140.76,35.27-209.82,19.66
				c-104.88-23.69-184.35-133.62-173.54-240.06l-4.28-0.43c-11.01,108.49,69.99,220.55,176.88,244.69
				c70.06,15.83,142.12-2.22,211.81-19.68c71.35-17.88,145.13-36.36,215.93-17.86c86.57,22.57,147.14,85.5,206.63,153.54
				c6.3,7.19,12.54,14.41,18.76,21.59c45.87,53.02,89.19,103.11,147.4,134.76c19.01,10.36,38.92,18.31,59.17,23.63
				c108.91,28.65,216.21-22.36,270.47-55.32c8.18-4.96,16.35-10.24,24.28-15.69c48.84-33.26,94.31-76.16,142.44-121.58
				c30.02-28.34,61.08-57.64,93.2-84.57c66.51-55.76,156.98-120.77,267.13-128.61c53.82-3.83,105.7,6.35,155.87,16.2
				c46.5,9.13,90.42,17.75,135.49,16.03C9.11,1483.73,68.71,1458.84,113.94,1418.23z"/>
			<path class="st4" d="M90.62,1413.11c46.51-41.76,76.85-101.14,83.55-170.69c6.41-66.59-10.75-132.76-48.32-186.32
				c-54.24-77.46-135.9-114.2-214.86-149.73c-17.74-7.98-36.09-16.24-53.71-24.79c-45.08-21.9-77.37-42.31-104.71-66.18
				c-61.78-53.94-88.75-122.2-74-187.28c17.44-76.91,91.64-138.93,203.59-170.15c23.77-6.67,48.48-12.34,72.37-17.83
				c63.63-14.62,129.42-29.73,185.02-65.21c94.74-60.44,147.41-182.14,125.2-289.33C242.87-19.81,151.41-104.62,47.27-116.05
				l-0.47,4.28c102.34,11.24,192.22,94.62,213.73,198.27c21.85,105.5-30,225.29-123.31,284.82
				c-54.97,35.08-120.4,50.11-183.66,64.64c-23.94,5.5-48.7,11.19-72.57,17.88c-113.51,31.66-188.83,94.84-206.63,173.35
				c-15.11,66.67,12.36,136.46,75.36,191.47c27.64,24.13,60.22,44.74,105.66,66.81c17.67,8.58,36.05,16.84,53.82,24.84
				c78.44,35.29,159.54,71.79,213.1,148.27c36.99,52.72,53.88,117.86,47.56,183.43c-12.27,127.38-105.2,220.12-231.25,230.75
				c-40.12,3.39-80.73-1.75-123.74-7.2c-49.21-6.23-100.1-12.67-154.96-6.87c-107.55,11.36-198.23,70.69-272.76,127.24
				c-33.31,25.27-65.43,52.63-96.51,79.08c-49.2,41.89-95.66,81.46-145.3,112.33c-8.79,5.47-16.82,10.22-24.56,14.54
				c-54.72,30.56-162.52,78.39-269.66,55.47c-19.83-4.23-39.33-10.75-57.95-19.36c-56.18-25.88-97.9-68.46-142.08-113.54
				c-6.9-7.04-13.85-14.14-20.93-21.24c-59.57-60.05-125.08-120.59-212.85-143.38c-69.57-18.16-141.42-1.15-210.91,15.31
				c-67.23,15.92-136.75,32.38-203.81,16.76c-100.81-23.47-178.86-129.57-170.44-231.7l-4.29-0.35
				c-8.59,104.13,70.99,212.32,173.75,236.24c68.04,15.85,138.06-0.72,205.78-16.76c68.97-16.33,140.3-33.22,208.83-15.33
				c86.72,22.52,151.73,82.62,210.88,142.25c7.07,7.1,14.02,14.19,20.91,21.22c44.46,45.37,86.45,88.22,143.34,114.43
				c18.91,8.75,38.72,15.36,58.86,19.66c108.52,23.21,217.41-25.08,272.66-55.93c7.8-4.35,15.89-9.14,24.74-14.64
				c49.91-31.03,96.49-70.7,145.81-112.7c31.03-26.42,63.11-53.74,96.32-78.94c74.06-56.18,164.12-115.13,270.61-126.38
				c54.35-5.74,104.99,0.67,153.96,6.86c43.23,5.47,84.07,10.64,124.64,7.22C-1.64,1472.05,50.5,1449.13,90.62,1413.11z"/>
			<path class="st5" d="M67.38,1408.08c46.51-41.77,75.78-101.98,80.8-172.97c4.63-65.53-12.34-130.7-47.77-183.51
				C48.88,974.57-27.14,936.4-100.66,899.48c-16.18-8.12-32.9-16.52-48.9-25.13c-40.36-21.76-70.71-42.8-95.48-66.22
				c-55.29-52.28-78.29-117.63-63.1-179.29c18.59-75.5,92.57-136.63,202.97-167.71c23.35-6.63,47.6-12.33,71.05-17.84
				c62.61-14.71,127.35-29.92,182.35-64.51c94.32-59.31,147.75-174.5,129.91-280.13C260.98-2.58,177.98-86.86,80.78-101.77
				l-0.65,4.26C175.55-82.88,257.04-0.08,273.89,99.36c17.56,103.95-35.06,217.37-127.95,275.77
				C91.55,409.33,27.16,424.46-35.1,439.09c-23.5,5.52-47.8,11.23-71.24,17.89c-111.93,31.51-187.01,93.77-205.98,170.83
				c-15.57,63.21,7.88,130.08,64.33,183.45c25.06,23.69,55.69,44.94,96.39,66.88c16.06,8.64,32.81,17.05,49.01,25.19
				c73.02,36.67,148.52,74.58,199.42,150.66c34.91,52.02,51.62,116.24,47.06,180.82c-8.66,122.44-90.63,212.24-208.82,228.77
				c-36.34,5.08-74.44,3.18-114.78,1.17c-47.39-2.36-96.38-4.8-151.09,2.9c-103.39,14.56-193.72,68.62-275.93,124.87
				c-34.14,23.36-67.07,48.56-98.92,72.93c-50.6,38.72-98.39,75.29-149.37,104c-9.53,5.36-17.48,9.66-25.04,13.52
				c-55.78,28.5-165.3,73.69-272.19,56.11c-19.73-3.23-39.15-8.44-57.71-15.47c-55.49-20.88-96.28-56.97-139.46-95.17
				c-7.07-6.26-14.24-12.6-21.58-18.98c-64.79-56.7-130.15-109.45-216.89-131.89c-67.28-17.53-136.64-2.12-203.73,12.78
				c-65.27,14.5-132.76,29.49-197.84,13.84c-98.42-23.64-173.48-123.83-167.33-223.34l-4.3-0.26
				c-6.27,101.5,70.27,203.68,170.63,227.79c66.04,15.88,134.03,0.78,199.78-13.82c66.59-14.79,135.44-30.08,201.71-12.81
				c85.84,22.21,150.75,74.62,215.15,130.97c7.34,6.38,14.49,12.71,21.55,18.96c43.49,38.48,84.56,74.82,140.79,95.97
				c18.83,7.13,38.52,12.41,58.53,15.69c108.1,17.78,218.6-27.79,274.85-56.53c7.61-3.88,15.62-8.2,25.2-13.6
				c51.25-28.86,99.16-65.52,149.88-104.33c31.8-24.34,64.68-49.5,98.73-72.8c81.78-55.95,171.59-109.72,274.11-124.16
				c54.3-7.64,103.09-5.21,150.28-2.86c40.55,2.02,78.85,3.93,115.59-1.21C-12.62,1460.61,32.29,1439.59,67.38,1408.08z"/>
			<path class="st6" d="M44.07,1403.41c46.75-41.98,74.92-103.11,78.11-175.62c2.88-65.43-13.45-127.92-47.22-180.71
				C26.25,970.63-43.95,931.05-111.85,892.76c-14.76-8.32-30.01-16.92-44.54-25.65c-36.25-21.85-63.66-42.91-86.25-66.27
				c-48.95-50.61-68.03-113.1-52.35-171.43c20.19-75.12,92.1-133.78,202.48-165.16c22.92-6.59,46.71-12.31,69.72-17.84
				c61.6-14.8,125.3-30.11,179.71-63.82c92.38-57.21,147.73-168.62,134.6-270.92C279.02,14.73,204.48-69.02,114.3-87.47l-0.86,4.22
				c88.44,18.1,161.54,100.3,173.81,195.47c12.92,100.68-41.61,210.35-132.6,266.72c-53.82,33.34-117.17,48.57-178.44,63.29
				c-23.05,5.54-46.89,11.27-69.9,17.88c-111.89,31.81-184.86,91.54-205.46,168.18c-16.08,59.83,3.39,123.81,53.41,175.54
				c22.86,23.64,50.54,44.92,87.13,66.97c14.58,8.76,29.86,17.38,44.65,25.72c67.43,38.02,137.16,77.34,185.3,152.88
				c42.07,65.75,48.53,133.2,46.55,178.21c-5.17,117.15-76.6,204.06-186.42,226.8c-33.59,6.96-70.27,8.25-109.1,9.61
				c-42.49,1.49-90.65,3.19-143.92,12.59c-92.91,16.41-178.77,60.84-279.1,122.5c-34.73,21.34-68.25,44.26-100.67,66.42
				c-52.22,35.69-101.54,69.4-154.11,96.03c-7.43,3.77-16.28,8.2-25.52,12.49c-56.84,26.44-168.11,68.98-274.72,56.76
				c-19.58-2.23-38.92-6.13-57.49-11.58c-56.16-16.31-95.06-45.52-140.1-79.35c-6.2-4.65-12.5-9.39-18.98-14.18l-1.37-1.02
				c-57.93-42.91-130.04-96.31-219.54-119.39c-64.97-16.9-131.84-3.09-196.5,10.26c-63.33,13.08-128.81,26.6-191.91,10.91
				c-94.3-23.4-167.97-119.85-164.23-214.99l-4.3-0.17c-3.82,97.07,71.32,195.46,167.5,219.33c64.05,15.92,130.02,2.29,193.82-10.88
				c64.19-13.25,130.55-26.95,194.55-10.31c88.7,22.87,157.43,73.77,218.06,118.68l1.38,1.02c6.47,4.79,12.76,9.52,18.95,14.17
				c45.38,34.08,84.56,63.51,141.48,80.04c18.79,5.52,38.38,9.46,58.21,11.72c107.66,12.35,219.77-30.5,277.03-57.13
				c9.29-4.32,18.18-8.77,25.65-12.55c52.81-26.76,102.25-60.55,154.59-96.32c32.38-22.13,65.86-45.01,100.5-66.3
				c99.91-61.41,185.36-105.65,277.6-121.93c52.97-9.35,100.97-11.04,143.32-12.53c39.02-1.37,75.87-2.67,109.82-9.7
				C-23.85,1449.54,13.96,1430.45,44.07,1403.41z"/>
			<path class="st7" d="M20.44,1399.54c47.39-42.55,74.54-104.83,75.75-179.07c1.05-64.43-15.09-125.95-46.66-177.9
				C3.76,966.91-60.42,925.97-122.49,886.39c-14.14-9.02-27.49-17.54-40.72-26.5c-32.13-21.86-56.61-42.93-77.03-66.32
				c-42.75-48.96-57.96-108.63-41.72-163.72c21.68-73.54,93.46-131.25,202.12-162.46c22.5-6.55,45.83-12.29,68.39-17.84
				c60.59-14.9,123.24-30.3,177.05-63.13c90.45-55.14,147.72-162.76,139.3-261.71c-7.96-92.57-74.01-175.79-157.06-197.87L146.73-69
				c81.36,21.63,146.08,103.26,153.88,194.08c8.29,97.39-48.16,203.35-137.25,257.67c-53.25,32.48-115.57,47.8-175.84,62.62
				c-22.61,5.56-45.98,11.31-68.56,17.88c-110.12,31.63-182.94,90.37-205.05,165.38c-16.66,56.53-1.13,117.68,42.6,167.77
				c20.67,23.67,45.41,44.98,77.85,67.05c13.28,9,27.28,17.94,40.82,26.57C-63.15,929.34,0.6,970,45.85,1044.8
				c39.36,64.76,46.77,131.23,46.04,175.6c-1.83,111.53-63.16,195.58-164.05,224.84c-32.78,9.51-68.83,14.16-110.57,19.53
				c-37.92,4.89-80.89,10.43-129.58,20.8c-95.89,20.42-188.24,68.48-282.27,120.14c-34.98,19.21-68.8,39.7-101.51,59.52
				c-54.16,32.8-105.31,63.79-159.76,88.45c-8.3,3.76-17.14,7.74-26,11.46c-57.93,24.39-170.98,64.28-277.25,57.4
				c-19.38-1.24-38.65-3.82-57.27-7.68c-57.84-11.75-95.51-34.97-143.2-64.36l-13.92-8.56c-5.33-3.26-10.77-6.61-16.31-10.04
				c-56.04-34.57-125.8-77.6-208.61-98.88c-62.63-16.26-126.99-4.05-189.22,7.75c-61.4,11.65-124.88,23.69-186.03,7.97
				c-90.2-23.15-162.48-115.85-161.13-206.64l-4.31-0.06c-1.38,92.66,72.36,187.26,164.37,210.87
				c62.07,15.96,126.04,3.83,187.9-7.91c61.77-11.72,125.64-23.84,187.34-7.82c82.19,21.11,151.63,63.95,207.42,98.37
				c5.55,3.42,10.99,6.78,16.33,10.04l13.91,8.55c48.06,29.62,86.01,53.01,144.59,64.92c18.82,3.9,38.29,6.51,57.87,7.76
				c107.16,6.93,220.92-33.19,279.2-57.73c8.91-3.75,17.78-7.74,26.1-11.51c54.69-24.77,105.95-55.82,160.22-88.69
				c32.67-19.79,66.46-40.25,101.35-59.43c93.74-51.49,185.78-99.4,281.09-119.7c48.52-10.34,91.4-15.86,129.24-20.74
				c41.92-5.4,78.11-10.07,111.21-19.67C-35.39,1439.05-4.64,1422.06,20.44,1399.54z"/>
			<path class="st8" d="M-2.52,1396.57c48.33-43.39,73.68-106.27,72.72-183.42c-0.79-63.5-16.74-124.04-46.11-175.08
				C-18.57,963.49-76.5,921.31-132.53,880.52c-13.05-9.5-25.38-18.48-37.48-27.84c-28.02-21.77-49.57-42.86-67.81-66.36
				c-37.17-47.91-48.27-103.24-31.25-155.8c23.27-71.87,94.97-128.69,201.91-159.99c21.69-6.35,44.16-12,65.9-17.46
				c59.98-15.08,122-30.67,175.56-62.81c89.91-53.93,147.77-155.39,143.99-252.49c-3.52-88.12-61.09-170.8-136.89-196.6l-1.39,4.08
				c74.17,25.25,130.52,106.29,133.97,192.69c3.72,95.58-53.3,195.5-141.9,248.63c-53.02,31.82-114.73,47.33-174.4,62.33
				c-21.77,5.47-44.29,11.13-66.06,17.5c-108.35,31.72-181.07,89.53-204.8,162.79c-17.47,53.96-6.12,110.7,31.95,159.77
				c18.47,23.8,40.26,45.13,68.57,67.13c12.16,9.41,24.51,18.4,37.59,27.92c55.66,40.53,113.21,82.43,155.41,156.21
				c36.65,63.69,45,129.23,45.54,173c1.33,107.21-48.99,186.37-141.7,222.9c-37.1,14.62-80.18,24.36-134.73,36.69
				c-27.34,6.18-58.32,13.18-92.52,21.74c-90.79,22.71-179.79,66.18-274.02,112.21l-11.41,5.57
				c-34.74,16.96-68.43,34.88-101.02,52.2c-56.55,30.07-109.96,58.48-166.75,81.28l-1.98,0.79c-8.05,3.23-16.2,6.51-24.5,9.64
				c-59.05,22.33-173.92,59.57-279.79,58.05c-18.81-0.25-37.48-1.48-57.07-3.77c-62.42-7.29-100.8-25.92-153.92-51.71l-1.26-0.61
				c-11.85-5.76-24.26-12.06-37.4-18.73c-52.51-26.67-117.86-59.85-191.5-78.7c-60.28-15.63-122.1-5.01-181.88,5.26
				c-59.49,10.22-121.01,20.79-180.21,5.02c-87.58-23.28-156.99-110.38-158.04-198.29l-4.3,0.05
				c1.07,89.74,71.89,178.65,161.23,202.4c60.12,16.02,122.1,5.37,182.05-4.93c59.33-10.19,120.68-20.73,180.08-5.34
				c73.18,18.73,135.58,50.42,190.63,78.37c13.15,6.68,25.57,12.99,37.47,18.76l1.26,0.61c53.5,25.97,92.16,44.74,155.3,52.11
				c19.74,2.3,38.56,3.55,57.52,3.8c106.58,1.53,222.04-35.88,281.37-58.33c8.33-3.15,16.51-6.43,24.58-9.68l1.98-0.8
				c57.01-22.88,110.52-51.34,167.17-81.47c32.55-17.31,66.21-35.21,100.89-52.13l11.41-5.57c94.02-45.92,182.83-89.3,273.18-111.9
				c34.15-8.54,65.11-15.54,92.42-21.72c54.73-12.37,97.96-22.15,135.36-36.89C-46.54,1429.2-22.55,1414.55-2.52,1396.57z"/>
			<path class="st9" d="M-19.84,1398.62c44.39-39.86,67.65-107.65,64.04-192.81c-2.66-62.67-18.41-122.24-45.55-172.26
				c-39.33-73.01-93.08-118.2-140.5-158.07c-12.22-10.27-23.76-19.97-34.96-30c-23.6-21.23-42.77-42.96-58.6-66.41
				c-31.23-46.26-38.64-98.99-20.88-148.49c25.15-70.09,96.81-125.83,201.8-156.93c21.19-6.28,43.13-11.93,64.35-17.39
				c59.04-15.19,120.08-30.9,173.13-62.19c87.96-51.88,147.7-149.62,148.67-243.27c0.78-84.91-47.2-165.23-116.69-195.32l-1.71,3.95
				c67.94,29.42,114.86,108.09,114.09,191.32c-0.96,92.18-59.86,188.48-146.55,239.6C128.28,421.36,67.53,436.99,8.79,452.1
				c-21.26,5.47-43.24,11.12-64.5,17.42c-106.33,31.5-179,88.18-204.63,159.61c-18.23,50.82-10.65,104.93,21.36,152.35
				c16.03,23.75,35.43,45.73,59.29,67.21c11.26,10.08,22.82,19.8,35.06,30.09C-97.5,918.4-44.08,963.31-5.14,1035.6
				c26.83,49.46,42.41,108.38,45.04,170.4c4.86,114.74-39.62,197.29-118.99,220.84l-0.74,0.39c-33.66,27.32-83,40.6-151.28,58.98
				c-19.8,5.33-40.27,10.84-62.68,17.29c-73.92,21.29-148.89,54.23-228.26,89.09c-19.93,8.75-40.04,17.59-60.33,26.32
				c-33.72,14.51-66.54,29.66-98.28,44.31c-59.7,27.56-116.09,53.59-175.98,74.68l-6.07,2.14c-6.88,2.43-13.84,4.89-20.89,7.27
				c-60.24,20.29-177.02,54.89-282.33,58.7c-17.82,0.66-35.89,0.71-56.88,0.15c-60.56-1.63-96.22-11.11-153.26-31.72
				c-19.77-7.15-41.7-16.3-64.91-25.99c-49.49-20.65-105.58-44.07-167.94-59.97c-57.9-14.98-117.16-5.94-174.46,2.8
				c-57.61,8.78-117.17,17.87-174.47,2.04c-83.44-23.01-151.49-106.44-154.94-189.96l-4.3,0.18
				c3.52,85.27,72.96,170.46,158.1,193.93c58.18,16.08,118.21,6.92,176.26-1.93c56.87-8.67,115.69-17.64,172.74-2.88
				c62.06,15.82,118,39.17,167.35,59.77c23.26,9.71,45.23,18.88,65.1,26.06c57.49,20.78,93.46,30.33,154.6,31.97
				c21.08,0.57,39.24,0.52,57.15-0.14c105.85-3.83,223.09-38.56,283.54-58.92c7.08-2.38,14.06-4.85,20.96-7.29l6.06-2.14
				c60.08-21.16,116.56-47.23,176.35-74.83c31.72-14.64,64.51-29.78,98.18-44.27c20.31-8.74,40.43-17.58,60.36-26.33
				c79.24-34.81,154.08-67.69,227.72-88.9c22.38-6.45,42.83-11.95,62.61-17.27c68.57-18.45,118.18-31.8,152.54-59.52
				C-55.56,1424.28-36.25,1413.36-19.84,1398.62z"/>
			<path class="st10" d="M-39.46,1396.23c43.54-39.09,64.24-108.33,57.66-197.74c-4.57-61.98-20.13-120.58-45-169.44
				c-35.72-70.77-82.4-116.73-123.59-157.28c-11.67-11.49-22.7-22.35-33.21-33.45c-19.61-20.83-35.77-42.57-49.39-66.46
				c-25.47-44.64-29.23-94.89-10.6-141.48c27.27-68.18,98.92-122.73,201.77-153.59c20.68-6.2,42.07-11.84,62.76-17.29
				c58.11-15.31,118.2-31.14,170.73-61.59c86.01-49.82,147.64-143.88,153.35-234.03c5.8-93.58-45.93-166.17-96.45-194.01l-2.08,3.77
				c49.37,27.21,99.92,98.26,94.23,189.97c-5.62,88.78-66.39,181.44-151.21,230.57c-52.03,30.16-111.83,45.92-169.67,61.16
				c-20.72,5.46-42.16,11.11-62.91,17.33c-104.12,31.25-176.77,86.68-204.53,156.11c-19.13,47.83-15.27,99.41,10.86,145.21
				c13.8,24.19,30.15,46.19,50,67.28c10.57,11.16,21.62,22.04,33.32,33.56c40.95,40.32,87.37,86.02,122.78,156.16
				c24.62,48.37,40.02,106.39,44.54,167.81c8.27,112.34-26.93,192.12-96.62,218.89l-0.5,0.19l-0.35,0.41
				c-34.54,39.8-99.9,61.15-198.82,93.47l-2.17,0.71c-54.53,17.82-110.82,40.72-170.42,64.98c-39.24,15.97-79.81,32.48-121.34,48.08
				c-31.2,11.72-61.73,23.79-91.26,35.46c-64.31,25.41-125.05,49.41-189.49,69.05l-9.43,2.9c-5.95,1.83-11.94,3.68-18.01,5.48
				c-61.57,18.26-180.44,50.27-284.87,59.35c-18.44,1.63-35.73,2.73-50.98,3.71l-5.7,0.37c-64.19,4.13-98.13,1.64-151.35-11.12
				c-28.74-6.89-62.75-18.7-98.75-31.2c-41.49-14.4-88.52-30.73-138.02-43.31c-55.49-14.32-112.15-6.86-166.95,0.36
				c-55.75,7.35-113.41,14.94-168.82-0.97c-80.64-23.09-145.92-101.17-151.85-181.62l-4.3,0.32
				c6.06,82.16,72.67,161.88,154.96,185.45c56.27,16.16,114.38,8.51,170.57,1.1c54.39-7.17,110.63-14.58,165.32-0.46
				c49.33,12.54,96.27,28.83,137.68,43.2c36.11,12.53,70.22,24.37,99.16,31.31c53.71,12.88,87.94,15.4,152.63,11.23l5.7-0.36
				c15.28-0.98,32.59-2.08,51.08-3.72c104.81-9.12,224-41.2,285.72-59.51c6.08-1.8,12.09-3.65,18.05-5.49l9.42-2.9
				c64.6-19.69,125.42-43.72,189.81-69.16c29.51-11.66,60.03-23.72,91.2-35.43c41.58-15.63,82.18-32.15,121.45-48.13
				c59.53-24.22,115.75-47.1,170.14-64.87l2.17-0.71c99.27-32.43,164.96-53.89,200.38-94.34
				C-65.25,1415.53-51.48,1407.02-39.46,1396.23z"/>
			<path class="st11" d="M-109.92,1443.25c10.72-9.63,19.4-19.89,26.05-31.11c61.81-31.18,88.1-107.57,76.06-220.98
				c-6.63-62.41-21.58-118.46-44.43-166.61c-31.74-67.49-71.1-113.66-105.83-154.4c-11.46-13.45-22.29-26.15-32.32-38.97
				c-15.72-20.24-28.87-42-40.19-66.51c-19.91-43.09-20.04-90.99-0.37-134.86c29.63-66.1,101.3-119.34,201.8-149.88
				c20.17-6.13,41.01-11.76,61.17-17.19c57.19-15.43,116.32-31.39,168.34-61c85.42-48.57,147.45-136.82,158.03-224.79
				c10.5-88.46-30.71-160.51-76.2-192.68l-2.49,3.51c44.45,31.43,84.7,101.95,74.41,188.65C343.7,263.1,282.5,350.07,198.23,398
				c-51.54,29.33-110.41,45.22-167.33,60.58c-20.19,5.45-41.07,11.08-61.3,17.23c-101.7,30.92-174.32,84.99-204.47,152.24
				c-20.18,45.03-20.05,94.19,0.39,138.43c11.46,24.81,24.78,46.84,40.71,67.35c10.09,12.9,20.95,25.63,32.44,39.11
				c34.55,40.53,73.72,86.48,105.21,153.45c22.65,47.72,37.46,103.3,44.04,165.23c8.28,77.97,2.11,178.9-74.28,216.96l-0.57,0.28
				l-0.33,0.55c-26.89,45.96-89.32,75.87-188.04,112.03c-32.65,11.96-66.21,25.2-101.73,39.23
				c-61.51,24.29-125.12,49.4-193.19,71.48c-25.27,8.2-49.97,16.41-74.34,24.51c-72.3,24.04-140.59,46.75-212.9,65.51
				c-4.18,1.09-8.39,2.2-12.62,3.32c-5.06,1.35-10.16,2.7-15.3,4.02c-63.37,16.34-184.98,45.86-287.41,60.01l-15.88,2.19
				c-14.46,1.99-28.12,3.86-40.62,5.83l-15,2.38c-51.9,8.27-83.22,13.27-134.46,7.1c-38.53-4.64-85.05-18.44-138.9-34.42
				c-32.64-9.68-66.4-19.7-101.78-28.66c-53.04-13.66-107.07-7.75-159.33-2.04c-53.94,5.9-109.72,11.99-163.28-4.02
				c-76.46-22.78-140.42-97.29-148.76-173.3l-4.28,0.47c8.52,77.63,73.79,153.71,151.81,176.96c54.4,16.26,110.61,10.11,164.98,4.17
				c51.87-5.67,105.5-11.53,157.79,1.93c35.3,8.94,69.02,18.94,101.62,28.61c54.04,16.04,100.72,29.88,139.61,34.56
				c51.84,6.24,83.39,1.21,135.65-7.13l14.99-2.38c12.46-1.96,26.1-3.83,40.53-5.81l15.89-2.19
				c102.63-14.17,224.42-43.74,287.89-60.1c5.15-1.32,10.26-2.68,15.34-4.03c4.22-1.12,8.42-2.24,12.59-3.32
				c72.45-18.79,140.81-41.52,213.18-65.59c24.36-8.1,49.05-16.31,74.31-24.5c68.21-22.12,131.87-47.26,193.45-71.57
				c35.5-14.01,69.03-27.25,101.63-39.19C-198.38,1497.86-143.89,1473.75-109.92,1443.25z"/>
			<path class="st12" d="M-125.86,1457.1c19.13-17.18,31.69-35.03,38.79-54.4c51.01-33.74,68.9-107.4,53.27-218.88
				c-8.75-62.36-23.51-117.46-43.87-163.77c-27.1-62.27-58.77-107.48-86.72-147.38c-11.82-16.87-22.98-32.8-32.77-48.59
				c-12.09-19.49-21.94-40.64-31-66.57c-14.75-42.23-11.35-86.73,9.86-128.68C-186.05,565-114.38,513.23-16.48,483.06
				c19.65-6.05,39.94-11.66,59.56-17.09c56.27-15.56,114.45-31.65,165.97-60.41c83.52-46.59,147.39-131.2,162.7-215.54
				c15.91-88.47-20.18-158.34-55.92-191.3l-2.92,3.17c34.94,32.22,70.2,100.62,54.6,187.37c-15.09,83.12-78.12,166.55-160.56,212.55
				c-51.07,28.51-108.99,44.53-165.01,60.02c-19.65,5.43-39.97,11.05-59.68,17.13c-99.02,30.51-171.62,83.05-204.4,147.93
				c-21.74,43.03-25.23,88.69-10.08,132.05c9.17,26.24,19.15,47.66,31.41,67.42c9.86,15.89,21.05,31.87,32.9,48.79
				c27.83,39.73,59.37,84.76,86.3,146.64c20.21,45.96,34.86,100.68,43.55,162.64c15.43,110.12-2.06,182.45-51.97,215.08l-0.6,0.39
				l-0.24,0.68c-17.29,48.12-69.67,86.96-175.16,129.84l-25,10.2c-80.81,33-172.39,70.41-273.09,98.15l-22.7,6.26
				c-92.25,25.45-179.38,49.49-271.04,69.27c-5.26,1.14-10.56,2.33-15.89,3.53c-4.14,0.93-8.31,1.87-12.51,2.79
				c-80.09,17.63-197.28,43.1-289.94,60.66c-18.8,3.59-38.63,7.52-56.3,11.97c-16.7,4.2-31.36,8.46-44.29,12.2
				c-34.75,10.07-62.21,18.03-103.29,17.9c-49.89-0.16-117.33-18.07-188.74-37.04c-18.27-4.85-36.94-9.81-55.85-14.63
				c-50.48-12.86-101.75-8.52-151.33-4.33c-52.25,4.42-106.27,8.98-158.11-7.17c-72.32-22.47-134.94-93.4-145.68-164.99l-4.26,0.64
				c11.15,74.31,73.66,145.16,148.66,168.46c52.65,16.4,107.1,11.8,159.76,7.35c49.22-4.16,100.12-8.47,149.91,4.21
				c18.89,4.81,37.55,9.77,55.81,14.62c71.68,19.04,139.39,37.03,189.83,37.19c41.7,0.13,69.41-7.9,104.5-18.07
				c12.9-3.74,27.52-7.98,44.14-12.16c17.56-4.42,37.32-8.34,56.05-11.91c92.72-17.57,209.95-43.05,290.06-60.69
				c4.21-0.92,8.38-1.86,12.53-2.8c5.32-1.2,10.6-2.39,15.85-3.52c91.78-19.8,178.97-43.86,271.28-69.33l22.7-6.26
				c100.95-27.82,192.66-65.27,273.58-98.32l25-10.19C-200.09,1508.25-155.23,1483.47-125.86,1457.1z"/>
			<path class="st13" d="M-140.05,1473.52c28.13-25.25,44.57-51.9,49.72-80.31c0.14-0.12,0.27-0.24,0.41-0.36
				c40.68-36.53,49.96-103.36,30.12-216.36c-11.26-64.05-25.43-116.68-43.31-160.93c-21.92-54.87-45.93-97.52-67.12-135.16
				c-12.5-22.21-24.31-43.19-33.73-63.38c-8.84-18.96-15.37-38.89-21.81-66.64c-21-90.41,39.49-207.16,221.96-264.19
				c19.11-5.97,38.83-11.56,57.9-16.96c55.37-15.69,112.61-31.92,163.64-59.84c82.93-45.35,147.06-124.39,167.36-206.29
				c20.26-82.37-5.12-152.09-35.63-189.87l-3.35,2.71c29.86,36.98,54.68,105.3,34.8,186.13c-20.01,80.77-83.34,158.76-165.24,203.55
				c-50.6,27.69-107.61,43.85-162.75,59.47c-19.1,5.41-38.85,11.01-58.01,17c-185.12,57.84-246.33,176.92-224.87,269.27
				c6.52,28.05,13.13,48.24,22.1,67.48c9.49,20.34,21.34,41.39,33.88,63.67c21.12,37.52,45.05,80.04,66.87,134.65
				c17.77,43.97,31.85,96.32,43.06,160.07c19.71,112.25,10.66,178.17-29.68,213.24l-0.57,0.5l-0.13,0.75
				c-9.53,54.71-62.64,103.01-162.34,147.67c-83.54,37.42-184.66,79.27-301.26,106c-108.91,24.97-204.31,44.37-300.23,61.04
				c-6.28,1.09-12.6,2.27-18.97,3.45l-9.91,1.83c-100.3,18.41-209.64,41.34-292.48,61.32c-23.22,5.63-41.04,10.69-56.1,15.93
				c-21.88,7.62-39.88,15.66-55.76,22.76c-28.67,12.82-53.44,23.89-89.95,27.98c-62.27,6.97-151.39-15.65-245.74-39.6l-2.76-0.7
				c-47.9-12.16-96.41-9.33-143.33-6.6c-50.56,2.94-102.83,5.98-152.95-10.33c-69.3-22.48-129.28-88.38-142.61-156.68l-4.22,0.83
				c13.61,69.74,74.81,137.01,145.5,159.95c50.89,16.57,103.57,13.5,154.53,10.54c46.59-2.71,94.77-5.51,142.02,6.48l2.76,0.7
				c94.74,24.05,184.23,46.77,247.28,39.7c37.17-4.16,62.22-15.36,91.22-28.32c16.57-7.41,33.71-15.07,55.42-22.63
				c14.92-5.19,32.62-10.22,55.7-15.81c82.77-19.97,192.02-42.87,292.24-61.27l9.92-1.83c6.36-1.18,12.66-2.35,18.92-3.44
				c95.99-16.69,191.47-36.1,300.46-61.09c116.96-26.82,218.33-68.77,302.06-106.27C-205.5,1521.14-167.29,1497.98-140.05,1473.52z"
				/>
			<path class="st14" d="M-151.65,1491.32c37.24-33.44,56.99-69.79,58.01-107.64c35.21-43.71,29.1-114.54,7.82-214.53
				c-10.38-48.76-23.58-105.67-42.73-158.08c-15.81-43.25-32.01-79.86-46.31-112.17c-14.6-32.99-27.21-61.48-35.91-88.91
				c-6.68-21.08-9.88-41.91-12.63-66.71c-8.88-80.35,46.6-195.08,232.26-253.95c18.56-5.88,37.69-11.45,56.2-16.82
				c54.47-15.83,110.8-32.2,161.35-59.28c81.13-43.44,147.05-118.93,172.01-197.03c20.65-65.02,14.91-135.45-15.36-188.4l-3.74,2.14
				c29.68,51.92,35.29,121.06,14.99,184.95c-24.64,77.07-89.76,151.62-169.94,194.55c-50.16,26.87-106.26,43.18-160.52,58.95
				c-18.53,5.39-37.69,10.95-56.3,16.86c-188.14,59.66-244.31,176.55-235.24,258.52c2.77,25.05,6.01,46.13,12.8,67.54
				c8.77,27.65,21.42,56.25,36.07,89.35c14.27,32.24,30.44,68.79,46.2,111.9c19.06,52.16,32.22,108.88,42.57,157.5
				c21.11,99.18,27.23,169.16-7.41,211.48l-0.47,0.58l-0.02,0.74c-1.23,60.93-52.96,118.16-149.6,165.52
				c-104.29,51.11-203.87,85.02-304.44,103.65c-108.39,20.08-209.21,33.54-306.72,46.55c-7.46,0.99-14.97,2.11-22.55,3.24
				l-6.81,1.01c-107.39,15.91-214.92,38.5-295.01,61.98c-22.3,6.57-40.58,13.08-55.89,19.9c-24.45,10.9-42.94,22.36-60.82,33.44
				c-26.17,16.22-48.77,30.23-83.02,37.94c-64.18,14.44-159.25-5.38-252.43-28.96c-45.22-11.44-90.9-10.09-135.07-8.79
				c-48.95,1.44-99.57,2.93-148.04-13.59c-66.18-22.48-123.56-83.5-139.54-148.39l-4.18,1.03
				c16.32,66.24,74.85,128.51,142.34,151.43c49.2,16.77,100.22,15.27,149.56,13.81c43.87-1.29,89.25-2.63,133.88,8.66
				c93.69,23.7,189.36,43.63,254.43,28.98c34.96-7.87,57.84-22.05,84.34-38.48c17.76-11,36.12-22.38,60.3-33.17
				c15.13-6.75,33.24-13.19,55.35-19.7c79.9-23.43,187.22-45.98,294.42-61.86l6.81-1.01c7.56-1.13,15.05-2.24,22.49-3.23
				c97.56-13.02,198.44-26.48,306.93-46.59c100.95-18.71,200.9-52.73,305.55-104.02C-207.2,1533.4-175.76,1512.97-151.65,1491.32z"
				/>
			<path class="st15" d="M-159.7,1508.88c45.77-41.1,67.64-87.34,62.67-134.76c24.5-45.77,10.73-110.83-14.81-212.31
				c-1.88-7.47-3.77-15.06-5.68-22.72c-10.91-43.74-22.18-88.97-36.48-132.51c-8.4-25.58-16.42-48.58-24.18-70.83
				c-18.29-52.44-32.73-93.86-39.44-132.77c-3.82-22.13-3.81-43.34-3.43-66.79c1.3-80.49,65.71-186.79,242.59-243.73
				c17.99-5.79,36.53-11.32,54.45-16.66c53.59-15.98,109.01-32.5,159.11-58.75c80.65-42.22,146.68-112.42,176.65-187.77
				c34.47-87.12,14.9-159.71,4.89-186.88l-4.04,1.49c9.84,26.7,29.08,98.07-4.85,183.81c-29.6,74.43-94.89,143.79-174.64,185.55
				c-49.73,26.06-104.95,42.52-158.35,58.44c-17.94,5.35-36.5,10.88-54.54,16.69C-158.82,546-224.03,654.14-225.36,736.13
				c-0.38,23.67-0.38,45.1,3.49,67.59c6.77,39.26,21.27,80.83,39.62,133.46c7.75,22.23,15.77,45.21,24.16,70.75
				c14.25,43.39,25.51,88.54,36.4,132.2c1.91,7.67,3.81,15.26,5.69,22.73c25.39,100.9,39.07,165.38,14.88,209.8l-0.32,0.6l0.07,0.67
				c7.4,67.25-41.22,132.38-136.89,183.43c-97.31,51.9-200.8,85.99-307.61,101.31c-79.49,11.4-153.4,17.87-231.63,24.72
				c-26.97,2.36-54.08,4.74-81.58,7.34c-8.81,0.83-17.7,1.84-26.68,2.86l-3.16,0.36c-110.08,12.52-218.53,35.35-297.53,62.64
				c-21.95,7.61-40.15,15.42-55.66,23.88c-25.8,14.08-44.72,29.3-63.02,44.02c-23.58,18.97-45.85,36.9-78.94,48.01
				c-53.79,18.08-137.65,12.31-256.37-17.63c-42.41-10.69-85.12-10.77-126.43-10.85c-49.66-0.09-96.56-0.18-143.5-16.97
				c-61.97-22.08-118.09-79.7-136.49-140.1l-4.12,1.26c18.77,61.63,76,120.39,139.16,142.9c47.64,17.04,97.11,17.13,144.94,17.22
				c41.05,0.08,83.5,0.16,125.39,10.72c121.21,30.56,203.44,36.14,258.79,17.53c33.81-11.36,56.37-29.52,80.26-48.74
				c18.15-14.6,36.91-29.7,62.38-43.6c15.3-8.35,33.3-16.06,55.01-23.59c78.72-27.2,186.82-49.96,296.61-62.44l3.16-0.36
				c8.95-1.02,17.81-2.02,26.6-2.85c27.49-2.6,54.59-4.97,81.55-7.33c78.3-6.85,152.26-13.33,231.87-24.75
				c107.31-15.4,211.28-49.64,309.03-101.77C-206.02,1545.03-180.41,1527.48-159.7,1508.88z"/>
			<path class="st16" d="M-165.35,1526.09c53.87-48.37,77.18-104.96,64.88-161.51c13.1-43.13-2.94-96.02-25.1-169.1
				c-3.96-13.05-8.09-26.7-12.28-41c-6.96-23.78-13.4-48.23-20.22-74.11c-6.8-25.83-13.84-52.53-21.38-78.26
				c-24.16-83.7-43.25-149.82-45.06-206.1c-0.74-23.03,2.56-45.31,5.76-66.87c14.73-99.24,109.29-186.54,252.95-233.53
				c17.42-5.7,35.34-11.18,52.67-16.48c52.73-16.13,107.25-32.81,156.9-58.24c79.05-40.43,146.81-107.18,181.28-178.51
				c37.72-78.43,31.91-149.8,25.09-185.36l-4.23,0.81c6.72,35.04,12.44,105.36-24.74,182.67
				c-34.06,70.51-101.12,136.52-179.36,176.55C192.51,442.3,138.17,458.92,85.62,475c-17.35,5.31-35.3,10.8-52.75,16.51
				C-112.37,539.01-208.03,627.6-223,728.5c-3.22,21.74-6.56,44.22-5.81,67.63c1.83,56.83,20.98,123.17,45.23,207.17
				c7.52,25.68,14.55,52.36,21.35,78.16c6.53,24.77,13.27,50.39,20.25,74.22c4.19,14.32,8.33,27.98,12.29,41.04
				c22.03,72.66,37.95,125.16,24.94,167.13l-0.17,0.54l0.13,0.56c16.18,73.03-29.08,146.42-124.21,201.38
				c-92.14,53.23-199.61,87.45-310.79,98.97c-71.27,7.38-140.96,10.04-208.36,12.61c-36.25,1.38-73.73,2.81-111.34,4.96
				c-10.01,0.58-20.11,1.37-30.31,2.19c-112.26,9.01-221.62,32.09-300.05,63.31c-21.57,8.62-39.7,17.73-55.43,27.86
				c-26.4,17.15-45.29,36.04-63.57,54.3c-22.58,22.58-43.92,43.9-76.5,58.4c-55.52,24.71-145.55,22.53-260.34-6.32
				c-39.41-9.9-78.98-11.33-117.26-12.71c-48.3-1.75-93.92-3.39-139.51-20.54c-58.69-22.01-112.31-74.99-133.45-131.84l-4.03,1.5
				c21.54,57.95,76.18,111.94,135.97,134.37c46.24,17.4,94.35,19.14,140.87,20.82c38.05,1.37,77.39,2.8,116.36,12.59
				c115.73,29.09,206.73,31.19,263.14,6.08c33.31-14.83,54.92-36.43,77.79-59.29c18.12-18.11,36.85-36.83,62.86-53.73
				c15.48-9.98,33.37-18.97,54.68-27.47c78.05-31.07,186.95-54.04,298.8-63.02c10.17-0.81,20.24-1.61,30.21-2.18
				c37.57-2.15,75.03-3.58,111.26-4.96c67.47-2.57,137.23-5.23,208.64-12.63c111.79-11.57,219.85-45.99,312.51-99.52
				C-203.29,1556.45-182.73,1541.7-165.35,1526.09z"/>
			<path class="st17" d="M-169.09,1542.92c61.52-55.23,85.67-122.69,65.12-187.86c3.95-38.55-12.42-81.1-33.13-134.92
				c-8.37-21.75-17.85-46.4-26.77-73.02c-13.39-39.93-24.48-83.94-35.21-126.5c-1.94-7.7-3.87-15.38-5.82-23.01
				c-23.81-95.08-31.75-157.48-26.54-208.63c2.47-23.38,8.82-45.53,14.96-66.94c27.34-95.37,123.33-176.77,263.35-223.32
				c16.8-5.59,34.08-11.01,50.78-16.26c51.9-16.3,105.56-33.15,154.81-57.76c78.81-39.36,146.56-101.05,185.89-169.26
				C470.77,199.02,486,137.17,483.6,71.61l-4.3,0.16c2.37,64.74-12.66,125.82-44.67,181.53c-38.92,67.5-106.02,128.57-184.08,167.56
				c-48.94,24.46-102.44,41.26-154.17,57.51c-16.72,5.25-34.01,10.68-50.85,16.28c-141.39,47.01-238.4,129.47-266.13,226.22
				c-6.19,21.59-12.59,43.92-15.1,67.68c-5.27,51.68,2.7,114.52,26.65,210.13c1.94,7.63,3.88,15.31,5.81,23.01
				c10.74,42.64,21.86,86.74,35.3,126.82c8.95,26.71,18.46,51.41,26.84,73.2c20.58,53.48,36.83,95.73,32.82,133.37l0.09,0.88
				c24.93,78.31-16.77,160.3-111.53,219.38c-62.22,38.77-167.19,87.01-313.98,96.62c-67.9,4.45-134.54,3.74-198.99,3.06
				c-41.4-0.44-84.22-0.89-127.2,0.01c-10.31,0.22-20.89,0.68-30.79,1.15c-114.24,5.46-224.52,28.78-302.56,63.97
				c-21.45,9.69-39.5,20.11-55.19,31.84c-26.73,20.13-45.43,42.67-63.51,64.47c-21.77,26.25-42.33,51.05-74.66,68.9
				c-57.18,31.58-151.05,33.35-264.33,4.98c-36.11-9.04-72.27-11.7-107.24-14.27c-47.24-3.47-91.86-6.76-136.35-24.42
				c-55.3-21.88-106.49-70.39-130.42-123.58l-3.93,1.77c24.37,54.15,76.48,103.54,132.76,125.81
				c45.1,17.91,92.14,21.36,137.62,24.71c34.79,2.56,70.76,5.21,106.51,14.16c66.22,16.58,189.02,37.93,267.46-5.39
				c33.05-18.26,53.87-43.35,75.9-69.92c17.92-21.61,36.46-43.96,62.78-63.78c15.43-11.53,33.22-21.79,54.38-31.36
				c77.57-34.98,187.28-58.16,300.99-63.6c9.87-0.47,20.42-0.93,30.67-1.14c42.92-0.9,85.7-0.45,127.07-0.01
				c64.53,0.68,131.26,1.38,199.32-3.07c147.68-9.67,253.35-58.23,315.98-97.27C-199.42,1567.73-183.25,1555.64-169.09,1542.92z"/>
			<path class="st18" d="M-173.87,1561.43c78.58-70.56,80.5-154.59,66.35-215.83c-7.68-33.25-23.34-68.28-41.47-108.84
				c-12.66-28.31-27-60.39-40.91-96.97c-18.05-47.45-30.57-100.76-40.44-146.65c-18.36-86.8-21-155.88-8.06-211.17
				c5.38-22.65,14.13-43.75,24.16-67.01c38.68-89.66,138.48-167.33,273.79-213.1c16.16-5.47,32.75-10.82,48.79-15.99
				c51.09-16.48,103.93-33.53,152.8-57.33c78.79-38.35,146.44-95.17,190.5-160c36.61-54.04,58.6-115.39,65.36-182.35l-4.28-0.43
				c-6.68,66.24-28.43,126.93-64.64,180.36c-43.65,64.22-110.7,120.53-188.82,158.55c-48.6,23.67-101.29,40.67-152.24,57.1
				c-16.06,5.18-32.67,10.54-48.85,16.01c-136.47,46.16-237.2,124.69-276.36,215.47c-10.12,23.45-18.94,44.74-24.4,67.73
				c-13.09,55.92-10.46,125.61,8.03,213.05c9.91,46.05,22.48,99.56,40.63,147.28c13.95,36.7,28.32,68.84,41,97.2
				c18.04,40.36,33.63,75.21,41.21,108.05c15.65,67.78,11.25,164.06-98.76,237.73c-60.56,40.57-164.75,89.85-317.18,94.28
				c-66.39,1.93-131.77-1.84-194.99-5.5c-44.82-2.59-91.16-5.27-137.69-5.91c-8.97-0.12-18.61-0.09-31.26,0.11
				c-116.13,1.88-227.32,25.44-305.07,64.64c-21.07,10.64-39.55,22.69-54.93,35.81c-26.85,23.06-45.19,49.15-62.94,74.41
				c-21.09,30.02-41.04,58.39-73.32,79.63c-58.06,38.18-155.87,44.11-268.36,16.28c-32.45-8.16-64.87-11.86-96.23-15.44
				c-46.53-5.31-90.47-10.32-134.17-28.69c-51.81-21.71-100.63-65.9-127.42-115.33l-3.79,2.05
				c27.24,50.26,76.87,95.18,129.54,117.25c44.26,18.6,88.5,23.65,135.35,28.99c31.22,3.56,63.5,7.25,95.68,15.34
				c113.66,28.12,212.71,21.98,271.76-16.86c33-21.69,53.14-50.38,74.48-80.75c17.6-25.05,35.77-50.95,62.22-73.62
				c15.12-12.9,33.31-24.76,54.07-35.24c77.19-38.91,187.7-62.3,303.2-64.17c12.61-0.2,22.22-0.24,31.14-0.11
				c46.44,0.65,92.73,3.32,137.5,5.91c63.31,3.66,128.78,7.44,195.36,5.5c153.46-4.46,258.42-54.13,319.45-95.01
				C-195.32,1579.34-183.97,1570.49-173.87,1561.43z"/>
			<path class="st19" d="M-173.3,1576.42c70.99-63.75,93.73-149.74,62.26-240.24c-10.45-30.06-27.34-59.08-46.9-92.69
				c-18.59-31.96-39.67-68.17-57.99-111.04c-16.75-39.18-29.79-86.21-39.87-143.77c-14.31-83.29-10.81-155.21,10.41-213.75
				c8.92-24.41,21.37-46.53,33.36-67.09C-162.63,623.14-61.68,551.1,72.23,505c15.45-5.32,31.01-10.48,46.6-15.65
				c50.36-16.69,102.43-33.96,151-56.98c77.97-36.95,147.26-90.48,195.1-150.76c41.63-52.59,70.38-113.44,85.45-180.89l-4.2-0.94
				c-14.93,66.81-43.4,127.09-84.63,179.16c-47.43,59.76-116.17,112.88-193.57,149.54c-48.33,22.91-100.27,40.13-150.51,56.79
				c-15.61,5.17-31.19,10.34-46.65,15.66c-134.88,46.44-236.64,119.15-286.57,204.74c-12.09,20.73-24.64,43.04-33.69,67.78
				c-21.48,59.25-25.05,131.91-10.6,215.95c10.14,57.9,23.27,105.24,40.15,144.73c18.42,43.11,39.57,79.45,58.22,111.51
				c19.44,33.42,36.24,62.28,46.55,91.94c34.3,98.61,2.88,191.81-86.1,255.7c-59.13,42.44-162.71,92.84-320.38,91.94
				c-65.8-0.38-130.76-7.1-193.57-13.59c-47.39-4.9-96.4-9.97-145.59-12.31c-9.5-0.45-19.58-0.74-31.74-0.93
				c-117.98-1.7-230.08,22.1-307.57,65.3c-20.99,11.72-39.36,25.1-54.67,39.79c-26.81,25.86-44.78,55.52-62.15,84.2
				c-20.5,33.85-39.87,65.82-72.2,90.52c-59.05,44.77-160.88,55.08-272.39,27.58c-27.78-6.95-55.49-11.34-82.29-15.58
				c-46.85-7.41-91.1-14.41-134.93-33.98c-48.18-21.45-94.7-61.48-124.43-107.09l-3.61,2.35c30.17,46.27,77.38,86.9,126.29,108.67
				c44.35,19.8,88.87,26.84,136.01,34.3c26.71,4.22,54.32,8.59,81.92,15.5c112.76,27.81,215.95,17.22,276.03-28.33
				c32.99-25.2,52.56-57.51,73.28-91.72c17.23-28.44,35.05-57.86,61.45-83.33c15.01-14.43,33.11-27.59,53.78-39.13
				c76.85-42.85,188.16-66.45,305.41-64.76c12.1,0.18,22.15,0.47,31.59,0.92c49.08,2.33,98.02,7.4,145.36,12.29
				c62.92,6.51,127.98,13.24,193.99,13.62c158.83,0.91,263.26-49.94,322.91-92.75C-189.65,1590.29-181.17,1583.49-173.3,1576.42z"/>
			<path class="st20" d="M-172.09,1591.41c78.22-70.23,100.43-169.78,57.52-264.61c-13.59-30.02-34.16-58.31-55.94-88.25
				c-24.76-34.04-50.36-69.25-71.45-113.44c-18.82-39.44-32.04-86.84-39.29-140.9c-10.65-80.96-0.67-155.77,28.86-216.35
				c12.45-25.44,28.5-48.23,42.57-67.16c58.56-78.86,160.47-145.45,294.72-192.56c14.64-5.14,29.38-10.16,44.15-15.19
				c49.71-16.94,101.11-34.46,149.46-56.74c78.84-36.31,147.89-85.27,199.69-141.52c47.6-51.82,83.11-112.2,105.54-179.47
				l-4.08-1.36c-22.23,66.69-57.43,126.55-104.62,177.92c-51.42,55.86-120,104.45-198.32,140.52
				c-48.15,22.18-99.44,39.67-149.05,56.57c-14.78,5.04-29.53,10.07-44.18,15.21c-135.07,47.38-237.67,114.49-296.75,194.05
				c-14.18,19.1-30.37,42.09-42.98,67.84c-29.9,61.34-40.01,137-29.26,218.81c7.31,54.51,20.66,102.34,39.67,142.18
				c21.26,44.55,48.14,81.51,71.85,114.12c21.65,29.76,42.09,57.87,55.5,87.49c45.04,99.53,16.92,204.39-73.45,273.71
				c-57.86,44.38-160.97,95.95-323.58,89.61c-65.75-2.57-130.78-12.16-193.68-21.44c-49.48-7.3-100.64-14.85-151.98-18.96
				c-10.01-0.8-20.55-1.44-32.21-1.96c-119.8-5.31-232.81,18.73-310.06,65.97c-20.92,12.8-39.23,27.52-54.4,43.76
				c-26.66,28.61-44.14,61.7-61.05,93.71c-19.97,37.81-38.8,73.41-71.39,101.68c-60.47,52.04-163.81,66.57-276.44,38.88
				c-21.15-5.26-42.25-9.56-62.66-13.72c-49.19-10.02-95.66-19.49-141.37-41.26c-44.39-21.09-88.67-57.13-121.48-98.86l-3.38,2.66
				c33.21,42.24,78.04,78.73,123.01,100.09c46.19,22,92.91,31.51,142.36,41.59c20.36,4.15,41.42,8.44,62.48,13.68
				c113.99,28.02,218.77,13.14,280.29-39.8c33.18-28.73,52.22-64.75,72.38-102.93c16.78-31.76,34.13-64.6,60.39-92.78
				c14.91-15.95,32.91-30.43,53.5-43.03c76.54-46.8,188.66-70.61,307.62-65.34c11.61,0.52,22.1,1.16,32.06,1.95
				c51.2,4.1,102.29,11.64,151.7,18.93c63,9.3,128.15,18.91,194.14,21.48c163.89,6.4,267.94-45.68,326.37-90.49
				C-183.31,1601.09-177.56,1596.31-172.09,1591.41z"/>
			<path class="st21" d="M-169.73,1605.85c85.6-76.87,106.08-188.7,51.63-288.41c-17.2-31.5-41.55-59.19-67.33-88.51
				c-29.26-33.27-59.51-67.67-82.55-111.18c-20.87-39.41-33.89-85.85-38.71-138.02c-7.17-79.32,9.63-157.1,47.3-219
				c13.05-21.39,29.5-42.75,51.78-67.24c65.74-72.28,168.42-133.58,305.2-182.23c14.72-5.3,29.53-10.49,44.37-15.7
				c48.17-16.91,97.97-34.4,145.24-55.53c79.37-35.46,149.98-81.25,204.27-132.29c55.21-52.03,96.3-110.28,125.62-178.08l-3.95-1.71
				c-29.09,67.25-69.85,125.03-124.62,176.65c-53.92,50.81-124.15,96.22-203.08,131.5c-47.11,21.06-96.83,38.52-144.91,55.4
				c-14.85,5.21-29.67,10.42-44.39,15.72c-137.45,48.89-240.72,110.6-306.93,183.39c-22.46,24.69-39.07,46.27-52.27,67.89
				c-38.15,62.68-55.17,141.39-47.91,221.63c4.87,52.75,18.05,99.73,39.19,139.65c23.28,43.97,53.7,78.56,83.12,112.01
				c25.62,29.13,49.82,56.65,66.79,87.72c55.51,101.66,31.61,216.19-60.78,291.76c-80.16,65.54-196.22,96.54-326.79,87.27
				c-66.03-4.68-131.43-17.12-194.69-29.14c-51.27-9.74-104.29-19.82-157.46-25.75c-10.36-1.16-21.36-2.17-32.68-3
				c-121.6-8.92-235.51,15.36-312.55,66.63c-20.87,13.9-39.07,29.96-54.12,47.73c-26.43,31.29-43.4,67.76-59.82,103.03
				c-19.47,41.84-37.87,81.36-70.7,113.03c-72.65,69.9-192.57,71.75-280.51,50.19c-8.62-2.13-17.19-4.21-25.7-6.27
				c-57.73-13.97-112.26-27.16-165.13-54.14c-40.35-20.56-82.45-52.75-118.55-90.64l-3.12,2.97c36.42,38.23,78.93,70.73,119.71,91.5
				c53.32,27.21,108.09,40.46,166.08,54.49c8.51,2.06,17.07,4.13,25.69,6.26c89.06,21.83,210.53,19.86,284.53-51.26
				c33.41-32.23,52.83-73.96,71.62-114.32c16.29-35.01,33.14-71.22,59.2-102.06c14.78-17.47,32.68-33.25,53.21-46.93
				c76.25-50.75,189.19-74.77,309.85-65.92c11.27,0.83,22.21,1.83,32.52,2.98c53.01,5.91,105.94,15.97,157.14,25.7
				c63.37,12.04,128.91,24.5,195.19,29.2c131.67,9.35,248.8-21.99,329.82-88.24C-176.44,1611.74-173.03,1608.82-169.73,1605.85z"/>
			<path class="st22" d="M-167.12,1620.46c92.7-83.23,111.09-208.17,45.49-312.33c-21.3-33.81-50.07-61.54-80.54-90.89
				c-33.1-31.89-67.32-64.87-91.87-106.82c-22.78-38.95-35.61-84.42-38.13-135.14c-3.8-78.15,20.17-158.95,65.75-221.68
				c16.5-22.69,36.45-44.71,60.99-67.31c69.64-64.29,170.04-118.86,315.68-171.89c13.15-4.82,26.36-9.59,39.59-14.37
				c48.28-17.44,98.2-35.47,146.02-56.17c82.3-35.62,152.57-77.03,208.86-123.08c62.77-51.36,110.44-109.18,145.71-176.7l-3.81-1.99
				c-35,66.99-82.32,124.34-144.62,175.37c-55.98,45.79-125.91,86.99-207.84,122.46c-47.7,20.65-97.56,38.66-145.77,56.07
				c-13.24,4.78-26.45,9.56-39.61,14.37c-146.19,53.23-247.09,108.07-317.12,172.76c-24.75,22.8-44.88,45.02-61.55,67.95
				c-46.15,63.51-70.41,145.31-66.56,224.42c2.55,51.42,15.57,97.55,38.71,137.1c24.84,42.47,59.28,75.66,92.59,107.75
				c30.27,29.17,58.86,56.72,79.88,90.08c65.23,103.56,46.07,228.23-48.12,309.83c-78.65,68.41-195.85,98.57-330,84.94
				c-66.76-6.78-132.98-22.07-197.02-36.85c-52.63-12.15-107.06-24.72-161.61-32.53c-11.28-1.59-22.43-2.94-33.16-4.04
				c-123.37-12.54-238.2,11.98-315.03,67.29c-20.81,14.99-38.92,32.37-53.83,51.69c-26.16,33.92-42.6,73.7-58.5,112.17
				c-18.15,43.92-36.92,89.34-70.09,124.56c-61.05,64.72-172.72,88.83-284.6,61.5c-72.41-17.79-127.19-38.09-177.63-65.83
				c-36.66-20.14-74.49-47.1-115.65-82.41l-2.8,3.27c41.39,35.51,79.45,62.63,116.38,82.92c50.79,27.93,105.89,48.36,178.68,66.24
				c90.22,22.04,213.46,17.17,288.76-62.73c33.71-35.8,52.63-81.59,70.93-125.87c15.79-38.2,32.12-77.71,57.93-111.18
				c14.66-18.98,32.46-36.08,52.94-50.82c75.99-54.7,189.74-78.94,312.08-66.5c10.67,1.09,21.77,2.44,32.98,4.02
				c54.37,7.79,108.7,20.33,161.25,32.46c64.16,14.81,130.52,30.13,197.55,36.94c135.35,13.75,253.7-16.78,333.26-85.97
				C-169.41,1622.5-168.25,1621.48-167.12,1620.46z"/>
			<path class="st23" d="M-164.11,1635.23c19.86-17.83,36.9-38.26,50.74-61.17c51.88-85.86,47.36-191.32-11.78-275.22
				c-25.84-36.65-61.1-65.95-95.2-94.28c-36.37-30.22-73.98-61.48-99.73-101.48c-72.1-112.04-31.1-264.22,46.65-356.65
				c99.94-118.8,258.21-177.59,425.77-239.84c203.54-75.61,414.01-153.79,531.44-348.11l-3.68-2.23
				c-116.66,193.02-326.41,270.94-529.25,346.3C-17.26,565-176.05,623.97-276.72,743.65c-78.77,93.64-120.21,247.96-46.98,361.75
				c26.1,40.56,63.97,72.03,100.59,102.46c33.88,28.15,68.92,57.27,94.43,93.45c58.15,82.48,62.6,186.14,11.62,270.52
				c-66.56,110.14-208.71,162.5-380.28,140.02c-67.2-8.81-133.91-26.87-198.43-44.33c-65.08-17.62-132.37-35.84-200.32-44.62
				c-125.55-16.22-288.93,7.72-371.05,123.6c-25.86,36.51-41.76,79.53-57.13,121.14c-17.7,47.9-36,97.44-69.52,136.26
				c-62.04,71.85-175.36,100.42-288.7,72.81c-103.17-25.14-195.63-89.04-277.21-145.42l-2.45,3.54
				c81.88,56.6,174.69,120.74,278.64,146.07c114.89,27.99,229.87-1.14,292.97-74.18c34.03-39.41,52.47-89.32,70.3-137.58
				c15.28-41.35,31.07-84.11,56.61-120.15c81-114.3,242.68-137.88,366.99-121.82c67.66,8.74,134.81,26.92,199.75,44.5
				c64.65,17.51,131.5,35.6,199,44.45C-360.14,1734.17-241.05,1704.31-164.11,1635.23z"/>
		</g>
	</g>
	<g style="clip-path:url(#SVGID_00000180354371713123393850000009866922572739483264_);">
		
			<linearGradient id="SVGID_00000130616679811213551010000012760504181828904625_" gradientUnits="userSpaceOnUse" x1="469.4333" y1="548.6651" x2="254.5527" y2="-11.978">
			<stop  offset="0" style="stop-color:#FFFFFF"/>
			<stop  offset="1" style="stop-color:#3E6DAA"/>
		</linearGradient>
		<path style="fill:url(#SVGID_00000130616679811213551010000012760504181828904625_);" d="M717.93,523.99h-31.27V34.86
			c-1.16-3.98-3.99-7.26-7.77-8.99s-8.11-1.73-11.88,0c-3.77,1.73-6.61,5.01-7.77,8.99v489.13h-39.26V116.1
			c1.26-4.31,0.41-8.97-2.28-12.56c-2.7-3.6-6.93-5.71-11.42-5.71c-4.49,0-8.72,2.11-11.42,5.71s-3.54,8.25-2.28,12.56v407.89h-39.4
			V190.19c1.26-4.31,0.41-8.97-2.28-12.56s-6.93-5.71-11.42-5.71s-8.72,2.11-11.42,5.71c-2.7,3.6-3.54,8.25-2.28,12.56v333.79h-39.4
			V272.57c1.26-4.31,0.41-8.97-2.28-12.56c-2.7-3.6-6.93-5.71-11.42-5.71c-4.49,0-8.72,2.11-11.42,5.71s-3.54,8.25-2.28,12.56
			v251.27h-39.4v-159.9c1.26-4.31,0.41-8.97-2.28-12.56c-2.7-3.6-6.93-5.71-11.42-5.71c-4.49,0-8.72,2.11-11.42,5.71
			s-3.54,8.25-2.28,12.56v160.04H353.3V405.2c1.26-4.31,0.41-8.97-2.28-12.56c-2.7-3.6-6.93-5.71-11.42-5.71
			c-4.49,0-8.72,2.11-11.42,5.71c-2.7,3.6-3.54,8.25-2.28,12.56v118.78h-39.97V418.19c-1.16-3.98-3.99-7.26-7.77-8.99
			s-8.11-1.73-11.88,0c-3.77,1.73-6.61,5.01-7.77,8.99v105.79h-39.4V406.92c1.26-4.31,0.41-8.97-2.28-12.56
			c-2.7-3.6-6.93-5.71-11.42-5.71c-4.49,0-8.72,2.11-11.42,5.71s-3.54,8.25-2.28,12.56v116.92h-39.26V418.19
			c1.26-4.31,0.41-8.97-2.28-12.56c-2.7-3.6-6.93-5.71-11.42-5.71s-8.72,2.11-11.42,5.71c-2.7,3.6-3.54,8.25-2.28,12.56v105.79
			h-39.4v-52.54c-1.16-3.98-3.99-7.26-7.77-8.99s-8.11-1.73-11.88,0c-3.77,1.73-6.61,5.01-7.77,8.99v52.54H45.78
			C41.47,522.73,722.24,522.73,717.93,523.99L717.93,523.99z"/>
	</g>
</g>
<path class="st26" d="M152.53,431.07v82.09c0,7.85-6.42,14.27-14.27,14.27h0c-7.85,0-14.27-6.42-14.27-14.27v-82.09
	c0-7.85,6.42-14.27,14.27-14.27h0C146.11,416.8,152.53,423.22,152.53,431.07z"/>
<path class="st26" d="M219.46,419.45v93.72c0,7.85-6.42,14.27-14.27,14.27h0c-7.85,0-14.27-6.42-14.27-14.27v-93.72
	c0-7.85,6.42-14.27,14.27-14.27h0C213.04,405.17,219.46,411.6,219.46,419.45z"/>
<path class="st26" d="M286.35,384.58v128.59c0,7.85-6.42,14.27-14.27,14.27l0,0c-7.85,0-14.27-6.42-14.27-14.27V384.58
	c0-7.85,6.42-14.27,14.27-14.27l0,0C279.93,370.3,286.35,376.73,286.35,384.58z"/>
<path class="st26" d="M353.25,361.33v151.83c0,7.85-6.42,14.27-14.27,14.27h0c-7.85,0-14.27-6.42-14.27-14.27V361.33
	c0-7.85,6.42-14.27,14.27-14.27h0C346.82,347.06,353.25,353.48,353.25,361.33z"/>
<path class="st26" d="M420.14,314.84v198.33c0,7.85-6.42,14.27-14.27,14.27h0c-7.85,0-14.27-6.42-14.27-14.27V314.84
	c0-7.85,6.42-14.27,14.27-14.27h0C413.72,300.56,420.14,306.99,420.14,314.84z"/>
<path class="st26" d="M487.04,210.23v302.94c0,7.85-6.42,14.27-14.27,14.27h0c-7.85,0-14.27-6.42-14.27-14.27V210.23
	c0-7.85,6.42-14.27,14.27-14.27h0C480.61,195.96,487.04,202.38,487.04,210.23z"/>
<path class="st27" d="M152.53,442.69v70.47c0,7.85-6.42,14.27-14.27,14.27h0c-7.85,0-14.27-6.42-14.27-14.27v-70.47
	c0-7.85,6.42-14.27,14.27-14.27h0C146.11,428.42,152.53,434.84,152.53,442.69z"/>
<path class="st27" d="M219.46,442.69v70.47c0,7.85-6.42,14.27-14.27,14.27h0c-7.85,0-14.27-6.42-14.27-14.27v-70.47
	c0-7.85,6.42-14.27,14.27-14.27h0C213.04,428.42,219.46,434.84,219.46,442.69z"/>
<path class="st27" d="M286.35,442.69v70.47c0,7.85-6.42,14.27-14.27,14.27l0,0c-7.85,0-14.27-6.42-14.27-14.27v-70.47
	c0-7.85,6.42-14.27,14.27-14.27l0,0C279.93,428.42,286.35,434.84,286.35,442.69z"/>
<path class="st27" d="M353.25,442.69v70.47c0,7.85-6.42,14.27-14.27,14.27h0c-7.85,0-14.27-6.42-14.27-14.27v-70.47
	c0-7.85,6.42-14.27,14.27-14.27h0C346.82,428.42,353.25,434.84,353.25,442.69z"/>
<path class="st27" d="M420.14,442.69v70.47c0,7.85-6.42,14.27-14.27,14.27h0c-7.85,0-14.27-6.42-14.27-14.27v-70.47
	c0-7.85,6.42-14.27,14.27-14.27h0C413.72,428.42,420.14,434.84,420.14,442.69z"/>
<path class="st27" d="M487.04,442.69v70.47c0,7.85-6.42,14.27-14.27,14.27h0c-7.85,0-14.27-6.42-14.27-14.27v-70.47
	c0-7.85,6.42-14.27,14.27-14.27h0C480.61,428.42,487.04,434.84,487.04,442.69z"/>
</svg>
