<?xml version="1.0" encoding="utf-8"?>
<!-- Generator: Adobe Illustrator 27.5.0, SVG Export Plug-In . SVG Version: 6.00 Build 0)  -->
<svg version="1.1" id="Layer_1" xmlns="http://www.w3.org/2000/svg" xmlns:xlink="http://www.w3.org/1999/xlink" x="0px" y="0px"
	 viewBox="0 0 50 50" style="enable-background:new 0 0 50 50;" xml:space="preserve">
<style type="text/css">
	.st0{fill:#3e6daa;}
	.st1{fill-rule:evenodd;clip-rule:evenodd;fill:#FFFFFF;}
</style>
<circle class="st0" cx="25" cy="24.91" r="21.27"/>
<path class="st1" d="M20.43,21.2c0-0.16,0.08-0.3,0.22-0.38s0.3-0.08,0.44,0s0.22,0.22,0.22,0.38v6.04h2.03v-4.22
	c0-0.16,0.08-0.3,0.22-0.38s0.3-0.08,0.44,0s0.22,0.22,0.22,0.38v4.22h2.03v-2.39c0-0.15,0.09-0.29,0.22-0.37s0.3-0.08,0.43,0
	c0.13,0.08,0.22,0.22,0.22,0.37v2.39h2.03v-0.57c0-0.12,0.04-0.23,0.12-0.32c0.08-0.08,0.2-0.13,0.31-0.13
	c0.12,0,0.23,0.05,0.31,0.13s0.13,0.2,0.12,0.32v0.57h0.88l0,0c0.16,0,0.3,0.08,0.38,0.22s0.08,0.3,0,0.44
	c-0.08,0.14-0.22,0.22-0.38,0.22H19.1c-0.16,0-0.3-0.08-0.38-0.22s-0.08-0.3,0-0.44c0.08-0.14,0.22-0.22,0.38-0.22h1.32L20.43,21.2z
	 M40.58,23.1L40.58,23.1c0-2.35-0.62-4.66-1.79-6.69s-2.86-3.72-4.9-4.9c-2.03-1.17-4.34-1.79-6.69-1.79V14
	c2.41,0,4.73,0.96,6.44,2.67s2.67,4.02,2.67,6.44L40.58,23.1z M34.1,25.26c0,2.26-0.84,4.45-2.37,6.12l0,0l3.02,3.03l0,0
	c2.33-2.48,3.62-5.75,3.62-9.15H34.1z M31.12,32L31.12,32l3.03,3.03c-2.37,2.22-5.46,3.51-8.71,3.61v-4.29
	C27.55,34.25,29.56,33.42,31.12,32L31.12,32z M24.56,34.35c-2.11-0.1-4.12-0.93-5.68-2.35l0,0l-3.03,3.03
	c2.37,2.22,5.46,3.51,8.71,3.61L24.56,34.35z M18.26,31.38L18.26,31.38l-3.03,3.03c-2.22-2.37-3.51-5.46-3.61-8.71h4.29
	C16.01,27.81,16.84,29.82,18.26,31.38L18.26,31.38z M15.91,24.82c0.1-2.11,0.93-4.12,2.35-5.68l0,0l-3.03-3.03l0,0
	c-2.22,2.37-3.51,5.46-3.61,8.71H15.91L15.91,24.82z M18.88,18.52L18.88,18.52l-3.03-3.03l0,0c2.48-2.33,5.75-3.62,9.15-3.61v4.28
	C22.74,16.16,20.55,17,18.88,18.52L18.88,18.52z"/>
</svg>
