<?xml version="1.0" encoding="utf-8"?>
<!-- Generator: Adobe Illustrator 27.5.0, SVG Export Plug-In . SVG Version: 6.00 Build 0)  -->
<svg version="1.1" id="Layer_1" xmlns="http://www.w3.org/2000/svg" xmlns:xlink="http://www.w3.org/1999/xlink" x="0px" y="0px"
	 viewBox="0 0 50 50" style="enable-background:new 0 0 50 50;" xml:space="preserve">
<style type="text/css">
	.st0{fill:#3e6daa;}
	.st1{clip-path:url(#SVGID_00000108292742822973913050000012351870928176533152_);}
	.st2{fill:#FFFFFF;}
</style>
<circle class="st0" cx="25" cy="25" r="21.27"/>
<g>
	<g>
		<defs>
			<rect id="SVGID_1_" x="14.32" y="15.62" width="20.61" height="20.61"/>
		</defs>
		<clipPath id="SVGID_00000029741438363675272590000004970544568634548885_">
			<use xlink:href="#SVGID_1_"  style="overflow:visible;"/>
		</clipPath>
		<g style="clip-path:url(#SVGID_00000029741438363675272590000004970544568634548885_);">
			<path class="st2" d="M38.2,23.63c-1.32,0-2,0.84-2.45,1.4c-0.42,0.51-0.56,0.64-0.87,0.64s-0.45-0.13-0.87-0.64
				c-0.45-0.56-1.13-1.4-2.45-1.4s-2,0.84-2.45,1.4c-0.42,0.51-0.56,0.64-0.87,0.64s-0.45-0.13-0.87-0.64
				c-0.45-0.55-1.13-1.4-2.45-1.4s-2,0.84-2.45,1.4c-0.42,0.51-0.56,0.64-0.87,0.64s-0.45-0.13-0.87-0.64
				c-0.45-0.56-1.13-1.4-2.45-1.4s-2,0.84-2.45,1.4c-0.42,0.51-0.56,0.64-0.87,0.64s-0.45-0.13-0.87-0.64
				c-0.45-0.56-1.13-1.4-2.45-1.4c-0.56,0-1.02,0.46-1.02,1.02s0.46,1.02,1.02,1.02c0.31,0,0.45,0.13,0.87,0.64
				c0.45,0.55,1.13,1.4,2.45,1.4s2-0.84,2.45-1.4c0.42-0.51,0.56-0.64,0.87-0.64s0.45,0.13,0.87,0.64c0.45,0.56,1.13,1.4,2.45,1.4
				s2-0.84,2.45-1.4c0.42-0.51,0.56-0.64,0.87-0.64s0.45,0.13,0.87,0.64c0.45,0.55,1.13,1.4,2.45,1.4s2-0.84,2.45-1.4
				c0.42-0.51,0.56-0.64,0.87-0.64s0.45,0.13,0.87,0.64c0.45,0.55,1.13,1.4,2.45,1.4s2-0.84,2.45-1.4c0.42-0.51,0.56-0.64,0.87-0.64
				c0.56,0,1.02-0.46,1.02-1.02S38.76,23.63,38.2,23.63z"/>
			<path class="st2" d="M38.2,18.52c-1.32,0-2,0.84-2.45,1.4c-0.42,0.51-0.56,0.64-0.87,0.64s-0.45-0.13-0.87-0.64
				c-0.45-0.56-1.13-1.4-2.45-1.4s-2,0.84-2.45,1.4c-0.42,0.51-0.56,0.64-0.87,0.64s-0.45-0.13-0.87-0.64
				c-0.45-0.55-1.13-1.4-2.45-1.4s-2,0.84-2.45,1.4c-0.42,0.51-0.56,0.64-0.87,0.64s-0.45-0.13-0.87-0.64
				c-0.45-0.56-1.13-1.4-2.45-1.4s-2,0.84-2.45,1.4c-0.42,0.51-0.56,0.64-0.87,0.64s-0.45-0.13-0.87-0.64
				c-0.45-0.56-1.13-1.4-2.45-1.4c-0.56,0-1.02,0.46-1.02,1.02s0.46,1.02,1.02,1.02c0.31,0,0.45,0.13,0.87,0.64
				c0.45,0.55,1.13,1.4,2.45,1.4s2-0.84,2.45-1.4c0.42-0.51,0.56-0.64,0.87-0.64s0.45,0.13,0.87,0.64c0.45,0.56,1.13,1.4,2.45,1.4
				s2-0.84,2.45-1.4c0.42-0.51,0.56-0.64,0.87-0.64s0.45,0.13,0.87,0.64c0.45,0.55,1.13,1.4,2.45,1.4s2-0.84,2.45-1.4
				c0.42-0.51,0.56-0.64,0.87-0.64s0.45,0.13,0.87,0.64c0.45,0.55,1.13,1.4,2.45,1.4s2-0.84,2.45-1.4c0.42-0.51,0.56-0.64,0.87-0.64
				c0.56,0,1.02-0.46,1.02-1.02S38.76,18.52,38.2,18.52z"/>
			<path class="st2" d="M38.2,28.74c-1.32,0-2,0.84-2.45,1.4c-0.42,0.51-0.56,0.64-0.87,0.64s-0.45-0.13-0.87-0.64
				c-0.45-0.56-1.13-1.4-2.45-1.4s-2,0.84-2.45,1.4c-0.42,0.51-0.56,0.64-0.87,0.64s-0.45-0.13-0.87-0.64
				c-0.45-0.55-1.13-1.4-2.45-1.4s-2,0.84-2.45,1.4c-0.42,0.51-0.56,0.64-0.87,0.64s-0.45-0.13-0.87-0.64
				c-0.45-0.56-1.13-1.4-2.45-1.4s-2,0.84-2.45,1.4c-0.42,0.51-0.56,0.64-0.87,0.64s-0.45-0.13-0.87-0.64
				c-0.45-0.56-1.13-1.4-2.45-1.4c-0.56,0-1.02,0.46-1.02,1.02c0,0.56,0.46,1.02,1.02,1.02c0.31,0,0.45,0.13,0.87,0.64
				c0.45,0.55,1.13,1.4,2.45,1.4s2-0.84,2.45-1.4c0.42-0.51,0.56-0.64,0.87-0.64s0.45,0.13,0.87,0.64c0.45,0.56,1.13,1.4,2.45,1.4
				s2-0.84,2.45-1.4c0.42-0.51,0.56-0.64,0.87-0.64s0.45,0.13,0.87,0.64c0.45,0.55,1.13,1.4,2.45,1.4s2-0.84,2.45-1.4
				c0.42-0.51,0.56-0.64,0.87-0.64s0.45,0.13,0.87,0.64c0.45,0.55,1.13,1.4,2.45,1.4s2-0.84,2.45-1.4c0.42-0.51,0.56-0.64,0.87-0.64
				c0.56,0,1.02-0.46,1.02-1.02S38.76,28.74,38.2,28.74z"/>
		</g>
	</g>
</g>
</svg>
