<?xml version="1.0" encoding="utf-8"?>
<!-- Generator: Adobe Illustrator 27.5.0, SVG Export Plug-In . SVG Version: 6.00 Build 0)  -->
<svg version="1.1" id="Layer_1" xmlns="http://www.w3.org/2000/svg" xmlns:xlink="http://www.w3.org/1999/xlink" x="0px" y="0px"
	 viewBox="0 0 50 50" style="enable-background:new 0 0 50 50;" xml:space="preserve">
<style type="text/css">
	.st0{fill:#3e6daa;}
	.st1{fill:#FFFFFF;}
</style>
<circle class="st0" cx="25.1" cy="25.31" r="21.27"/>
<path class="st1" d="M25.82,35.46c5.46,0,9.9-4.44,9.9-9.9s-4.44-9.9-9.9-9.9c-1.95,0-3.76,0.57-5.29,1.54l0.08-0.42
	c0.06-0.31-0.03-0.63-0.26-0.85l-2.83-2.83c-0.25-0.25-0.61-0.34-0.94-0.24s-0.58,0.38-0.65,0.72l-0.35,1.74l-1.74,0.35
	c-0.34,0.07-0.62,0.32-0.72,0.65c-0.1,0.33-0.01,0.69,0.24,0.94l2.83,2.83c0.18,0.18,0.42,0.28,0.67,0.28
	c0.06,0,0.12-0.01,0.19-0.02l0.42-0.08c-0.97,1.53-1.54,3.34-1.54,5.29C15.92,31.02,20.36,35.46,25.82,35.46L25.82,35.46z
	 M33.83,25.56c0,4.42-3.6,8.01-8.01,8.01s-8.01-3.59-8.01-8.01c0-1.87,0.65-3.59,1.73-4.95l1.34,1.34
	c-0.74,1.01-1.19,2.26-1.19,3.61c0,3.38,2.75,6.13,6.13,6.13s6.13-2.75,6.13-6.13s-2.75-6.13-6.13-6.13c-1.35,0-2.6,0.44-3.61,1.19
	l-1.34-1.34c1.37-1.08,3.08-1.73,4.95-1.73C30.24,17.55,33.83,21.14,33.83,25.56L33.83,25.56z M24,25.08
	c-0.04,0.15-0.07,0.31-0.07,0.48c0,1.04,0.84,1.89,1.89,1.89c1.04,0,1.89-0.84,1.89-1.89s-0.84-1.89-1.89-1.89
	c-0.17,0-0.33,0.03-0.48,0.07l-1.77-1.77c0.65-0.41,1.43-0.65,2.25-0.65c2.34,0,4.24,1.9,4.24,4.24s-1.9,4.24-4.24,4.24
	s-4.24-1.9-4.24-4.24c0-0.83,0.24-1.6,0.65-2.25L24,25.08L24,25.08z M15.95,17.19l0.63-0.13c0.37-0.07,0.66-0.37,0.74-0.74
	l0.13-0.63l1.23,1.23l-0.25,1.25l-1.25,0.25L15.95,17.19z"/>
</svg>
