<?xml version="1.0" encoding="utf-8"?>
<!-- Generator: Adobe Illustrator 27.5.0, SVG Export Plug-In . SVG Version: 6.00 Build 0)  -->
<svg version="1.1" id="Layer_1" xmlns="http://www.w3.org/2000/svg" xmlns:xlink="http://www.w3.org/1999/xlink" x="0px" y="0px"
	 viewBox="0 0 50 50" style="enable-background:new 0 0 50 50;" xml:space="preserve">
<style type="text/css">
	.st0{fill:#3e6daa;}
	.st1{fill:#FFFFFF;}
</style>
<circle class="st0" cx="25" cy="25" r="21.27"/>
<path class="st1" d="M33.57,20.72c0.13-0.23,0.13-0.52-0.01-0.75l-2.42-4.08c-0.13-0.23-0.38-0.36-0.64-0.36s-0.5,0.14-0.64,0.36
	l-2.42,4.08c-0.14,0.23-0.14,0.51-0.01,0.75c0.13,0.23,0.38,0.37,0.65,0.37h1.08v2.8h-6.3c-0.41,0-0.74,0.33-0.74,0.74v4.59h-5.93
	c-0.41,0-0.74,0.33-0.74,0.74v4.41c0,0.41,0.33,0.74,0.74,0.74h1.2c0.41,0,0.74-0.33,0.74-0.74V31.9h5.93
	c0.41,0,0.74-0.33,0.74-0.74v-4.59h6.3c0.41,0,0.74-0.33,0.74-0.74v-4.74h1.08C33.19,21.09,33.43,20.95,33.57,20.72L33.57,20.72z"/>
</svg>
