<?xml version="1.0" encoding="utf-8"?>
<!-- Generator: Adobe Illustrator 27.5.0, SVG Export Plug-In . SVG Version: 6.00 Build 0)  -->
<svg version="1.1" id="Layer_1" xmlns="http://www.w3.org/2000/svg" xmlns:xlink="http://www.w3.org/1999/xlink" x="0px" y="0px"
	 viewBox="0 0 50 50" style="enable-background:new 0 0 50 50;" xml:space="preserve">
<style type="text/css">
	.st0{fill:#C6C6C5;}
</style>
<path class="st0" d="M7.9,28.52l2.42,0.62c0.12,0.04,0.22,0.12,0.26,0.26c0.28,0.92,0.66,1.82,1.12,2.68c0.06,0.12,0.06,0.26,0,0.36
	l-1.28,2.16c-0.4,0.68-0.28,1.54,0.28,2.1l2.6,2.6c0.56,0.56,1.42,0.68,2.1,0.28l2.16-1.28c0.12-0.06,0.24-0.06,0.36,0
	c0.86,0.46,1.76,0.84,2.68,1.12c0.12,0.04,0.22,0.14,0.26,0.26l0.62,2.42c0.2,0.76,0.88,1.3,1.68,1.3h3.68c0.8,0,1.48-0.54,1.68-1.3
	l0.62-2.42c0.04-0.12,0.12-0.22,0.26-0.26c0.92-0.28,1.82-0.66,2.68-1.12c0.12-0.06,0.26-0.06,0.36,0l2.16,1.28
	c0.68,0.4,1.54,0.28,2.1-0.28l2.6-2.6c0.56-0.56,0.68-1.42,0.28-2.1l-1.28-2.16c-0.06-0.12-0.06-0.24,0-0.36
	c0.46-0.86,0.84-1.76,1.12-2.68c0.04-0.12,0.14-0.22,0.26-0.26l2.42-0.62c0.76-0.2,1.3-0.88,1.3-1.68v-3.68
	c0-0.8-0.54-1.48-1.3-1.68l-2.42-0.62c-0.12-0.04-0.22-0.12-0.26-0.26c-0.28-0.92-0.66-1.82-1.12-2.68c-0.06-0.12-0.06-0.26,0-0.36
	l1.28-2.16c0.4-0.68,0.28-1.54-0.28-2.1l-2.6-2.6c-0.56-0.56-1.42-0.68-2.1-0.28l-2.16,1.28c-0.12,0.06-0.24,0.06-0.36,0
	c-0.86-0.46-1.76-0.84-2.68-1.12c-0.12-0.04-0.22-0.14-0.26-0.26L28.52,7.9c-0.2-0.76-0.88-1.3-1.68-1.3h-3.68
	c-0.8,0-1.48,0.54-1.68,1.3l-0.62,2.42c-0.04,0.12-0.12,0.22-0.26,0.26c-0.92,0.28-1.82,0.66-2.68,1.12c-0.12,0.06-0.26,0.06-0.36,0
	l-2.16-1.28c-0.68-0.4-1.54-0.28-2.1,0.28l-2.6,2.6c-0.56,0.56-0.68,1.42-0.28,2.1l1.28,2.16c0.06,0.12,0.06,0.24,0,0.36
	c-0.46,0.86-0.84,1.76-1.12,2.68c-0.04,0.12-0.14,0.22-0.26,0.26L7.9,21.48c-0.76,0.2-1.3,0.88-1.3,1.68v3.68
	C6.6,27.64,7.14,28.32,7.9,28.52L7.9,28.52z M17.42,22.82l1.9-3.3c0.78-1.34,2.24-2.18,3.78-2.18h3.8c1.56,0,3.02,0.84,3.78,2.18
	l1.9,3.3c0.78,1.34,0.78,3.02,0,4.38l-1.9,3.3c-0.78,1.34-2.24,2.18-3.78,2.18h-3.8c-1.56,0-3.02-0.84-3.78-2.18l-1.9-3.3
	C16.64,25.84,16.64,24.16,17.42,22.82L17.42,22.82z"/>
</svg>
